<svg width="677" height="638" viewBox="0 0 677 638" fill="none" xmlns="http://www.w3.org/2000/svg">
<rect width="677" height="638" fill="#F5F5F5"/>
<rect x="1.5" y="253.5" width="219" height="383" fill="#E1D0B1" stroke="black" stroke-width="3"/>
<rect x="340" y="372" width="334" height="73" fill="#D9D9D9"/>
<rect x="271" y="138" width="69" height="497" fill="#D9D9D9"/>
<rect x="7" y="138" width="264" height="68" fill="#D9D9D9"/>
<rect x="340" y="566" width="334" height="69" fill="#D9D9D9"/>
<rect x="31.5" y="159.5" width="95" height="47" fill="#F1D8B0" stroke="black" stroke-width="3"/>
<rect x="251" y="114" width="54" height="24" fill="#F1B0B1"/>
<rect x="126.5" y="159.5" width="94" height="47" fill="#F1D8B0" stroke="black" stroke-width="3"/>
<rect x="217.5" y="159.5" width="53" height="47" fill="#F1D8B0" stroke="black" stroke-width="3"/>
<rect x="270.5" y="561.5" width="53" height="75" fill="#F1D8B0" stroke="black" stroke-width="3"/>
<rect x="377.5" y="594.5" width="75" height="42" fill="#F1D8B0" stroke="black" stroke-width="3"/>
<rect x="452.5" y="594.5" width="75" height="42" fill="#F1D8B0" stroke="black" stroke-width="3"/>
<rect x="527.5" y="594.5" width="75" height="42" fill="#F1D8B0" stroke="black" stroke-width="3"/>
<rect x="600.5" y="594.5" width="75" height="42" fill="#F1D8B0" stroke="black" stroke-width="3"/>
<rect x="377.5" y="404.5" width="75" height="42" fill="#F1D8B0" stroke="black" stroke-width="3"/>
<rect x="452.5" y="404.5" width="75" height="42" fill="#F1D8B0" stroke="black" stroke-width="3"/>
<rect x="527.5" y="404.5" width="75" height="42" fill="#F1D8B0" stroke="black" stroke-width="3"/>
<rect x="600.5" y="404.5" width="75" height="42" fill="#F1D8B0" stroke="black" stroke-width="3"/>
<rect x="270.5" y="519.5" width="53" height="42" fill="#F1D8B0" stroke="black" stroke-width="3"/>
<rect x="270.5" y="338.5" width="46" height="32" fill="#F1D8B0" stroke="black" stroke-width="3"/>
<rect x="270.5" y="284.5" width="46" height="54" fill="#F1D8B0" stroke="black" stroke-width="3"/>
<rect x="270.5" y="256.5" width="46" height="28" fill="#F1D8B0" stroke="black" stroke-width="3"/>
<rect x="270.5" y="445.5" width="53" height="74" fill="#F1D8B0" stroke="black" stroke-width="3"/>
<rect x="591" width="25" height="25" fill="#70B56F"/>
<rect x="591" y="32" width="25" height="25" fill="#F1B0B1"/>
<path d="M633.77 16.155C633.69 16.205 633.61 16.235 633.53 16.245C633.45 16.255 633.385 16.225 633.335 16.155L632.735 15.33C632.675 15.24 632.66 15.16 632.69 15.09C632.73 15.01 632.775 14.95 632.825 14.91C633.505 14.49 634.115 14.015 634.655 13.485C635.205 12.945 635.67 12.39 636.05 11.82C636.44 11.24 636.74 10.66 636.95 10.08C637.16 9.5 637.275 8.96 637.295 8.46C637.305 8.25 637.285 8.11 637.235 8.04C637.185 7.96 637.055 7.92 636.845 7.92H633.53C633.39 7.92 633.32 7.855 633.32 7.725V6.705C633.32 6.655 633.34 6.61 633.38 6.57C633.43 6.53 633.48 6.51 633.53 6.51H637.895C638.325 6.51 638.62 6.595 638.78 6.765C638.94 6.925 639.015 7.2 639.005 7.59C638.995 7.79 638.98 7.99 638.96 8.19C638.95 8.39 638.93 8.585 638.9 8.775H640.505V5.82C640.505 5.69 640.575 5.625 640.715 5.625H641.945C642.075 5.625 642.14 5.69 642.14 5.82V18.915C642.14 19.055 642.075 19.125 641.945 19.125H640.715C640.575 19.125 640.505 19.055 640.505 18.915V13.5H638.36C638.31 13.5 638.26 13.48 638.21 13.44C638.17 13.4 638.15 13.355 638.15 13.305V12.315C638.15 12.265 638.17 12.225 638.21 12.195C638.26 12.155 638.31 12.135 638.36 12.135H640.505V10.155H638.6C638.22 11.365 637.615 12.48 636.785 13.5C635.955 14.52 634.95 15.405 633.77 16.155ZM645.005 19.44C645.005 19.57 644.94 19.635 644.81 19.635H643.505C643.375 19.635 643.31 19.57 643.31 19.44V5.565C643.31 5.435 643.38 5.37 643.52 5.37H644.81C644.94 5.37 645.005 5.435 645.005 5.565V19.44ZM655.361 12.39C655.381 12.5 655.361 12.575 655.301 12.615C655.251 12.645 655.201 12.67 655.151 12.69C654.781 12.8 654.326 12.895 653.786 12.975C653.246 13.045 652.671 13.105 652.061 13.155C651.461 13.205 650.861 13.24 650.261 13.26C649.661 13.28 649.116 13.28 648.626 13.26C648.296 13.24 648.031 13.155 647.831 13.005C647.641 12.855 647.546 12.605 647.546 12.255V7.185C647.546 6.835 647.616 6.59 647.756 6.45C647.906 6.31 648.171 6.24 648.551 6.24H653.831C653.971 6.24 654.041 6.305 654.041 6.435V7.485C654.041 7.615 653.971 7.68 653.831 7.68H649.541C649.361 7.68 649.271 7.765 649.271 7.935V11.4C649.271 11.56 649.296 11.665 649.346 11.715C649.406 11.765 649.531 11.795 649.721 11.805C650.041 11.825 650.411 11.83 650.831 11.82C651.261 11.8 651.706 11.775 652.166 11.745C652.636 11.705 653.106 11.655 653.576 11.595C654.046 11.535 654.486 11.465 654.896 11.385C655.066 11.355 655.166 11.41 655.196 11.55L655.361 12.39ZM658.421 19.17C658.421 19.23 658.396 19.275 658.346 19.305C658.306 19.335 658.261 19.35 658.211 19.35H650.276C649.826 19.35 649.521 19.27 649.361 19.11C649.211 18.95 649.136 18.675 649.136 18.285V15.09C649.136 15.04 649.156 14.99 649.196 14.94C649.246 14.89 649.296 14.865 649.346 14.865H650.636C650.696 14.865 650.746 14.89 650.786 14.94C650.836 14.98 650.861 15.03 650.861 15.09V17.67C650.861 17.77 650.881 17.835 650.921 17.865C650.961 17.895 651.031 17.91 651.131 17.91H658.211C658.261 17.91 658.306 17.93 658.346 17.97C658.396 18.01 658.421 18.055 658.421 18.105V19.17ZM660.086 11.22C660.086 11.27 660.061 11.315 660.011 11.355C659.971 11.385 659.926 11.4 659.876 11.4H657.836V15.285C657.836 15.415 657.771 15.48 657.641 15.48H656.306C656.176 15.48 656.111 15.415 656.111 15.285V5.565C656.111 5.435 656.176 5.37 656.306 5.37H657.641C657.771 5.37 657.836 5.435 657.836 5.565V9.96H659.876C659.926 9.96 659.971 9.98 660.011 10.02C660.061 10.05 660.086 10.09 660.086 10.14V11.22Z" fill="black"/>
<path d="M631.905 41.39C632.365 41.39 632.795 41.455 633.195 41.585C633.595 41.705 633.945 41.875 634.245 42.095C634.545 42.315 634.78 42.585 634.95 42.905C635.12 43.215 635.205 43.555 635.205 43.925C635.205 44.245 635.14 44.545 635.01 44.825C634.89 45.095 634.715 45.335 634.485 45.545C634.265 45.755 634 45.935 633.69 46.085C633.38 46.225 633.045 46.325 632.685 46.385V47.645C633.855 47.585 635.01 47.465 636.15 47.285C636.2 47.275 636.255 47.28 636.315 47.3C636.375 47.31 636.41 47.355 636.42 47.435L636.51 48.365C636.52 48.445 636.505 48.505 636.465 48.545C636.425 48.585 636.38 48.61 636.33 48.62C634.93 48.85 633.48 49 631.98 49.07C630.48 49.14 629.01 49.165 627.57 49.145C627.51 49.145 627.46 49.125 627.42 49.085C627.38 49.035 627.36 48.98 627.36 48.92V47.945C627.36 47.795 627.43 47.72 627.57 47.72C628.71 47.75 629.86 47.75 631.02 47.72V46.37C630.67 46.3 630.345 46.195 630.045 46.055C629.755 45.905 629.5 45.725 629.28 45.515C629.07 45.305 628.905 45.07 628.785 44.81C628.665 44.54 628.605 44.245 628.605 43.925C628.605 43.555 628.69 43.215 628.86 42.905C629.04 42.585 629.28 42.315 629.58 42.095C629.88 41.875 630.23 41.705 630.63 41.585C631.03 41.455 631.455 41.39 631.905 41.39ZM640.995 44.51C640.995 44.56 640.97 44.605 640.92 44.645C640.88 44.685 640.835 44.705 640.785 44.705H638.82V51.41C638.82 51.54 638.755 51.605 638.625 51.605H637.29C637.16 51.605 637.095 51.54 637.095 51.41V37.565C637.095 37.435 637.16 37.37 637.29 37.37H638.625C638.755 37.37 638.82 37.435 638.82 37.565V43.265H640.785C640.835 43.265 640.88 43.285 640.92 43.325C640.97 43.365 640.995 43.41 640.995 43.46V44.51ZM635.985 40.655C635.985 40.715 635.96 40.77 635.91 40.82C635.87 40.86 635.82 40.88 635.76 40.88H627.84C627.79 40.88 627.735 40.855 627.675 40.805C627.625 40.755 627.6 40.7 627.6 40.64V39.8C627.6 39.75 627.63 39.7 627.69 39.65C627.75 39.6 627.805 39.575 627.855 39.575H635.76C635.82 39.575 635.87 39.6 635.91 39.65C635.96 39.69 635.985 39.74 635.985 39.8V40.655ZM631.905 42.725C631.425 42.725 631.025 42.84 630.705 43.07C630.385 43.29 630.225 43.575 630.225 43.925C630.225 44.275 630.38 44.565 630.69 44.795C631.01 45.025 631.415 45.14 631.905 45.14C632.395 45.14 632.795 45.025 633.105 44.795C633.425 44.565 633.585 44.275 633.585 43.925C633.585 43.575 633.425 43.29 633.105 43.07C632.795 42.84 632.395 42.725 631.905 42.725ZM634.08 38.705C634.08 38.775 634.055 38.835 634.005 38.885C633.965 38.935 633.91 38.96 633.84 38.96H629.82C629.78 38.96 629.73 38.94 629.67 38.9C629.62 38.86 629.595 38.8 629.595 38.72V37.85C629.595 37.78 629.62 37.725 629.67 37.685C629.73 37.645 629.78 37.625 629.82 37.625H633.84C633.9 37.625 633.955 37.65 634.005 37.7C634.055 37.75 634.08 37.805 634.08 37.865V38.705ZM653.001 48.755C653.001 49.175 652.886 49.565 652.656 49.925C652.426 50.275 652.111 50.575 651.711 50.825C651.311 51.085 650.831 51.285 650.271 51.425C649.721 51.565 649.126 51.635 648.486 51.635C647.796 51.635 647.176 51.565 646.626 51.425C646.076 51.285 645.606 51.085 645.216 50.825C644.836 50.575 644.541 50.275 644.331 49.925C644.121 49.575 644.016 49.185 644.016 48.755C644.016 48.335 644.121 47.95 644.331 47.6C644.541 47.25 644.836 46.95 645.216 46.7C645.606 46.44 646.076 46.24 646.626 46.1C647.176 45.96 647.796 45.89 648.486 45.89C649.126 45.89 649.721 45.96 650.271 46.1C650.831 46.24 651.311 46.435 651.711 46.685C652.111 46.935 652.426 47.235 652.656 47.585C652.886 47.935 653.001 48.325 653.001 48.755ZM642.801 45.44C642.731 45.47 642.646 45.485 642.546 45.485C642.456 45.485 642.381 45.43 642.321 45.32L641.856 44.57C641.806 44.49 641.791 44.405 641.811 44.315C641.841 44.225 641.906 44.155 642.006 44.105C643.116 43.595 644.081 42.975 644.901 42.245C645.731 41.505 646.346 40.72 646.746 39.89C646.796 39.8 646.816 39.72 646.806 39.65C646.796 39.58 646.711 39.545 646.551 39.545H642.786C642.716 39.545 642.661 39.52 642.621 39.47C642.591 39.42 642.576 39.365 642.576 39.305V38.315C642.576 38.175 642.651 38.105 642.801 38.105H647.616C648.056 38.105 648.381 38.185 648.591 38.345C648.811 38.505 648.896 38.75 648.846 39.08C648.826 39.19 648.801 39.305 648.771 39.425C648.741 39.545 648.706 39.65 648.666 39.74C648.546 40.06 648.386 40.385 648.186 40.715C647.996 41.035 647.781 41.355 647.541 41.675C647.721 41.855 647.921 42.035 648.141 42.215C648.361 42.395 648.586 42.565 648.816 42.725C649.046 42.885 649.271 43.035 649.491 43.175C649.721 43.305 649.936 43.42 650.136 43.52C650.246 43.57 650.316 43.625 650.346 43.685C650.376 43.735 650.356 43.81 650.286 43.91L649.791 44.75C649.681 44.93 649.531 44.965 649.341 44.855C649.161 44.775 648.951 44.665 648.711 44.525C648.481 44.375 648.241 44.21 647.991 44.03C647.741 43.84 647.491 43.645 647.241 43.445C646.991 43.235 646.761 43.025 646.551 42.815C646.021 43.335 645.436 43.82 644.796 44.27C644.156 44.72 643.491 45.11 642.801 45.44ZM655.101 42.23C655.101 42.28 655.076 42.325 655.026 42.365C654.986 42.405 654.936 42.425 654.876 42.425H652.851V45.485C652.851 45.535 652.831 45.585 652.791 45.635C652.751 45.675 652.706 45.695 652.656 45.695H651.321C651.271 45.695 651.226 45.675 651.186 45.635C651.146 45.585 651.126 45.53 651.126 45.47V37.565C651.126 37.435 651.191 37.37 651.321 37.37H652.656C652.786 37.37 652.851 37.435 652.851 37.565V40.985H654.876C654.936 40.985 654.986 41.005 655.026 41.045C655.076 41.085 655.101 41.13 655.101 41.18V42.23ZM651.231 48.8C651.231 48.55 651.156 48.33 651.006 48.14C650.856 47.95 650.656 47.79 650.406 47.66C650.156 47.53 649.866 47.43 649.536 47.36C649.206 47.29 648.856 47.255 648.486 47.255C647.686 47.255 647.036 47.39 646.536 47.66C646.046 47.92 645.801 48.3 645.801 48.8C645.801 49.04 645.866 49.25 645.996 49.43C646.136 49.61 646.321 49.765 646.551 49.895C646.791 50.015 647.076 50.105 647.406 50.165C647.736 50.235 648.096 50.27 648.486 50.27C648.856 50.27 649.206 50.235 649.536 50.165C649.866 50.105 650.156 50.015 650.406 49.895C650.656 49.765 650.856 49.61 651.006 49.43C651.156 49.25 651.231 49.04 651.231 48.8ZM667.828 51.365C667.828 51.415 667.803 51.46 667.753 51.5C667.713 51.55 667.673 51.575 667.633 51.575H659.668C659.278 51.575 659.013 51.5 658.873 51.35C658.733 51.2 658.663 50.965 658.663 50.645V48.815C658.663 48.495 658.728 48.265 658.858 48.125C658.998 47.975 659.263 47.9 659.653 47.9H665.578C665.658 47.9 665.708 47.89 665.728 47.87C665.748 47.84 665.758 47.78 665.758 47.69V47.135C665.758 47.025 665.748 46.96 665.728 46.94C665.708 46.92 665.653 46.91 665.563 46.91H658.843C658.793 46.91 658.743 46.895 658.693 46.865C658.653 46.825 658.633 46.78 658.633 46.73V45.74C658.633 45.69 658.653 45.645 658.693 45.605C658.743 45.555 658.793 45.53 658.843 45.53H666.418C666.828 45.53 667.098 45.6 667.228 45.74C667.368 45.88 667.438 46.12 667.438 46.46V48.275C667.438 48.625 667.368 48.865 667.228 48.995C667.098 49.125 666.828 49.19 666.418 49.19H660.538C660.458 49.19 660.408 49.205 660.388 49.235C660.368 49.255 660.358 49.305 660.358 49.385V50.015C660.358 50.105 660.368 50.155 660.388 50.165C660.408 50.185 660.463 50.195 660.553 50.195H667.618C667.668 50.195 667.713 50.215 667.753 50.255C667.803 50.295 667.828 50.345 667.828 50.405V51.365ZM657.028 44.765C656.808 44.895 656.648 44.89 656.548 44.75L655.948 44.015C655.888 43.935 655.858 43.86 655.858 43.79C655.868 43.71 655.923 43.645 656.023 43.595C657.213 42.945 658.078 42.16 658.618 41.24C659.158 40.31 659.428 39.16 659.428 37.79C659.428 37.72 659.453 37.665 659.503 37.625C659.563 37.585 659.618 37.565 659.668 37.565L660.958 37.625C661.088 37.625 661.153 37.7 661.153 37.85C661.153 38.27 661.128 38.67 661.078 39.05C661.028 39.42 660.958 39.78 660.868 40.13C661.038 40.46 661.248 40.775 661.498 41.075C661.748 41.375 662.013 41.65 662.293 41.9C662.573 42.15 662.858 42.37 663.148 42.56C663.448 42.74 663.733 42.89 664.003 43.01C664.173 43.08 664.203 43.205 664.093 43.385L663.583 44.195C663.483 44.345 663.353 44.385 663.193 44.315C662.593 44.055 662.033 43.71 661.513 43.28C661.003 42.85 660.558 42.365 660.178 41.825C659.828 42.455 659.383 43.015 658.843 43.505C658.313 43.985 657.708 44.405 657.028 44.765ZM667.438 44.645C667.438 44.775 667.373 44.84 667.243 44.84H665.908C665.778 44.84 665.713 44.77 665.713 44.63V37.565C665.713 37.435 665.778 37.37 665.908 37.37H667.243C667.373 37.37 667.438 37.435 667.438 37.565V44.645Z" fill="black"/>
<rect x="305" y="114" width="35" height="24" fill="#70B56F"/>
<rect x="10" y="158" width="20" height="47" fill="#70B56F"/>
<rect x="340" y="445" width="36" height="29" fill="#70B56F"/>
<rect x="340" y="343" width="36" height="29" fill="#70B56F"/>
<rect x="340" y="537" width="48" height="32" fill="#F1B0B1"/>
<rect x="340" y="474" width="25" height="40" fill="#F1B0B1"/>
<rect x="340" y="596" width="36" height="39" fill="#70B56F"/>
<line x1="7" y1="206.5" x2="269" y2="206.5" stroke="black" stroke-width="3"/>
<line x1="7" y1="136.5" x2="271" y2="136.5" stroke="black" stroke-width="3"/>
<line x1="343" y1="112.5" x2="248" y2="112.5" stroke="black" stroke-width="3"/>
<line x1="341.5" y1="372" x2="341.553" y2="114" stroke="black" stroke-width="3"/>
<line x1="249.5" y1="138" x2="249.5" y2="114" stroke="black" stroke-width="3"/>
<line x1="270.5" y1="208" x2="270.5" y2="635" stroke="black" stroke-width="3"/>
<line x1="389.5" y1="537" x2="389.5" y2="566" stroke="black" stroke-width="3"/>
<line x1="366.5" y1="474" x2="366.5" y2="514" stroke="black" stroke-width="3"/>
<line x1="377.5" y1="448" x2="377.5" y2="476" stroke="black" stroke-width="3"/>
<line x1="377.5" y1="340" x2="377.5" y2="369" stroke="black" stroke-width="3"/>
<line x1="675.5" y1="370" x2="675.5" y2="448" stroke="black" stroke-width="3"/>
<line x1="675.5" y1="566" x2="675.5" y2="638" stroke="black" stroke-width="3"/>
<line x1="675.995" y1="371.5" x2="375.995" y2="370.476" stroke="black" stroke-width="3"/>
<line x1="675" y1="446.5" x2="376" y2="446.5" stroke="black" stroke-width="3"/>
<line x1="391" y1="535.5" x2="340" y2="535.5" stroke="black" stroke-width="3"/>
<path d="M368 515.5L340 515.5" stroke="black" stroke-width="3"/>
<line x1="674" y1="636.5" x2="269" y2="636.5" stroke="black" stroke-width="3"/>
<line x1="8.5" y1="138" x2="8.5" y2="205" stroke="black" stroke-width="3"/>
<line x1="304.5" y1="138" x2="304.5" y2="114" stroke="black" stroke-width="3"/>
<line x1="341.5" y1="514" x2="341.5" y2="569" stroke="black" stroke-width="3"/>
<line x1="341.5" y1="596" x2="341.5" y2="635" stroke="black" stroke-width="3"/>
<line x1="377.5" y1="596" x2="377.5" y2="635" stroke="black" stroke-width="3"/>
<line x1="340" y1="474.5" x2="376" y2="474.5" stroke="black" stroke-width="3"/>
<line x1="340" y1="341.5" x2="376" y2="341.5" stroke="black" stroke-width="3"/>
<line x1="341.5" y1="445" x2="341.5" y2="489" stroke="black" stroke-width="3"/>
<line x1="353" y1="567.5" x2="340" y2="567.5" stroke="black" stroke-width="3"/>
<line x1="674" y1="567.5" x2="388" y2="567.5" stroke="black" stroke-width="3"/>
<path d="M632.69 430.265C632.31 430.575 631.85 430.805 631.31 430.955C630.78 431.095 630.225 431.165 629.645 431.165C629.215 431.165 628.78 431.125 628.34 431.045C627.91 430.975 627.51 430.875 627.14 430.745C627.04 430.715 626.97 430.68 626.93 430.64C626.89 430.59 626.875 430.52 626.885 430.43L627.02 429.305C627.03 429.215 627.06 429.155 627.11 429.125C627.16 429.095 627.255 429.105 627.395 429.155C627.655 429.235 627.915 429.315 628.175 429.395C628.435 429.465 628.7 429.51 628.97 429.53C629.18 429.55 629.395 429.565 629.615 429.575C629.835 429.585 630.05 429.58 630.26 429.56C630.48 429.53 630.685 429.485 630.875 429.425C631.075 429.355 631.26 429.26 631.43 429.14C631.91 428.81 632.15 428.31 632.15 427.64C632.15 427.41 632.095 427.19 631.985 426.98C631.885 426.76 631.725 426.57 631.505 426.41C631.285 426.24 631 426.11 630.65 426.02C630.31 425.92 629.9 425.87 629.42 425.87H628.67C628.59 425.87 628.535 425.86 628.505 425.84C628.485 425.81 628.475 425.755 628.475 425.675V424.565C628.475 424.475 628.485 424.42 628.505 424.4C628.535 424.38 628.59 424.37 628.67 424.37H629.39C629.61 424.37 629.875 424.34 630.185 424.28C630.495 424.21 630.795 424.1 631.085 423.95C631.375 423.8 631.62 423.61 631.82 423.38C632.03 423.15 632.135 422.87 632.135 422.54C632.135 422.28 632.07 422.055 631.94 421.865C631.81 421.675 631.64 421.52 631.43 421.4C631.23 421.28 631.01 421.195 630.77 421.145C630.53 421.085 630.305 421.055 630.095 421.055C629.955 421.055 629.79 421.07 629.6 421.1C629.42 421.13 629.23 421.17 629.03 421.22C628.84 421.26 628.645 421.31 628.445 421.37C628.245 421.43 628.065 421.49 627.905 421.55C627.785 421.6 627.7 421.615 627.65 421.595C627.6 421.565 627.565 421.505 627.545 421.415L627.41 420.32C627.39 420.26 627.395 420.205 627.425 420.155C627.455 420.105 627.525 420.06 627.635 420.02C628.075 419.86 628.505 419.735 628.925 419.645C629.345 419.555 629.765 419.51 630.185 419.51C630.635 419.51 631.075 419.565 631.505 419.675C631.945 419.785 632.33 419.955 632.66 420.185C633 420.415 633.275 420.715 633.485 421.085C633.695 421.455 633.8 421.895 633.8 422.405C633.8 422.675 633.75 422.945 633.65 423.215C633.56 423.485 633.43 423.74 633.26 423.98C633.09 424.22 632.885 424.435 632.645 424.625C632.405 424.815 632.145 424.97 631.865 425.09C632.525 425.38 633.025 425.75 633.365 426.2C633.705 426.64 633.875 427.135 633.875 427.685C633.875 428.215 633.77 428.7 633.56 429.14C633.36 429.58 633.07 429.955 632.69 430.265ZM636.087 425.915C636.037 425.915 635.992 425.9 635.952 425.87C635.912 425.83 635.892 425.785 635.892 425.735V424.535C635.892 424.485 635.912 424.445 635.952 424.415C635.992 424.375 636.037 424.355 636.087 424.355H639.717C639.777 424.355 639.822 424.375 639.852 424.415C639.892 424.445 639.912 424.485 639.912 424.535V425.735C639.912 425.785 639.892 425.83 639.852 425.87C639.822 425.9 639.777 425.915 639.717 425.915H636.087ZM645.151 431.165C644.701 431.165 644.246 431.1 643.786 430.97C643.336 430.83 642.931 430.63 642.571 430.37C642.211 430.1 641.916 429.765 641.686 429.365C641.456 428.955 641.341 428.48 641.341 427.94C641.341 427.57 641.401 427.245 641.521 426.965C641.651 426.675 641.816 426.42 642.016 426.2C642.226 425.97 642.466 425.765 642.736 425.585C643.016 425.405 643.306 425.24 643.606 425.09C643.006 424.75 642.531 424.355 642.181 423.905C641.831 423.445 641.656 422.93 641.656 422.36C641.656 421.94 641.746 421.555 641.926 421.205C642.116 420.855 642.366 420.555 642.676 420.305C642.996 420.055 643.366 419.86 643.786 419.72C644.216 419.58 644.671 419.51 645.151 419.51C645.651 419.51 646.111 419.575 646.531 419.705C646.961 419.835 647.326 420.02 647.626 420.26C647.936 420.5 648.176 420.795 648.346 421.145C648.526 421.485 648.616 421.875 648.616 422.315C648.616 422.825 648.456 423.3 648.136 423.74C647.826 424.18 647.346 424.625 646.696 425.075C647.046 425.285 647.361 425.49 647.641 425.69C647.921 425.88 648.161 426.09 648.361 426.32C648.561 426.54 648.711 426.78 648.811 427.04C648.921 427.3 648.976 427.6 648.976 427.94C648.976 428.48 648.866 428.955 648.646 429.365C648.436 429.765 648.151 430.1 647.791 430.37C647.441 430.63 647.036 430.83 646.576 430.97C646.116 431.1 645.641 431.165 645.151 431.165ZM645.151 420.98C644.941 420.98 644.731 421.015 644.521 421.085C644.311 421.155 644.121 421.255 643.951 421.385C643.781 421.505 643.641 421.66 643.531 421.85C643.421 422.03 643.366 422.24 643.366 422.48C643.366 422.69 643.436 422.895 643.576 423.095C643.716 423.295 643.881 423.48 644.071 423.65C644.271 423.82 644.471 423.965 644.671 424.085C644.871 424.205 645.036 424.29 645.166 424.34C645.316 424.28 645.491 424.185 645.691 424.055C645.891 423.915 646.081 423.755 646.261 423.575C646.451 423.395 646.606 423.205 646.726 423.005C646.856 422.805 646.921 422.615 646.921 422.435C646.921 422.235 646.871 422.05 646.771 421.88C646.681 421.7 646.556 421.545 646.396 421.415C646.236 421.275 646.046 421.17 645.826 421.1C645.616 421.02 645.391 420.98 645.151 420.98ZM645.166 425.915C644.966 425.975 644.741 426.06 644.491 426.17C644.241 426.27 644.006 426.4 643.786 426.56C643.576 426.72 643.396 426.915 643.246 427.145C643.096 427.365 643.021 427.63 643.021 427.94C643.021 428.2 643.086 428.435 643.216 428.645C643.346 428.855 643.511 429.035 643.711 429.185C643.921 429.335 644.151 429.45 644.401 429.53C644.661 429.61 644.911 429.65 645.151 429.65C645.411 429.65 645.666 429.615 645.916 429.545C646.176 429.465 646.406 429.35 646.606 429.2C646.806 429.05 646.966 428.87 647.086 428.66C647.216 428.45 647.281 428.21 647.281 427.94C647.281 427.75 647.216 427.555 647.086 427.355C646.966 427.145 646.801 426.95 646.591 426.77C646.391 426.59 646.166 426.425 645.916 426.275C645.666 426.125 645.416 426.005 645.166 425.915Z" fill="black"/>
<path d="M558.69 430.265C558.31 430.575 557.85 430.805 557.31 430.955C556.78 431.095 556.225 431.165 555.645 431.165C555.215 431.165 554.78 431.125 554.34 431.045C553.91 430.975 553.51 430.875 553.14 430.745C553.04 430.715 552.97 430.68 552.93 430.64C552.89 430.59 552.875 430.52 552.885 430.43L553.02 429.305C553.03 429.215 553.06 429.155 553.11 429.125C553.16 429.095 553.255 429.105 553.395 429.155C553.655 429.235 553.915 429.315 554.175 429.395C554.435 429.465 554.7 429.51 554.97 429.53C555.18 429.55 555.395 429.565 555.615 429.575C555.835 429.585 556.05 429.58 556.26 429.56C556.48 429.53 556.685 429.485 556.875 429.425C557.075 429.355 557.26 429.26 557.43 429.14C557.91 428.81 558.15 428.31 558.15 427.64C558.15 427.41 558.095 427.19 557.985 426.98C557.885 426.76 557.725 426.57 557.505 426.41C557.285 426.24 557 426.11 556.65 426.02C556.31 425.92 555.9 425.87 555.42 425.87H554.67C554.59 425.87 554.535 425.86 554.505 425.84C554.485 425.81 554.475 425.755 554.475 425.675V424.565C554.475 424.475 554.485 424.42 554.505 424.4C554.535 424.38 554.59 424.37 554.67 424.37H555.39C555.61 424.37 555.875 424.34 556.185 424.28C556.495 424.21 556.795 424.1 557.085 423.95C557.375 423.8 557.62 423.61 557.82 423.38C558.03 423.15 558.135 422.87 558.135 422.54C558.135 422.28 558.07 422.055 557.94 421.865C557.81 421.675 557.64 421.52 557.43 421.4C557.23 421.28 557.01 421.195 556.77 421.145C556.53 421.085 556.305 421.055 556.095 421.055C555.955 421.055 555.79 421.07 555.6 421.1C555.42 421.13 555.23 421.17 555.03 421.22C554.84 421.26 554.645 421.31 554.445 421.37C554.245 421.43 554.065 421.49 553.905 421.55C553.785 421.6 553.7 421.615 553.65 421.595C553.6 421.565 553.565 421.505 553.545 421.415L553.41 420.32C553.39 420.26 553.395 420.205 553.425 420.155C553.455 420.105 553.525 420.06 553.635 420.02C554.075 419.86 554.505 419.735 554.925 419.645C555.345 419.555 555.765 419.51 556.185 419.51C556.635 419.51 557.075 419.565 557.505 419.675C557.945 419.785 558.33 419.955 558.66 420.185C559 420.415 559.275 420.715 559.485 421.085C559.695 421.455 559.8 421.895 559.8 422.405C559.8 422.675 559.75 422.945 559.65 423.215C559.56 423.485 559.43 423.74 559.26 423.98C559.09 424.22 558.885 424.435 558.645 424.625C558.405 424.815 558.145 424.97 557.865 425.09C558.525 425.38 559.025 425.75 559.365 426.2C559.705 426.64 559.875 427.135 559.875 427.685C559.875 428.215 559.77 428.7 559.56 429.14C559.36 429.58 559.07 429.955 558.69 430.265ZM562.087 425.915C562.037 425.915 561.992 425.9 561.952 425.87C561.912 425.83 561.892 425.785 561.892 425.735V424.535C561.892 424.485 561.912 424.445 561.952 424.415C561.992 424.375 562.037 424.355 562.087 424.355H565.717C565.777 424.355 565.822 424.375 565.852 424.415C565.892 424.445 565.912 424.485 565.912 424.535V425.735C565.912 425.785 565.892 425.83 565.852 425.87C565.822 425.9 565.777 425.915 565.717 425.915H562.087ZM570.476 430.835C570.436 430.915 570.396 430.97 570.356 431C570.316 431.03 570.246 431.045 570.146 431.045H568.931C568.781 431.045 568.686 431.03 568.646 431C568.606 430.96 568.606 430.885 568.646 430.775L572.561 421.19H567.776C567.706 421.19 567.646 421.17 567.596 421.13C567.546 421.08 567.521 421.015 567.521 420.935V419.885C567.521 419.725 567.606 419.645 567.776 419.645H574.166C574.336 419.645 574.436 419.665 574.466 419.705C574.506 419.735 574.526 419.805 574.526 419.915V420.83C574.526 420.91 574.501 420.99 574.451 421.07L570.476 430.835Z" fill="black"/>
<path d="M484.69 430.265C484.31 430.575 483.85 430.805 483.31 430.955C482.78 431.095 482.225 431.165 481.645 431.165C481.215 431.165 480.78 431.125 480.34 431.045C479.91 430.975 479.51 430.875 479.14 430.745C479.04 430.715 478.97 430.68 478.93 430.64C478.89 430.59 478.875 430.52 478.885 430.43L479.02 429.305C479.03 429.215 479.06 429.155 479.11 429.125C479.16 429.095 479.255 429.105 479.395 429.155C479.655 429.235 479.915 429.315 480.175 429.395C480.435 429.465 480.7 429.51 480.97 429.53C481.18 429.55 481.395 429.565 481.615 429.575C481.835 429.585 482.05 429.58 482.26 429.56C482.48 429.53 482.685 429.485 482.875 429.425C483.075 429.355 483.26 429.26 483.43 429.14C483.91 428.81 484.15 428.31 484.15 427.64C484.15 427.41 484.095 427.19 483.985 426.98C483.885 426.76 483.725 426.57 483.505 426.41C483.285 426.24 483 426.11 482.65 426.02C482.31 425.92 481.9 425.87 481.42 425.87H480.67C480.59 425.87 480.535 425.86 480.505 425.84C480.485 425.81 480.475 425.755 480.475 425.675V424.565C480.475 424.475 480.485 424.42 480.505 424.4C480.535 424.38 480.59 424.37 480.67 424.37H481.39C481.61 424.37 481.875 424.34 482.185 424.28C482.495 424.21 482.795 424.1 483.085 423.95C483.375 423.8 483.62 423.61 483.82 423.38C484.03 423.15 484.135 422.87 484.135 422.54C484.135 422.28 484.07 422.055 483.94 421.865C483.81 421.675 483.64 421.52 483.43 421.4C483.23 421.28 483.01 421.195 482.77 421.145C482.53 421.085 482.305 421.055 482.095 421.055C481.955 421.055 481.79 421.07 481.6 421.1C481.42 421.13 481.23 421.17 481.03 421.22C480.84 421.26 480.645 421.31 480.445 421.37C480.245 421.43 480.065 421.49 479.905 421.55C479.785 421.6 479.7 421.615 479.65 421.595C479.6 421.565 479.565 421.505 479.545 421.415L479.41 420.32C479.39 420.26 479.395 420.205 479.425 420.155C479.455 420.105 479.525 420.06 479.635 420.02C480.075 419.86 480.505 419.735 480.925 419.645C481.345 419.555 481.765 419.51 482.185 419.51C482.635 419.51 483.075 419.565 483.505 419.675C483.945 419.785 484.33 419.955 484.66 420.185C485 420.415 485.275 420.715 485.485 421.085C485.695 421.455 485.8 421.895 485.8 422.405C485.8 422.675 485.75 422.945 485.65 423.215C485.56 423.485 485.43 423.74 485.26 423.98C485.09 424.22 484.885 424.435 484.645 424.625C484.405 424.815 484.145 424.97 483.865 425.09C484.525 425.38 485.025 425.75 485.365 426.2C485.705 426.64 485.875 427.135 485.875 427.685C485.875 428.215 485.77 428.7 485.56 429.14C485.36 429.58 485.07 429.955 484.69 430.265ZM488.087 425.915C488.037 425.915 487.992 425.9 487.952 425.87C487.912 425.83 487.892 425.785 487.892 425.735V424.535C487.892 424.485 487.912 424.445 487.952 424.415C487.992 424.375 488.037 424.355 488.087 424.355H491.717C491.777 424.355 491.822 424.375 491.852 424.415C491.892 424.445 491.912 424.485 491.912 424.535V425.735C491.912 425.785 491.892 425.83 491.852 425.87C491.822 425.9 491.777 425.915 491.717 425.915H488.087ZM497.166 431.165C495.986 431.165 495.076 430.725 494.436 429.845C493.806 428.955 493.491 427.575 493.491 425.705C493.491 424.865 493.576 424.07 493.746 423.32C493.916 422.56 494.196 421.9 494.586 421.34C494.986 420.78 495.506 420.335 496.146 420.005C496.786 419.675 497.571 419.51 498.501 419.51C498.791 419.51 499.111 419.535 499.461 419.585C499.821 419.635 500.116 419.7 500.346 419.78C500.436 419.81 500.476 419.875 500.466 419.975L500.421 421.175C500.401 421.315 500.321 421.355 500.181 421.295C499.921 421.195 499.641 421.13 499.341 421.1C499.051 421.07 498.731 421.055 498.381 421.055C497.861 421.055 497.416 421.145 497.046 421.325C496.686 421.495 496.381 421.735 496.131 422.045C495.881 422.355 495.681 422.72 495.531 423.14C495.391 423.56 495.286 424.01 495.216 424.49C495.306 424.37 495.426 424.255 495.576 424.145C495.736 424.025 495.906 423.925 496.086 423.845C496.276 423.755 496.471 423.685 496.671 423.635C496.871 423.575 497.066 423.545 497.256 423.545C497.796 423.545 498.286 423.635 498.726 423.815C499.176 423.985 499.561 424.235 499.881 424.565C500.201 424.885 500.446 425.275 500.616 425.735C500.796 426.185 500.886 426.695 500.886 427.265C500.886 427.815 500.801 428.33 500.631 428.81C500.461 429.28 500.211 429.69 499.881 430.04C499.561 430.39 499.171 430.665 498.711 430.865C498.251 431.065 497.736 431.165 497.166 431.165ZM497.316 425.105C496.666 425.105 496.156 425.305 495.786 425.705C495.416 426.095 495.231 426.595 495.231 427.205C495.231 427.545 495.281 427.865 495.381 428.165C495.481 428.465 495.616 428.73 495.786 428.96C495.966 429.18 496.176 429.355 496.416 429.485C496.656 429.615 496.916 429.68 497.196 429.68C497.796 429.68 498.286 429.47 498.666 429.05C499.046 428.63 499.236 428.06 499.236 427.34C499.236 426.65 499.066 426.105 498.726 425.705C498.396 425.305 497.926 425.105 497.316 425.105Z" fill="black"/>
<path d="M409.69 430.265C409.31 430.575 408.85 430.805 408.31 430.955C407.78 431.095 407.225 431.165 406.645 431.165C406.215 431.165 405.78 431.125 405.34 431.045C404.91 430.975 404.51 430.875 404.14 430.745C404.04 430.715 403.97 430.68 403.93 430.64C403.89 430.59 403.875 430.52 403.885 430.43L404.02 429.305C404.03 429.215 404.06 429.155 404.11 429.125C404.16 429.095 404.255 429.105 404.395 429.155C404.655 429.235 404.915 429.315 405.175 429.395C405.435 429.465 405.7 429.51 405.97 429.53C406.18 429.55 406.395 429.565 406.615 429.575C406.835 429.585 407.05 429.58 407.26 429.56C407.48 429.53 407.685 429.485 407.875 429.425C408.075 429.355 408.26 429.26 408.43 429.14C408.91 428.81 409.15 428.31 409.15 427.64C409.15 427.41 409.095 427.19 408.985 426.98C408.885 426.76 408.725 426.57 408.505 426.41C408.285 426.24 408 426.11 407.65 426.02C407.31 425.92 406.9 425.87 406.42 425.87H405.67C405.59 425.87 405.535 425.86 405.505 425.84C405.485 425.81 405.475 425.755 405.475 425.675V424.565C405.475 424.475 405.485 424.42 405.505 424.4C405.535 424.38 405.59 424.37 405.67 424.37H406.39C406.61 424.37 406.875 424.34 407.185 424.28C407.495 424.21 407.795 424.1 408.085 423.95C408.375 423.8 408.62 423.61 408.82 423.38C409.03 423.15 409.135 422.87 409.135 422.54C409.135 422.28 409.07 422.055 408.94 421.865C408.81 421.675 408.64 421.52 408.43 421.4C408.23 421.28 408.01 421.195 407.77 421.145C407.53 421.085 407.305 421.055 407.095 421.055C406.955 421.055 406.79 421.07 406.6 421.1C406.42 421.13 406.23 421.17 406.03 421.22C405.84 421.26 405.645 421.31 405.445 421.37C405.245 421.43 405.065 421.49 404.905 421.55C404.785 421.6 404.7 421.615 404.65 421.595C404.6 421.565 404.565 421.505 404.545 421.415L404.41 420.32C404.39 420.26 404.395 420.205 404.425 420.155C404.455 420.105 404.525 420.06 404.635 420.02C405.075 419.86 405.505 419.735 405.925 419.645C406.345 419.555 406.765 419.51 407.185 419.51C407.635 419.51 408.075 419.565 408.505 419.675C408.945 419.785 409.33 419.955 409.66 420.185C410 420.415 410.275 420.715 410.485 421.085C410.695 421.455 410.8 421.895 410.8 422.405C410.8 422.675 410.75 422.945 410.65 423.215C410.56 423.485 410.43 423.74 410.26 423.98C410.09 424.22 409.885 424.435 409.645 424.625C409.405 424.815 409.145 424.97 408.865 425.09C409.525 425.38 410.025 425.75 410.365 426.2C410.705 426.64 410.875 427.135 410.875 427.685C410.875 428.215 410.77 428.7 410.56 429.14C410.36 429.58 410.07 429.955 409.69 430.265ZM413.087 425.915C413.037 425.915 412.992 425.9 412.952 425.87C412.912 425.83 412.892 425.785 412.892 425.735V424.535C412.892 424.485 412.912 424.445 412.952 424.415C412.992 424.375 413.037 424.355 413.087 424.355H416.717C416.777 424.355 416.822 424.375 416.852 424.415C416.892 424.445 416.912 424.485 416.912 424.535V425.735C416.912 425.785 416.892 425.83 416.852 425.87C416.822 425.9 416.777 425.915 416.717 425.915H413.087ZM424.491 430.175C424.131 430.505 423.691 430.75 423.171 430.91C422.651 431.07 422.106 431.15 421.536 431.15C421.436 431.15 421.281 431.14 421.071 431.12C420.871 431.11 420.651 431.085 420.411 431.045C420.181 431.015 419.946 430.975 419.706 430.925C419.476 430.865 419.281 430.795 419.121 430.715C419.051 430.675 419.011 430.64 419.001 430.61C419.001 430.57 419.001 430.515 419.001 430.445V429.23C419.001 429.05 419.106 429.01 419.316 429.11C419.466 429.19 419.641 429.26 419.841 429.32C420.041 429.37 420.246 429.415 420.456 429.455C420.666 429.495 420.871 429.525 421.071 429.545C421.281 429.565 421.476 429.575 421.656 429.575C422.326 429.575 422.876 429.385 423.306 429.005C423.746 428.625 423.966 428.1 423.966 427.43C423.966 426.78 423.786 426.265 423.426 425.885C423.076 425.495 422.491 425.3 421.671 425.3C421.341 425.3 421.001 425.335 420.651 425.405C420.311 425.475 419.981 425.57 419.661 425.69C419.271 425.85 419.076 425.76 419.076 425.42L419.151 419.885C419.161 419.775 419.181 419.705 419.211 419.675C419.241 419.645 419.331 419.63 419.481 419.63H424.971C425.031 419.63 425.076 419.65 425.106 419.69C425.146 419.73 425.166 419.775 425.166 419.825V420.98C425.166 421.03 425.146 421.08 425.106 421.13C425.076 421.17 425.031 421.19 424.971 421.19H420.801L420.741 423.98C421.131 423.89 421.571 423.845 422.061 423.845C422.561 423.845 423.031 423.925 423.471 424.085C423.911 424.235 424.291 424.46 424.611 424.76C424.941 425.05 425.196 425.405 425.376 425.825C425.566 426.245 425.661 426.715 425.661 427.235C425.661 428.495 425.271 429.475 424.491 430.175Z" fill="black"/>
<path d="M285.816 315.934C285.816 316.298 285.716 316.632 285.517 316.935C285.326 317.238 285.053 317.498 284.698 317.715C284.351 317.932 283.94 318.096 283.463 318.209C282.986 318.33 282.471 318.391 281.916 318.391C281.318 318.391 280.781 318.33 280.304 318.209C279.827 318.096 279.42 317.932 279.082 317.715C278.753 317.507 278.497 317.251 278.315 316.948C278.142 316.645 278.055 316.307 278.055 315.934C278.055 315.57 278.142 315.241 278.315 314.946C278.497 314.643 278.753 314.383 279.082 314.166C279.42 313.949 279.827 313.785 280.304 313.672C280.781 313.551 281.318 313.49 281.916 313.49C282.471 313.49 282.986 313.551 283.463 313.672C283.94 313.785 284.351 313.949 284.698 314.166C285.053 314.374 285.326 314.63 285.517 314.933C285.716 315.228 285.816 315.561 285.816 315.934ZM276.586 313.23C276.534 313.256 276.465 313.269 276.378 313.269C276.291 313.26 276.222 313.208 276.17 313.113L275.78 312.476C275.737 312.407 275.724 312.333 275.741 312.255C275.767 312.177 275.823 312.121 275.91 312.086C276.395 311.869 276.855 311.618 277.288 311.332C277.721 311.037 278.111 310.725 278.458 310.396C278.813 310.067 279.121 309.724 279.381 309.369C279.641 309.014 279.84 308.658 279.979 308.303C280.014 308.225 280.027 308.156 280.018 308.095C280.018 308.034 279.949 308.004 279.81 308.004H276.586C276.534 308.004 276.491 307.982 276.456 307.939C276.421 307.896 276.404 307.848 276.404 307.796V306.938C276.404 306.886 276.421 306.843 276.456 306.808C276.499 306.773 276.547 306.756 276.599 306.756H280.707C281.088 306.756 281.37 306.825 281.552 306.964C281.743 307.103 281.816 307.315 281.773 307.601C281.756 307.696 281.73 307.796 281.695 307.9C281.669 308.004 281.643 308.095 281.617 308.173C281.504 308.485 281.366 308.793 281.201 309.096C281.045 309.391 280.867 309.681 280.668 309.967C280.824 310.123 280.997 310.279 281.188 310.435C281.379 310.591 281.574 310.743 281.773 310.89C281.972 311.029 282.172 311.159 282.371 311.28C282.57 311.393 282.757 311.488 282.93 311.566C283.103 311.653 283.142 311.774 283.047 311.93L282.644 312.632C282.549 312.779 282.414 312.81 282.241 312.723C282.076 312.645 281.894 312.541 281.695 312.411C281.496 312.281 281.288 312.138 281.071 311.982C280.863 311.826 280.651 311.661 280.434 311.488C280.226 311.306 280.031 311.12 279.849 310.929C279.398 311.38 278.9 311.8 278.354 312.19C277.808 312.58 277.219 312.927 276.586 313.23ZM282.007 310.045V309.135C282.007 309.092 282.024 309.057 282.059 309.031C282.102 308.996 282.146 308.979 282.189 308.979H284.23V306.223C284.23 306.11 284.286 306.054 284.399 306.054H285.556C285.669 306.054 285.725 306.11 285.725 306.223V313.126C285.725 313.247 285.669 313.308 285.556 313.308H284.399C284.286 313.308 284.23 313.247 284.23 313.126V310.201H282.189C282.146 310.201 282.102 310.188 282.059 310.162C282.024 310.127 282.007 310.088 282.007 310.045ZM284.269 315.973C284.269 315.756 284.204 315.57 284.074 315.414C283.953 315.249 283.784 315.115 283.567 315.011C283.35 314.898 283.099 314.816 282.813 314.764C282.536 314.703 282.237 314.673 281.916 314.673C281.223 314.673 280.659 314.781 280.226 314.998C279.801 315.215 279.589 315.54 279.589 315.973C279.589 316.181 279.645 316.363 279.758 316.519C279.879 316.666 280.04 316.792 280.239 316.896C280.447 317 280.694 317.078 280.98 317.13C281.266 317.182 281.578 317.208 281.916 317.208C282.237 317.208 282.536 317.182 282.813 317.13C283.099 317.078 283.35 317 283.567 316.896C283.784 316.792 283.953 316.666 284.074 316.519C284.204 316.363 284.269 316.181 284.269 315.973ZM297.405 310.448C297.405 310.517 297.387 310.569 297.353 310.604C297.327 310.63 297.292 310.643 297.249 310.643H294.064V311.995H298.965C299.008 311.995 299.051 312.017 299.095 312.06C299.138 312.103 299.16 312.147 299.16 312.19V313.048C299.16 313.091 299.138 313.135 299.095 313.178C299.051 313.221 299.008 313.243 298.965 313.243H287.655C287.603 313.243 287.559 313.226 287.525 313.191C287.49 313.148 287.473 313.1 287.473 313.048V312.19C287.473 312.138 287.49 312.095 287.525 312.06C287.559 312.017 287.603 311.995 287.655 311.995H292.569V310.643H290.294C289.947 310.643 289.704 310.565 289.566 310.409C289.427 310.253 289.358 310.023 289.358 309.72V307.172C289.358 306.843 289.431 306.622 289.579 306.509C289.726 306.388 289.964 306.327 290.294 306.327H297.132C297.253 306.327 297.314 306.383 297.314 306.496V307.38C297.314 307.501 297.253 307.562 297.132 307.562H291.113C290.948 307.562 290.866 307.636 290.866 307.783V309.187C290.866 309.256 290.883 309.313 290.918 309.356C290.952 309.399 291.017 309.421 291.113 309.421H297.197C297.266 309.421 297.318 309.43 297.353 309.447C297.387 309.464 297.405 309.508 297.405 309.577V310.448ZM297.301 318.222C297.301 318.265 297.279 318.304 297.236 318.339C297.201 318.382 297.162 318.404 297.119 318.404H296.001C295.949 318.404 295.901 318.382 295.858 318.339C295.823 318.304 295.806 318.265 295.806 318.222V315.648C295.806 315.561 295.788 315.505 295.754 315.479C295.719 315.453 295.654 315.44 295.559 315.44H289.254C289.21 315.44 289.167 315.423 289.124 315.388C289.089 315.353 289.072 315.314 289.072 315.271V314.348C289.072 314.296 289.089 314.257 289.124 314.231C289.167 314.205 289.21 314.192 289.254 314.192H296.443C296.772 314.192 296.997 314.261 297.119 314.4C297.24 314.53 297.301 314.76 297.301 315.089V318.222ZM310.384 318.183C310.384 318.226 310.363 318.265 310.319 318.3C310.285 318.343 310.25 318.365 310.215 318.365H303.312C302.974 318.365 302.745 318.3 302.623 318.17C302.502 318.04 302.441 317.836 302.441 317.559V315.973C302.441 315.696 302.498 315.496 302.61 315.375C302.732 315.245 302.961 315.18 303.299 315.18H308.434C308.504 315.18 308.547 315.171 308.564 315.154C308.582 315.128 308.59 315.076 308.59 314.998V314.517C308.59 314.422 308.582 314.365 308.564 314.348C308.547 314.331 308.499 314.322 308.421 314.322H302.597C302.554 314.322 302.511 314.309 302.467 314.283C302.433 314.248 302.415 314.209 302.415 314.166V313.308C302.415 313.265 302.433 313.226 302.467 313.191C302.511 313.148 302.554 313.126 302.597 313.126H309.162C309.518 313.126 309.752 313.187 309.864 313.308C309.986 313.429 310.046 313.637 310.046 313.932V315.505C310.046 315.808 309.986 316.016 309.864 316.129C309.752 316.242 309.518 316.298 309.162 316.298H304.066C303.997 316.298 303.954 316.311 303.936 316.337C303.919 316.354 303.91 316.398 303.91 316.467V317.013C303.91 317.091 303.919 317.134 303.936 317.143C303.954 317.16 304.001 317.169 304.079 317.169H310.202C310.246 317.169 310.285 317.186 310.319 317.221C310.363 317.256 310.384 317.299 310.384 317.351V318.183ZM301.024 312.463C300.834 312.576 300.695 312.571 300.608 312.45L300.088 311.813C300.036 311.744 300.01 311.679 300.01 311.618C300.019 311.549 300.067 311.492 300.153 311.449C301.185 310.886 301.934 310.205 302.402 309.408C302.87 308.602 303.104 307.605 303.104 306.418C303.104 306.357 303.126 306.31 303.169 306.275C303.221 306.24 303.269 306.223 303.312 306.223L304.43 306.275C304.543 306.275 304.599 306.34 304.599 306.47C304.599 306.834 304.578 307.181 304.534 307.51C304.491 307.831 304.43 308.143 304.352 308.446C304.5 308.732 304.682 309.005 304.898 309.265C305.115 309.525 305.345 309.763 305.587 309.98C305.83 310.197 306.077 310.387 306.328 310.552C306.588 310.708 306.835 310.838 307.069 310.942C307.217 311.003 307.243 311.111 307.147 311.267L306.705 311.969C306.619 312.099 306.506 312.134 306.367 312.073C305.847 311.848 305.362 311.549 304.911 311.176C304.469 310.803 304.084 310.383 303.754 309.915C303.451 310.461 303.065 310.946 302.597 311.371C302.138 311.787 301.614 312.151 301.024 312.463ZM310.046 312.359C310.046 312.472 309.99 312.528 309.877 312.528H308.72C308.608 312.528 308.551 312.467 308.551 312.346V306.223C308.551 306.11 308.608 306.054 308.72 306.054H309.877C309.99 306.054 310.046 306.11 310.046 306.223V312.359Z" fill="black"/>
<path d="M284.18 271.76C284.18 271.793 284.163 271.827 284.13 271.86C284.097 271.893 284.063 271.91 284.03 271.91H275.33C275.29 271.91 275.257 271.893 275.23 271.86C275.203 271.827 275.19 271.793 275.19 271.76V271.17C275.19 271.13 275.203 271.093 275.23 271.06C275.257 271.027 275.29 271.01 275.33 271.01H279.09V270.53C278.383 270.463 277.86 270.307 277.52 270.06C277.18 269.813 277.01 269.537 277.01 269.23C277.01 269.057 277.063 268.89 277.17 268.73C277.283 268.57 277.45 268.43 277.67 268.31C277.89 268.183 278.167 268.083 278.5 268.01C278.833 267.937 279.227 267.9 279.68 267.9C280.133 267.9 280.527 267.937 280.86 268.01C281.2 268.083 281.48 268.183 281.7 268.31C281.92 268.43 282.083 268.57 282.19 268.73C282.303 268.89 282.36 269.057 282.36 269.23C282.36 269.543 282.187 269.823 281.84 270.07C281.493 270.31 280.96 270.463 280.24 270.53V271.01H283.99C284.023 271.01 284.063 271.03 284.11 271.07C284.157 271.103 284.18 271.137 284.18 271.17V271.76ZM282.76 274.27C282.76 274.523 282.697 274.703 282.57 274.81C282.443 274.917 282.253 274.97 282 274.97H277.36C277.06 274.97 276.857 274.917 276.75 274.81C276.65 274.71 276.6 274.53 276.6 274.27V273.1C276.6 272.847 276.663 272.667 276.79 272.56C276.917 272.447 277.107 272.39 277.36 272.39H282C282.3 272.39 282.5 272.443 282.6 272.55C282.707 272.65 282.76 272.833 282.76 273.1V274.27ZM283.29 267.47C283.29 267.51 283.273 267.547 283.24 267.58C283.213 267.607 283.18 267.62 283.14 267.62H276.23C276.197 267.62 276.163 267.603 276.13 267.57C276.097 267.537 276.08 267.497 276.08 267.45V266.92C276.08 266.887 276.097 266.853 276.13 266.82C276.17 266.787 276.207 266.77 276.24 266.77H283.14C283.18 266.77 283.213 266.787 283.24 266.82C283.273 266.847 283.29 266.88 283.29 266.92V267.47ZM281.63 273.42C281.63 273.32 281.587 273.27 281.5 273.27H277.86C277.807 273.27 277.77 273.283 277.75 273.31C277.737 273.33 277.73 273.367 277.73 273.42V273.96C277.73 274.02 277.737 274.057 277.75 274.07C277.77 274.09 277.807 274.1 277.86 274.1H281.5C281.553 274.1 281.587 274.09 281.6 274.07C281.62 274.057 281.63 274.02 281.63 273.96V273.42ZM279.68 268.67C279.173 268.67 278.783 268.723 278.51 268.83C278.243 268.937 278.11 269.07 278.11 269.23C278.11 269.383 278.243 269.513 278.51 269.62C278.783 269.727 279.173 269.78 279.68 269.78C280.193 269.78 280.583 269.727 280.85 269.62C281.123 269.513 281.26 269.383 281.26 269.23C281.26 269.07 281.123 268.937 280.85 268.83C280.583 268.723 280.193 268.67 279.68 268.67ZM281.3 266.27C281.3 266.31 281.283 266.347 281.25 266.38C281.223 266.413 281.187 266.43 281.14 266.43H278.23C278.203 266.43 278.17 266.417 278.13 266.39C278.097 266.363 278.08 266.327 278.08 266.28V265.71C278.08 265.663 278.097 265.627 278.13 265.6C278.17 265.573 278.203 265.56 278.23 265.56H281.14C281.18 265.56 281.217 265.577 281.25 265.61C281.283 265.643 281.3 265.68 281.3 265.72V266.27ZM289.014 271.65C289.014 271.87 288.961 272.037 288.854 272.15C288.748 272.263 288.548 272.32 288.254 272.32H285.824C285.524 272.32 285.321 272.27 285.214 272.17C285.108 272.07 285.054 271.887 285.054 271.62V266.32C285.054 266.287 285.068 266.26 285.094 266.24C285.121 266.213 285.151 266.2 285.184 266.2H286.024C286.058 266.2 286.088 266.213 286.114 266.24C286.148 266.26 286.164 266.287 286.164 266.32V268.49H287.904V266.31C287.904 266.277 287.918 266.247 287.944 266.22C287.971 266.193 288.001 266.18 288.034 266.18H288.884C288.918 266.18 288.948 266.193 288.974 266.22C289.001 266.247 289.014 266.277 289.014 266.31V268.88H290.044V265.87C290.044 265.783 290.091 265.74 290.184 265.74H291.004C291.091 265.74 291.134 265.783 291.134 265.87V274.61C291.134 274.703 291.091 274.75 291.004 274.75H290.184C290.091 274.75 290.044 274.703 290.044 274.61V269.84H289.014V271.65ZM293.074 274.96C293.074 275.047 293.031 275.09 292.944 275.09H292.074C291.988 275.09 291.944 275.047 291.944 274.96V265.71C291.944 265.623 291.991 265.58 292.084 265.58H292.944C293.031 265.58 293.074 265.623 293.074 265.71V274.96ZM287.904 269.4H286.164V271.23C286.164 271.343 286.228 271.4 286.354 271.4H287.714C287.841 271.4 287.904 271.343 287.904 271.23V269.4ZM302.049 274.94C302.049 275.027 302.005 275.07 301.919 275.07H301.029C300.942 275.07 300.899 275.027 300.899 274.94V265.71C300.899 265.623 300.942 265.58 301.029 265.58H301.919C302.005 265.58 302.049 265.623 302.049 265.71V274.94ZM298.439 269.47C298.439 269.163 298.409 268.873 298.349 268.6C298.289 268.32 298.202 268.077 298.089 267.87C297.975 267.663 297.835 267.5 297.669 267.38C297.509 267.26 297.322 267.2 297.109 267.2C296.895 267.2 296.705 267.26 296.539 267.38C296.379 267.5 296.242 267.663 296.129 267.87C296.015 268.077 295.929 268.32 295.869 268.6C295.809 268.873 295.779 269.163 295.779 269.47C295.779 269.77 295.809 270.06 295.869 270.34C295.929 270.613 296.015 270.857 296.129 271.07C296.242 271.277 296.379 271.443 296.539 271.57C296.705 271.69 296.895 271.75 297.109 271.75C297.322 271.75 297.509 271.69 297.669 271.57C297.835 271.443 297.975 271.277 298.089 271.07C298.202 270.857 298.289 270.613 298.349 270.34C298.409 270.06 298.439 269.77 298.439 269.47ZM297.109 272.77C296.729 272.77 296.385 272.69 296.079 272.53C295.772 272.37 295.512 272.147 295.299 271.86C295.092 271.567 294.932 271.217 294.819 270.81C294.705 270.403 294.649 269.957 294.649 269.47C294.649 268.97 294.705 268.517 294.819 268.11C294.932 267.703 295.092 267.36 295.299 267.08C295.512 266.793 295.772 266.573 296.079 266.42C296.385 266.26 296.729 266.18 297.109 266.18C297.495 266.18 297.839 266.26 298.139 266.42C298.445 266.573 298.702 266.793 298.909 267.08C299.122 267.36 299.285 267.703 299.399 268.11C299.512 268.517 299.569 268.97 299.569 269.47C299.569 269.97 299.512 270.423 299.399 270.83C299.285 271.237 299.122 271.583 298.909 271.87C298.702 272.157 298.445 272.38 298.139 272.54C297.839 272.693 297.495 272.77 297.109 272.77ZM304.623 270.74C304.59 270.753 304.55 270.757 304.503 270.75C304.463 270.737 304.426 270.703 304.393 270.65L304.033 270.03C304.006 269.977 304.003 269.93 304.023 269.89C304.05 269.843 304.086 269.813 304.133 269.8C304.633 269.613 305.07 269.413 305.443 269.2C305.823 268.98 306.143 268.73 306.403 268.45C306.67 268.17 306.876 267.85 307.023 267.49C307.176 267.13 307.276 266.713 307.323 266.24C307.33 266.193 307.343 266.147 307.363 266.1C307.39 266.053 307.43 266.033 307.483 266.04L308.353 266.08C308.466 266.087 308.52 266.16 308.513 266.3C308.506 266.473 308.486 266.637 308.453 266.79C308.533 267.11 308.673 267.417 308.873 267.71C309.073 268.003 309.316 268.273 309.603 268.52C309.896 268.76 310.22 268.973 310.573 269.16C310.926 269.347 311.293 269.493 311.673 269.6C311.72 269.613 311.746 269.643 311.753 269.69C311.766 269.73 311.766 269.767 311.753 269.8L311.413 270.44C311.36 270.54 311.28 270.577 311.173 270.55C310.866 270.47 310.556 270.357 310.243 270.21C309.936 270.063 309.64 269.893 309.353 269.7C309.066 269.5 308.803 269.28 308.563 269.04C308.323 268.793 308.12 268.53 307.953 268.25C307.62 268.837 307.166 269.337 306.593 269.75C306.026 270.163 305.37 270.493 304.623 270.74ZM312.253 272.42C312.286 272.42 312.32 272.437 312.353 272.47C312.386 272.503 312.403 272.54 312.403 272.58V273.23C312.403 273.263 312.386 273.297 312.353 273.33C312.32 273.363 312.286 273.38 312.253 273.38H303.543C303.503 273.38 303.47 273.363 303.443 273.33C303.416 273.297 303.403 273.263 303.403 273.23V272.58C303.403 272.473 303.45 272.42 303.543 272.42H312.253Z" fill="black"/>
<path d="M484.69 620.265C484.31 620.575 483.85 620.805 483.31 620.955C482.78 621.095 482.225 621.165 481.645 621.165C481.215 621.165 480.78 621.125 480.34 621.045C479.91 620.975 479.51 620.875 479.14 620.745C479.04 620.715 478.97 620.68 478.93 620.64C478.89 620.59 478.875 620.52 478.885 620.43L479.02 619.305C479.03 619.215 479.06 619.155 479.11 619.125C479.16 619.095 479.255 619.105 479.395 619.155C479.655 619.235 479.915 619.315 480.175 619.395C480.435 619.465 480.7 619.51 480.97 619.53C481.18 619.55 481.395 619.565 481.615 619.575C481.835 619.585 482.05 619.58 482.26 619.56C482.48 619.53 482.685 619.485 482.875 619.425C483.075 619.355 483.26 619.26 483.43 619.14C483.91 618.81 484.15 618.31 484.15 617.64C484.15 617.41 484.095 617.19 483.985 616.98C483.885 616.76 483.725 616.57 483.505 616.41C483.285 616.24 483 616.11 482.65 616.02C482.31 615.92 481.9 615.87 481.42 615.87H480.67C480.59 615.87 480.535 615.86 480.505 615.84C480.485 615.81 480.475 615.755 480.475 615.675V614.565C480.475 614.475 480.485 614.42 480.505 614.4C480.535 614.38 480.59 614.37 480.67 614.37H481.39C481.61 614.37 481.875 614.34 482.185 614.28C482.495 614.21 482.795 614.1 483.085 613.95C483.375 613.8 483.62 613.61 483.82 613.38C484.03 613.15 484.135 612.87 484.135 612.54C484.135 612.28 484.07 612.055 483.94 611.865C483.81 611.675 483.64 611.52 483.43 611.4C483.23 611.28 483.01 611.195 482.77 611.145C482.53 611.085 482.305 611.055 482.095 611.055C481.955 611.055 481.79 611.07 481.6 611.1C481.42 611.13 481.23 611.17 481.03 611.22C480.84 611.26 480.645 611.31 480.445 611.37C480.245 611.43 480.065 611.49 479.905 611.55C479.785 611.6 479.7 611.615 479.65 611.595C479.6 611.565 479.565 611.505 479.545 611.415L479.41 610.32C479.39 610.26 479.395 610.205 479.425 610.155C479.455 610.105 479.525 610.06 479.635 610.02C480.075 609.86 480.505 609.735 480.925 609.645C481.345 609.555 481.765 609.51 482.185 609.51C482.635 609.51 483.075 609.565 483.505 609.675C483.945 609.785 484.33 609.955 484.66 610.185C485 610.415 485.275 610.715 485.485 611.085C485.695 611.455 485.8 611.895 485.8 612.405C485.8 612.675 485.75 612.945 485.65 613.215C485.56 613.485 485.43 613.74 485.26 613.98C485.09 614.22 484.885 614.435 484.645 614.625C484.405 614.815 484.145 614.97 483.865 615.09C484.525 615.38 485.025 615.75 485.365 616.2C485.705 616.64 485.875 617.135 485.875 617.685C485.875 618.215 485.77 618.7 485.56 619.14C485.36 619.58 485.07 619.955 484.69 620.265ZM488.087 615.915C488.037 615.915 487.992 615.9 487.952 615.87C487.912 615.83 487.892 615.785 487.892 615.735V614.535C487.892 614.485 487.912 614.445 487.952 614.415C487.992 614.375 488.037 614.355 488.087 614.355H491.717C491.777 614.355 491.822 614.375 491.852 614.415C491.892 614.445 491.912 614.485 491.912 614.535V615.735C491.912 615.785 491.892 615.83 491.852 615.87C491.822 615.9 491.777 615.915 491.717 615.915H488.087ZM499.236 620.265C498.856 620.575 498.396 620.805 497.856 620.955C497.326 621.095 496.771 621.165 496.191 621.165C495.761 621.165 495.326 621.125 494.886 621.045C494.456 620.975 494.056 620.875 493.686 620.745C493.586 620.715 493.516 620.68 493.476 620.64C493.436 620.59 493.421 620.52 493.431 620.43L493.566 619.305C493.576 619.215 493.606 619.155 493.656 619.125C493.706 619.095 493.801 619.105 493.941 619.155C494.201 619.235 494.461 619.315 494.721 619.395C494.981 619.465 495.246 619.51 495.516 619.53C495.726 619.55 495.941 619.565 496.161 619.575C496.381 619.585 496.596 619.58 496.806 619.56C497.026 619.53 497.231 619.485 497.421 619.425C497.621 619.355 497.806 619.26 497.976 619.14C498.456 618.81 498.696 618.31 498.696 617.64C498.696 617.41 498.641 617.19 498.531 616.98C498.431 616.76 498.271 616.57 498.051 616.41C497.831 616.24 497.546 616.11 497.196 616.02C496.856 615.92 496.446 615.87 495.966 615.87H495.216C495.136 615.87 495.081 615.86 495.051 615.84C495.031 615.81 495.021 615.755 495.021 615.675V614.565C495.021 614.475 495.031 614.42 495.051 614.4C495.081 614.38 495.136 614.37 495.216 614.37H495.936C496.156 614.37 496.421 614.34 496.731 614.28C497.041 614.21 497.341 614.1 497.631 613.95C497.921 613.8 498.166 613.61 498.366 613.38C498.576 613.15 498.681 612.87 498.681 612.54C498.681 612.28 498.616 612.055 498.486 611.865C498.356 611.675 498.186 611.52 497.976 611.4C497.776 611.28 497.556 611.195 497.316 611.145C497.076 611.085 496.851 611.055 496.641 611.055C496.501 611.055 496.336 611.07 496.146 611.1C495.966 611.13 495.776 611.17 495.576 611.22C495.386 611.26 495.191 611.31 494.991 611.37C494.791 611.43 494.611 611.49 494.451 611.55C494.331 611.6 494.246 611.615 494.196 611.595C494.146 611.565 494.111 611.505 494.091 611.415L493.956 610.32C493.936 610.26 493.941 610.205 493.971 610.155C494.001 610.105 494.071 610.06 494.181 610.02C494.621 609.86 495.051 609.735 495.471 609.645C495.891 609.555 496.311 609.51 496.731 609.51C497.181 609.51 497.621 609.565 498.051 609.675C498.491 609.785 498.876 609.955 499.206 610.185C499.546 610.415 499.821 610.715 500.031 611.085C500.241 611.455 500.346 611.895 500.346 612.405C500.346 612.675 500.296 612.945 500.196 613.215C500.106 613.485 499.976 613.74 499.806 613.98C499.636 614.22 499.431 614.435 499.191 614.625C498.951 614.815 498.691 614.97 498.411 615.09C499.071 615.38 499.571 615.75 499.911 616.2C500.251 616.64 500.421 617.135 500.421 617.685C500.421 618.215 500.316 618.7 500.106 619.14C499.906 619.58 499.616 619.955 499.236 620.265Z" fill="black"/>
<path d="M558.69 620.265C558.31 620.575 557.85 620.805 557.31 620.955C556.78 621.095 556.225 621.165 555.645 621.165C555.215 621.165 554.78 621.125 554.34 621.045C553.91 620.975 553.51 620.875 553.14 620.745C553.04 620.715 552.97 620.68 552.93 620.64C552.89 620.59 552.875 620.52 552.885 620.43L553.02 619.305C553.03 619.215 553.06 619.155 553.11 619.125C553.16 619.095 553.255 619.105 553.395 619.155C553.655 619.235 553.915 619.315 554.175 619.395C554.435 619.465 554.7 619.51 554.97 619.53C555.18 619.55 555.395 619.565 555.615 619.575C555.835 619.585 556.05 619.58 556.26 619.56C556.48 619.53 556.685 619.485 556.875 619.425C557.075 619.355 557.26 619.26 557.43 619.14C557.91 618.81 558.15 618.31 558.15 617.64C558.15 617.41 558.095 617.19 557.985 616.98C557.885 616.76 557.725 616.57 557.505 616.41C557.285 616.24 557 616.11 556.65 616.02C556.31 615.92 555.9 615.87 555.42 615.87H554.67C554.59 615.87 554.535 615.86 554.505 615.84C554.485 615.81 554.475 615.755 554.475 615.675V614.565C554.475 614.475 554.485 614.42 554.505 614.4C554.535 614.38 554.59 614.37 554.67 614.37H555.39C555.61 614.37 555.875 614.34 556.185 614.28C556.495 614.21 556.795 614.1 557.085 613.95C557.375 613.8 557.62 613.61 557.82 613.38C558.03 613.15 558.135 612.87 558.135 612.54C558.135 612.28 558.07 612.055 557.94 611.865C557.81 611.675 557.64 611.52 557.43 611.4C557.23 611.28 557.01 611.195 556.77 611.145C556.53 611.085 556.305 611.055 556.095 611.055C555.955 611.055 555.79 611.07 555.6 611.1C555.42 611.13 555.23 611.17 555.03 611.22C554.84 611.26 554.645 611.31 554.445 611.37C554.245 611.43 554.065 611.49 553.905 611.55C553.785 611.6 553.7 611.615 553.65 611.595C553.6 611.565 553.565 611.505 553.545 611.415L553.41 610.32C553.39 610.26 553.395 610.205 553.425 610.155C553.455 610.105 553.525 610.06 553.635 610.02C554.075 609.86 554.505 609.735 554.925 609.645C555.345 609.555 555.765 609.51 556.185 609.51C556.635 609.51 557.075 609.565 557.505 609.675C557.945 609.785 558.33 609.955 558.66 610.185C559 610.415 559.275 610.715 559.485 611.085C559.695 611.455 559.8 611.895 559.8 612.405C559.8 612.675 559.75 612.945 559.65 613.215C559.56 613.485 559.43 613.74 559.26 613.98C559.09 614.22 558.885 614.435 558.645 614.625C558.405 614.815 558.145 614.97 557.865 615.09C558.525 615.38 559.025 615.75 559.365 616.2C559.705 616.64 559.875 617.135 559.875 617.685C559.875 618.215 559.77 618.7 559.56 619.14C559.36 619.58 559.07 619.955 558.69 620.265ZM562.087 615.915C562.037 615.915 561.992 615.9 561.952 615.87C561.912 615.83 561.892 615.785 561.892 615.735V614.535C561.892 614.485 561.912 614.445 561.952 614.415C561.992 614.375 562.037 614.355 562.087 614.355H565.717C565.777 614.355 565.822 614.375 565.852 614.415C565.892 614.445 565.912 614.485 565.912 614.535V615.735C565.912 615.785 565.892 615.83 565.852 615.87C565.822 615.9 565.777 615.915 565.717 615.915H562.087ZM567.686 621.06C567.496 621.06 567.401 620.995 567.401 620.865V620.01C567.401 619.93 567.421 619.85 567.461 619.77C567.511 619.69 567.566 619.61 567.626 619.53L569.906 616.83C570.736 615.84 571.351 615.015 571.751 614.355C572.151 613.695 572.351 613.155 572.351 612.735C572.351 612.255 572.201 611.86 571.901 611.55C571.611 611.24 571.251 611.085 570.821 611.085C570.411 611.085 570.011 611.145 569.621 611.265C569.241 611.375 568.826 611.56 568.376 611.82C568.296 611.87 568.216 611.895 568.136 611.895C568.056 611.885 568.006 611.835 567.986 611.745L567.776 610.605C567.756 610.555 567.761 610.505 567.791 610.455C567.821 610.405 567.886 610.35 567.986 610.29C568.366 610.09 568.801 609.91 569.291 609.75C569.781 609.59 570.261 609.51 570.731 609.51C571.211 609.51 571.651 609.58 572.051 609.72C572.461 609.85 572.811 610.05 573.101 610.32C573.401 610.58 573.636 610.91 573.806 611.31C573.976 611.71 574.061 612.17 574.061 612.69C574.061 613.14 573.961 613.6 573.761 614.07C573.561 614.53 573.311 614.985 573.011 615.435C572.711 615.875 572.391 616.3 572.051 616.71C571.711 617.11 571.401 617.475 571.121 617.805C570.901 618.075 570.666 618.36 570.416 618.66C570.176 618.95 569.931 619.235 569.681 619.515H574.076C574.216 619.515 574.286 619.595 574.286 619.755V620.805C574.286 620.975 574.216 621.06 574.076 621.06H567.686Z" fill="black"/>
<path d="M632.69 620.265C632.31 620.575 631.85 620.805 631.31 620.955C630.78 621.095 630.225 621.165 629.645 621.165C629.215 621.165 628.78 621.125 628.34 621.045C627.91 620.975 627.51 620.875 627.14 620.745C627.04 620.715 626.97 620.68 626.93 620.64C626.89 620.59 626.875 620.52 626.885 620.43L627.02 619.305C627.03 619.215 627.06 619.155 627.11 619.125C627.16 619.095 627.255 619.105 627.395 619.155C627.655 619.235 627.915 619.315 628.175 619.395C628.435 619.465 628.7 619.51 628.97 619.53C629.18 619.55 629.395 619.565 629.615 619.575C629.835 619.585 630.05 619.58 630.26 619.56C630.48 619.53 630.685 619.485 630.875 619.425C631.075 619.355 631.26 619.26 631.43 619.14C631.91 618.81 632.15 618.31 632.15 617.64C632.15 617.41 632.095 617.19 631.985 616.98C631.885 616.76 631.725 616.57 631.505 616.41C631.285 616.24 631 616.11 630.65 616.02C630.31 615.92 629.9 615.87 629.42 615.87H628.67C628.59 615.87 628.535 615.86 628.505 615.84C628.485 615.81 628.475 615.755 628.475 615.675V614.565C628.475 614.475 628.485 614.42 628.505 614.4C628.535 614.38 628.59 614.37 628.67 614.37H629.39C629.61 614.37 629.875 614.34 630.185 614.28C630.495 614.21 630.795 614.1 631.085 613.95C631.375 613.8 631.62 613.61 631.82 613.38C632.03 613.15 632.135 612.87 632.135 612.54C632.135 612.28 632.07 612.055 631.94 611.865C631.81 611.675 631.64 611.52 631.43 611.4C631.23 611.28 631.01 611.195 630.77 611.145C630.53 611.085 630.305 611.055 630.095 611.055C629.955 611.055 629.79 611.07 629.6 611.1C629.42 611.13 629.23 611.17 629.03 611.22C628.84 611.26 628.645 611.31 628.445 611.37C628.245 611.43 628.065 611.49 627.905 611.55C627.785 611.6 627.7 611.615 627.65 611.595C627.6 611.565 627.565 611.505 627.545 611.415L627.41 610.32C627.39 610.26 627.395 610.205 627.425 610.155C627.455 610.105 627.525 610.06 627.635 610.02C628.075 609.86 628.505 609.735 628.925 609.645C629.345 609.555 629.765 609.51 630.185 609.51C630.635 609.51 631.075 609.565 631.505 609.675C631.945 609.785 632.33 609.955 632.66 610.185C633 610.415 633.275 610.715 633.485 611.085C633.695 611.455 633.8 611.895 633.8 612.405C633.8 612.675 633.75 612.945 633.65 613.215C633.56 613.485 633.43 613.74 633.26 613.98C633.09 614.22 632.885 614.435 632.645 614.625C632.405 614.815 632.145 614.97 631.865 615.09C632.525 615.38 633.025 615.75 633.365 616.2C633.705 616.64 633.875 617.135 633.875 617.685C633.875 618.215 633.77 618.7 633.56 619.14C633.36 619.58 633.07 619.955 632.69 620.265ZM636.087 615.915C636.037 615.915 635.992 615.9 635.952 615.87C635.912 615.83 635.892 615.785 635.892 615.735V614.535C635.892 614.485 635.912 614.445 635.952 614.415C635.992 614.375 636.037 614.355 636.087 614.355H639.717C639.777 614.355 639.822 614.375 639.852 614.415C639.892 614.445 639.912 614.485 639.912 614.535V615.735C639.912 615.785 639.892 615.83 639.852 615.87C639.822 615.9 639.777 615.915 639.717 615.915H636.087ZM644.836 621.045C644.696 621.045 644.626 620.98 644.626 620.85V611.97L643.516 612.93C643.466 612.97 643.406 612.995 643.336 613.005C643.276 613.015 643.226 613 643.186 612.96L642.511 612.15C642.481 612.11 642.466 612.065 642.466 612.015C642.476 611.955 642.506 611.9 642.556 611.85L644.851 609.735C644.871 609.715 644.906 609.695 644.956 609.675C645.006 609.655 645.046 609.645 645.076 609.645H645.871C646.041 609.645 646.141 609.665 646.171 609.705C646.211 609.735 646.231 609.85 646.231 610.05V620.85C646.231 620.98 646.166 621.045 646.036 621.045H644.836Z" fill="black"/>
<path d="M409.69 620.265C409.31 620.575 408.85 620.805 408.31 620.955C407.78 621.095 407.225 621.165 406.645 621.165C406.215 621.165 405.78 621.125 405.34 621.045C404.91 620.975 404.51 620.875 404.14 620.745C404.04 620.715 403.97 620.68 403.93 620.64C403.89 620.59 403.875 620.52 403.885 620.43L404.02 619.305C404.03 619.215 404.06 619.155 404.11 619.125C404.16 619.095 404.255 619.105 404.395 619.155C404.655 619.235 404.915 619.315 405.175 619.395C405.435 619.465 405.7 619.51 405.97 619.53C406.18 619.55 406.395 619.565 406.615 619.575C406.835 619.585 407.05 619.58 407.26 619.56C407.48 619.53 407.685 619.485 407.875 619.425C408.075 619.355 408.26 619.26 408.43 619.14C408.91 618.81 409.15 618.31 409.15 617.64C409.15 617.41 409.095 617.19 408.985 616.98C408.885 616.76 408.725 616.57 408.505 616.41C408.285 616.24 408 616.11 407.65 616.02C407.31 615.92 406.9 615.87 406.42 615.87H405.67C405.59 615.87 405.535 615.86 405.505 615.84C405.485 615.81 405.475 615.755 405.475 615.675V614.565C405.475 614.475 405.485 614.42 405.505 614.4C405.535 614.38 405.59 614.37 405.67 614.37H406.39C406.61 614.37 406.875 614.34 407.185 614.28C407.495 614.21 407.795 614.1 408.085 613.95C408.375 613.8 408.62 613.61 408.82 613.38C409.03 613.15 409.135 612.87 409.135 612.54C409.135 612.28 409.07 612.055 408.94 611.865C408.81 611.675 408.64 611.52 408.43 611.4C408.23 611.28 408.01 611.195 407.77 611.145C407.53 611.085 407.305 611.055 407.095 611.055C406.955 611.055 406.79 611.07 406.6 611.1C406.42 611.13 406.23 611.17 406.03 611.22C405.84 611.26 405.645 611.31 405.445 611.37C405.245 611.43 405.065 611.49 404.905 611.55C404.785 611.6 404.7 611.615 404.65 611.595C404.6 611.565 404.565 611.505 404.545 611.415L404.41 610.32C404.39 610.26 404.395 610.205 404.425 610.155C404.455 610.105 404.525 610.06 404.635 610.02C405.075 609.86 405.505 609.735 405.925 609.645C406.345 609.555 406.765 609.51 407.185 609.51C407.635 609.51 408.075 609.565 408.505 609.675C408.945 609.785 409.33 609.955 409.66 610.185C410 610.415 410.275 610.715 410.485 611.085C410.695 611.455 410.8 611.895 410.8 612.405C410.8 612.675 410.75 612.945 410.65 613.215C410.56 613.485 410.43 613.74 410.26 613.98C410.09 614.22 409.885 614.435 409.645 614.625C409.405 614.815 409.145 614.97 408.865 615.09C409.525 615.38 410.025 615.75 410.365 616.2C410.705 616.64 410.875 617.135 410.875 617.685C410.875 618.215 410.77 618.7 410.56 619.14C410.36 619.58 410.07 619.955 409.69 620.265ZM413.087 615.915C413.037 615.915 412.992 615.9 412.952 615.87C412.912 615.83 412.892 615.785 412.892 615.735V614.535C412.892 614.485 412.912 614.445 412.952 614.415C412.992 614.375 413.037 614.355 413.087 614.355H416.717C416.777 614.355 416.822 614.375 416.852 614.415C416.892 614.445 416.912 614.485 416.912 614.535V615.735C416.912 615.785 416.892 615.83 416.852 615.87C416.822 615.9 416.777 615.915 416.717 615.915H413.087ZM424.596 618.495V620.775C424.596 620.885 424.581 620.96 424.551 621C424.521 621.03 424.451 621.045 424.341 621.045H423.261C423.151 621.045 423.076 621.025 423.036 620.985C423.006 620.945 422.991 620.875 422.991 620.775V618.495H418.191C418.091 618.495 418.026 618.485 417.996 618.465C417.966 618.445 417.951 618.395 417.951 618.315V617.205C417.951 617.135 417.971 617.065 418.011 616.995C418.051 616.925 418.091 616.865 418.131 616.815L422.766 609.84C422.826 609.76 422.866 609.71 422.886 609.69C422.916 609.66 422.981 609.645 423.081 609.645H424.446C424.526 609.645 424.571 609.66 424.581 609.69C424.591 609.72 424.596 609.78 424.596 609.87V616.95H425.991C426.081 616.95 426.141 616.965 426.171 616.995C426.201 617.015 426.216 617.075 426.216 617.175V618.27C426.216 618.37 426.201 618.435 426.171 618.465C426.141 618.485 426.081 618.495 425.991 618.495H424.596ZM419.766 616.95H422.991V612.06L419.766 616.95Z" fill="black"/>
<path d="M294.36 467.77C294.31 467.77 294.26 467.745 294.21 467.695C294.16 467.645 294.135 467.595 294.135 467.545V454.495C294.135 454.435 294.16 454.385 294.21 454.345C294.26 454.305 294.31 454.285 294.36 454.285H295.245C295.305 454.285 295.36 454.305 295.41 454.345C295.46 454.385 295.485 454.435 295.485 454.495V460.135H296.205C296.305 459.075 296.54 458.29 296.91 457.78C297.28 457.27 297.695 457.015 298.155 457.015C298.415 457.015 298.665 457.095 298.905 457.255C299.145 457.425 299.355 457.675 299.535 458.005C299.725 458.335 299.875 458.75 299.985 459.25C300.095 459.75 300.15 460.34 300.15 461.02C300.15 461.7 300.095 462.29 299.985 462.79C299.875 463.3 299.725 463.72 299.535 464.05C299.355 464.38 299.145 464.625 298.905 464.785C298.665 464.955 298.415 465.04 298.155 465.04C297.685 465.04 297.265 464.78 296.895 464.26C296.535 463.74 296.305 462.94 296.205 461.86H295.485V467.485C295.485 467.535 295.455 467.595 295.395 467.665C295.345 467.735 295.295 467.77 295.245 467.77H294.36ZM290.595 465.64C290.215 465.64 289.945 465.545 289.785 465.355C289.625 465.165 289.545 464.88 289.545 464.5V457.54C289.545 457.09 289.625 456.785 289.785 456.625C289.935 456.475 290.205 456.4 290.595 456.4H292.35C292.73 456.4 293 456.495 293.16 456.685C293.33 456.875 293.415 457.16 293.415 457.54V464.5C293.415 464.95 293.335 465.25 293.175 465.4C293.025 465.56 292.75 465.64 292.35 465.64H290.595ZM300.795 466.435C300.735 466.435 300.68 466.41 300.63 466.36C300.59 466.32 300.57 466.27 300.57 466.21V455.845C300.57 455.795 300.595 455.745 300.645 455.695C300.695 455.645 300.755 455.62 300.825 455.62H301.62C301.67 455.62 301.72 455.645 301.77 455.695C301.82 455.755 301.845 455.81 301.845 455.86V466.21C301.845 466.27 301.82 466.32 301.77 466.36C301.73 466.41 301.68 466.435 301.62 466.435H300.795ZM291.87 463.945C292.02 463.945 292.095 463.88 292.095 463.75V458.29C292.095 458.21 292.075 458.155 292.035 458.125C292.005 458.105 291.95 458.095 291.87 458.095H291.06C290.97 458.095 290.915 458.105 290.895 458.125C290.865 458.155 290.85 458.21 290.85 458.29V463.75C290.85 463.83 290.865 463.88 290.895 463.9C290.915 463.93 290.97 463.945 291.06 463.945H291.87ZM298.995 461.02C298.995 460.26 298.915 459.675 298.755 459.265C298.595 458.865 298.395 458.665 298.155 458.665C297.925 458.665 297.73 458.865 297.57 459.265C297.41 459.675 297.33 460.26 297.33 461.02C297.33 461.79 297.41 462.375 297.57 462.775C297.73 463.185 297.925 463.39 298.155 463.39C298.395 463.39 298.595 463.185 298.755 462.775C298.915 462.375 298.995 461.79 298.995 461.02ZM302.595 463.45C302.535 463.45 302.48 463.425 302.43 463.375C302.38 463.335 302.355 463.28 302.355 463.21V458.845C302.355 458.805 302.375 458.755 302.415 458.695C302.455 458.645 302.51 458.62 302.58 458.62H303.435C303.505 458.62 303.56 458.645 303.6 458.695C303.64 458.755 303.66 458.805 303.66 458.845V463.21C303.66 463.27 303.635 463.325 303.585 463.375C303.535 463.425 303.48 463.45 303.42 463.45H302.595ZM294.525 475.021C294.195 475.021 293.945 474.941 293.775 474.781C293.605 474.621 293.52 474.321 293.52 473.881V470.236C293.52 469.786 293.595 469.481 293.745 469.321C293.895 469.161 294.17 469.081 294.57 469.081H302.52C302.57 469.081 302.61 469.101 302.64 469.141C302.68 469.181 302.7 469.226 302.7 469.276V470.536C302.7 470.586 302.68 470.631 302.64 470.671C302.61 470.721 302.57 470.746 302.52 470.746H299.265V473.356H302.535C302.585 473.356 302.63 473.376 302.67 473.416C302.71 473.456 302.73 473.501 302.73 473.551V474.826C302.73 474.876 302.71 474.921 302.67 474.961C302.63 475.001 302.585 475.021 302.535 475.021H298.68V476.566H303.195C303.325 476.566 303.39 476.636 303.39 476.776V478.006C303.39 478.136 303.325 478.201 303.195 478.201H290.085C289.945 478.201 289.875 478.136 289.875 478.006V476.776C289.875 476.636 289.945 476.566 290.085 476.566H297.24V475.021H294.525ZM289.56 481.111C289.43 481.111 289.365 481.046 289.365 480.916V479.611C289.365 479.481 289.43 479.416 289.56 479.416H303.435C303.565 479.416 303.63 479.486 303.63 479.626V480.916C303.63 481.046 303.565 481.111 303.435 481.111H289.56ZM297.9 473.356V470.746H295.155C294.985 470.746 294.9 470.841 294.9 471.031V473.071C294.9 473.261 294.985 473.356 295.155 473.356H297.9ZM289.59 494.573C289.46 494.573 289.395 494.508 289.395 494.378V493.043C289.395 492.913 289.46 492.848 289.59 492.848H303.435C303.565 492.848 303.63 492.913 303.63 493.043V494.378C303.63 494.508 303.565 494.573 303.435 494.573H289.59ZM297.795 489.158C298.255 489.158 298.69 489.113 299.1 489.023C299.52 488.933 299.885 488.803 300.195 488.633C300.505 488.463 300.75 488.253 300.93 488.003C301.11 487.763 301.2 487.483 301.2 487.163C301.2 486.843 301.11 486.558 300.93 486.308C300.75 486.068 300.505 485.863 300.195 485.693C299.885 485.523 299.52 485.393 299.1 485.303C298.69 485.213 298.255 485.168 297.795 485.168C297.345 485.168 296.91 485.213 296.49 485.303C296.08 485.393 295.715 485.523 295.395 485.693C295.085 485.863 294.835 486.068 294.645 486.308C294.465 486.558 294.375 486.843 294.375 487.163C294.375 487.483 294.465 487.763 294.645 488.003C294.835 488.253 295.085 488.463 295.395 488.633C295.715 488.803 296.08 488.933 296.49 489.023C296.91 489.113 297.345 489.158 297.795 489.158ZM292.845 487.163C292.845 486.593 292.965 486.078 293.205 485.618C293.445 485.158 293.78 484.768 294.21 484.448C294.65 484.138 295.175 483.898 295.785 483.728C296.395 483.558 297.065 483.473 297.795 483.473C298.545 483.473 299.225 483.558 299.835 483.728C300.445 483.898 300.96 484.138 301.38 484.448C301.81 484.768 302.14 485.158 302.37 485.618C302.61 486.078 302.73 486.593 302.73 487.163C302.73 487.743 302.61 488.258 302.37 488.708C302.14 489.168 301.81 489.553 301.38 489.863C300.96 490.183 300.445 490.428 299.835 490.598C299.225 490.768 298.545 490.853 297.795 490.853C297.045 490.853 296.365 490.768 295.755 490.598C295.145 490.428 294.625 490.183 294.195 489.863C293.765 489.553 293.43 489.168 293.19 488.708C292.96 488.258 292.845 487.743 292.845 487.163ZM295.89 498.434C295.87 498.384 295.865 498.324 295.875 498.254C295.895 498.194 295.945 498.139 296.025 498.089L296.955 497.549C297.035 497.509 297.105 497.504 297.165 497.534C297.235 497.574 297.28 497.629 297.3 497.699C297.58 498.449 297.88 499.104 298.2 499.664C298.53 500.234 298.905 500.714 299.325 501.104C299.745 501.504 300.225 501.814 300.765 502.034C301.305 502.264 301.93 502.414 302.64 502.484C302.71 502.494 302.78 502.514 302.85 502.544C302.92 502.584 302.95 502.644 302.94 502.724L302.88 504.029C302.87 504.199 302.76 504.279 302.55 504.269C302.29 504.259 302.045 504.229 301.815 504.179C301.335 504.299 300.875 504.509 300.435 504.809C299.995 505.109 299.59 505.474 299.22 505.904C298.86 506.344 298.54 506.829 298.26 507.359C297.98 507.889 297.76 508.439 297.6 509.009C297.58 509.079 297.535 509.119 297.465 509.129C297.405 509.149 297.35 509.149 297.3 509.129L296.34 508.619C296.19 508.539 296.135 508.419 296.175 508.259C296.295 507.799 296.465 507.334 296.685 506.864C296.905 506.404 297.16 505.959 297.45 505.529C297.75 505.099 298.08 504.704 298.44 504.344C298.81 503.984 299.205 503.679 299.625 503.429C298.745 502.929 297.995 502.249 297.375 501.389C296.755 500.539 296.26 499.554 295.89 498.434ZM293.37 509.879C293.37 509.929 293.345 509.979 293.295 510.029C293.245 510.079 293.19 510.104 293.13 510.104H292.155C292.105 510.104 292.055 510.079 292.005 510.029C291.955 509.979 291.93 509.929 291.93 509.879V496.814C291.93 496.754 291.955 496.704 292.005 496.664C292.055 496.624 292.105 496.604 292.155 496.604H293.13C293.29 496.604 293.37 496.674 293.37 496.814V509.879Z" fill="black"/>
<path d="M294.36 467.77C294.31 467.77 294.26 467.745 294.21 467.695C294.16 467.645 294.135 467.595 294.135 467.545V454.495C294.135 454.435 294.16 454.385 294.21 454.345C294.26 454.305 294.31 454.285 294.36 454.285H295.245C295.305 454.285 295.36 454.305 295.41 454.345C295.46 454.385 295.485 454.435 295.485 454.495V460.135H296.205C296.305 459.075 296.54 458.29 296.91 457.78C297.28 457.27 297.695 457.015 298.155 457.015C298.415 457.015 298.665 457.095 298.905 457.255C299.145 457.425 299.355 457.675 299.535 458.005C299.725 458.335 299.875 458.75 299.985 459.25C300.095 459.75 300.15 460.34 300.15 461.02C300.15 461.7 300.095 462.29 299.985 462.79C299.875 463.3 299.725 463.72 299.535 464.05C299.355 464.38 299.145 464.625 298.905 464.785C298.665 464.955 298.415 465.04 298.155 465.04C297.685 465.04 297.265 464.78 296.895 464.26C296.535 463.74 296.305 462.94 296.205 461.86H295.485V467.485C295.485 467.535 295.455 467.595 295.395 467.665C295.345 467.735 295.295 467.77 295.245 467.77H294.36ZM290.595 465.64C290.215 465.64 289.945 465.545 289.785 465.355C289.625 465.165 289.545 464.88 289.545 464.5V457.54C289.545 457.09 289.625 456.785 289.785 456.625C289.935 456.475 290.205 456.4 290.595 456.4H292.35C292.73 456.4 293 456.495 293.16 456.685C293.33 456.875 293.415 457.16 293.415 457.54V464.5C293.415 464.95 293.335 465.25 293.175 465.4C293.025 465.56 292.75 465.64 292.35 465.64H290.595ZM300.795 466.435C300.735 466.435 300.68 466.41 300.63 466.36C300.59 466.32 300.57 466.27 300.57 466.21V455.845C300.57 455.795 300.595 455.745 300.645 455.695C300.695 455.645 300.755 455.62 300.825 455.62H301.62C301.67 455.62 301.72 455.645 301.77 455.695C301.82 455.755 301.845 455.81 301.845 455.86V466.21C301.845 466.27 301.82 466.32 301.77 466.36C301.73 466.41 301.68 466.435 301.62 466.435H300.795ZM291.87 463.945C292.02 463.945 292.095 463.88 292.095 463.75V458.29C292.095 458.21 292.075 458.155 292.035 458.125C292.005 458.105 291.95 458.095 291.87 458.095H291.06C290.97 458.095 290.915 458.105 290.895 458.125C290.865 458.155 290.85 458.21 290.85 458.29V463.75C290.85 463.83 290.865 463.88 290.895 463.9C290.915 463.93 290.97 463.945 291.06 463.945H291.87ZM298.995 461.02C298.995 460.26 298.915 459.675 298.755 459.265C298.595 458.865 298.395 458.665 298.155 458.665C297.925 458.665 297.73 458.865 297.57 459.265C297.41 459.675 297.33 460.26 297.33 461.02C297.33 461.79 297.41 462.375 297.57 462.775C297.73 463.185 297.925 463.39 298.155 463.39C298.395 463.39 298.595 463.185 298.755 462.775C298.915 462.375 298.995 461.79 298.995 461.02ZM302.595 463.45C302.535 463.45 302.48 463.425 302.43 463.375C302.38 463.335 302.355 463.28 302.355 463.21V458.845C302.355 458.805 302.375 458.755 302.415 458.695C302.455 458.645 302.51 458.62 302.58 458.62H303.435C303.505 458.62 303.56 458.645 303.6 458.695C303.64 458.755 303.66 458.805 303.66 458.845V463.21C303.66 463.27 303.635 463.325 303.585 463.375C303.535 463.425 303.48 463.45 303.42 463.45H302.595ZM294.525 475.021C294.195 475.021 293.945 474.941 293.775 474.781C293.605 474.621 293.52 474.321 293.52 473.881V470.236C293.52 469.786 293.595 469.481 293.745 469.321C293.895 469.161 294.17 469.081 294.57 469.081H302.52C302.57 469.081 302.61 469.101 302.64 469.141C302.68 469.181 302.7 469.226 302.7 469.276V470.536C302.7 470.586 302.68 470.631 302.64 470.671C302.61 470.721 302.57 470.746 302.52 470.746H299.265V473.356H302.535C302.585 473.356 302.63 473.376 302.67 473.416C302.71 473.456 302.73 473.501 302.73 473.551V474.826C302.73 474.876 302.71 474.921 302.67 474.961C302.63 475.001 302.585 475.021 302.535 475.021H298.68V476.566H303.195C303.325 476.566 303.39 476.636 303.39 476.776V478.006C303.39 478.136 303.325 478.201 303.195 478.201H290.085C289.945 478.201 289.875 478.136 289.875 478.006V476.776C289.875 476.636 289.945 476.566 290.085 476.566H297.24V475.021H294.525ZM289.56 481.111C289.43 481.111 289.365 481.046 289.365 480.916V479.611C289.365 479.481 289.43 479.416 289.56 479.416H303.435C303.565 479.416 303.63 479.486 303.63 479.626V480.916C303.63 481.046 303.565 481.111 303.435 481.111H289.56ZM297.9 473.356V470.746H295.155C294.985 470.746 294.9 470.841 294.9 471.031V473.071C294.9 473.261 294.985 473.356 295.155 473.356H297.9ZM289.59 494.573C289.46 494.573 289.395 494.508 289.395 494.378V493.043C289.395 492.913 289.46 492.848 289.59 492.848H303.435C303.565 492.848 303.63 492.913 303.63 493.043V494.378C303.63 494.508 303.565 494.573 303.435 494.573H289.59ZM297.795 489.158C298.255 489.158 298.69 489.113 299.1 489.023C299.52 488.933 299.885 488.803 300.195 488.633C300.505 488.463 300.75 488.253 300.93 488.003C301.11 487.763 301.2 487.483 301.2 487.163C301.2 486.843 301.11 486.558 300.93 486.308C300.75 486.068 300.505 485.863 300.195 485.693C299.885 485.523 299.52 485.393 299.1 485.303C298.69 485.213 298.255 485.168 297.795 485.168C297.345 485.168 296.91 485.213 296.49 485.303C296.08 485.393 295.715 485.523 295.395 485.693C295.085 485.863 294.835 486.068 294.645 486.308C294.465 486.558 294.375 486.843 294.375 487.163C294.375 487.483 294.465 487.763 294.645 488.003C294.835 488.253 295.085 488.463 295.395 488.633C295.715 488.803 296.08 488.933 296.49 489.023C296.91 489.113 297.345 489.158 297.795 489.158ZM292.845 487.163C292.845 486.593 292.965 486.078 293.205 485.618C293.445 485.158 293.78 484.768 294.21 484.448C294.65 484.138 295.175 483.898 295.785 483.728C296.395 483.558 297.065 483.473 297.795 483.473C298.545 483.473 299.225 483.558 299.835 483.728C300.445 483.898 300.96 484.138 301.38 484.448C301.81 484.768 302.14 485.158 302.37 485.618C302.61 486.078 302.73 486.593 302.73 487.163C302.73 487.743 302.61 488.258 302.37 488.708C302.14 489.168 301.81 489.553 301.38 489.863C300.96 490.183 300.445 490.428 299.835 490.598C299.225 490.768 298.545 490.853 297.795 490.853C297.045 490.853 296.365 490.768 295.755 490.598C295.145 490.428 294.625 490.183 294.195 489.863C293.765 489.553 293.43 489.168 293.19 488.708C292.96 488.258 292.845 487.743 292.845 487.163ZM295.89 498.434C295.87 498.384 295.865 498.324 295.875 498.254C295.895 498.194 295.945 498.139 296.025 498.089L296.955 497.549C297.035 497.509 297.105 497.504 297.165 497.534C297.235 497.574 297.28 497.629 297.3 497.699C297.58 498.449 297.88 499.104 298.2 499.664C298.53 500.234 298.905 500.714 299.325 501.104C299.745 501.504 300.225 501.814 300.765 502.034C301.305 502.264 301.93 502.414 302.64 502.484C302.71 502.494 302.78 502.514 302.85 502.544C302.92 502.584 302.95 502.644 302.94 502.724L302.88 504.029C302.87 504.199 302.76 504.279 302.55 504.269C302.29 504.259 302.045 504.229 301.815 504.179C301.335 504.299 300.875 504.509 300.435 504.809C299.995 505.109 299.59 505.474 299.22 505.904C298.86 506.344 298.54 506.829 298.26 507.359C297.98 507.889 297.76 508.439 297.6 509.009C297.58 509.079 297.535 509.119 297.465 509.129C297.405 509.149 297.35 509.149 297.3 509.129L296.34 508.619C296.19 508.539 296.135 508.419 296.175 508.259C296.295 507.799 296.465 507.334 296.685 506.864C296.905 506.404 297.16 505.959 297.45 505.529C297.75 505.099 298.08 504.704 298.44 504.344C298.81 503.984 299.205 503.679 299.625 503.429C298.745 502.929 297.995 502.249 297.375 501.389C296.755 500.539 296.26 499.554 295.89 498.434ZM293.37 509.879C293.37 509.929 293.345 509.979 293.295 510.029C293.245 510.079 293.19 510.104 293.13 510.104H292.155C292.105 510.104 292.055 510.079 292.005 510.029C291.955 509.979 291.93 509.929 291.93 509.879V496.814C291.93 496.754 291.955 496.704 292.005 496.664C292.055 496.624 292.105 496.604 292.155 496.604H293.13C293.29 496.604 293.37 496.674 293.37 496.814V509.879Z" fill="black"/>
</svg>
