<svg width="677" height="638" viewBox="0 0 677 638" fill="none" xmlns="http://www.w3.org/2000/svg">
<rect width="677" height="638" fill="#F5F5F5"/>
<rect x="1.5" y="253.5" width="219" height="383" fill="#E1D0B1" stroke="black" stroke-width="3"/>
<rect x="340" y="372" width="334" height="73" fill="#D9D9D9"/>
<rect x="271" y="138" width="69" height="497" fill="#D9D9D9"/>
<rect x="7" y="138" width="264" height="68" fill="#D9D9D9"/>
<rect x="340" y="566" width="334" height="69" fill="#D9D9D9"/>
<rect x="31.5" y="159.5" width="95" height="47" fill="#F1D8B0" stroke="black" stroke-width="3"/>
<rect x="251" y="114" width="54" height="24" fill="#F1B0B1"/>
<rect x="126.5" y="159.5" width="94" height="47" fill="#F1D8B0" stroke="black" stroke-width="3"/>
<rect x="217.5" y="159.5" width="53" height="47" fill="#F1D8B0" stroke="black" stroke-width="3"/>
<rect x="270.5" y="561.5" width="53" height="75" fill="#F1D8B0" stroke="black" stroke-width="3"/>
<rect x="377.5" y="594.5" width="75" height="42" fill="#F1D8B0" stroke="black" stroke-width="3"/>
<rect x="452.5" y="594.5" width="75" height="42" fill="#F1D8B0" stroke="black" stroke-width="3"/>
<rect x="527.5" y="594.5" width="75" height="42" fill="#F1D8B0" stroke="black" stroke-width="3"/>
<rect x="600.5" y="594.5" width="75" height="42" fill="#F1D8B0" stroke="black" stroke-width="3"/>
<rect x="377.5" y="404.5" width="75" height="42" fill="#F1D8B0" stroke="black" stroke-width="3"/>
<rect x="452.5" y="404.5" width="75" height="42" fill="#F1D8B0" stroke="black" stroke-width="3"/>
<rect x="527.5" y="404.5" width="75" height="42" fill="#F1D8B0" stroke="black" stroke-width="3"/>
<rect x="600.5" y="404.5" width="75" height="42" fill="#F1D8B0" stroke="black" stroke-width="3"/>
<rect x="270.5" y="519.5" width="53" height="42" fill="#F1D8B0" stroke="black" stroke-width="3"/>
<rect x="270.5" y="338.5" width="46" height="32" fill="#F1D8B0" stroke="black" stroke-width="3"/>
<rect x="270.5" y="284.5" width="46" height="54" fill="#F1D8B0" stroke="black" stroke-width="3"/>
<rect x="270.5" y="256.5" width="46" height="28" fill="#F1D8B0" stroke="black" stroke-width="3"/>
<rect x="270.5" y="445.5" width="53" height="74" fill="#F1D8B0" stroke="black" stroke-width="3"/>
<rect x="591" width="25" height="25" fill="#70B56F"/>
<rect x="591" y="32" width="25" height="25" fill="#F1B0B1"/>
<path d="M633.77 16.155C633.69 16.205 633.61 16.235 633.53 16.245C633.45 16.255 633.385 16.225 633.335 16.155L632.735 15.33C632.675 15.24 632.66 15.16 632.69 15.09C632.73 15.01 632.775 14.95 632.825 14.91C633.505 14.49 634.115 14.015 634.655 13.485C635.205 12.945 635.67 12.39 636.05 11.82C636.44 11.24 636.74 10.66 636.95 10.08C637.16 9.5 637.275 8.96 637.295 8.46C637.305 8.25 637.285 8.11 637.235 8.04C637.185 7.96 637.055 7.92 636.845 7.92H633.53C633.39 7.92 633.32 7.855 633.32 7.725V6.705C633.32 6.655 633.34 6.61 633.38 6.57C633.43 6.53 633.48 6.51 633.53 6.51H637.895C638.325 6.51 638.62 6.595 638.78 6.765C638.94 6.925 639.015 7.2 639.005 7.59C638.995 7.79 638.98 7.99 638.96 8.19C638.95 8.39 638.93 8.585 638.9 8.775H640.505V5.82C640.505 5.69 640.575 5.625 640.715 5.625H641.945C642.075 5.625 642.14 5.69 642.14 5.82V18.915C642.14 19.055 642.075 19.125 641.945 19.125H640.715C640.575 19.125 640.505 19.055 640.505 18.915V13.5H638.36C638.31 13.5 638.26 13.48 638.21 13.44C638.17 13.4 638.15 13.355 638.15 13.305V12.315C638.15 12.265 638.17 12.225 638.21 12.195C638.26 12.155 638.31 12.135 638.36 12.135H640.505V10.155H638.6C638.22 11.365 637.615 12.48 636.785 13.5C635.955 14.52 634.95 15.405 633.77 16.155ZM645.005 19.44C645.005 19.57 644.94 19.635 644.81 19.635H643.505C643.375 19.635 643.31 19.57 643.31 19.44V5.565C643.31 5.435 643.38 5.37 643.52 5.37H644.81C644.94 5.37 645.005 5.435 645.005 5.565V19.44ZM655.361 12.39C655.381 12.5 655.361 12.575 655.301 12.615C655.251 12.645 655.201 12.67 655.151 12.69C654.781 12.8 654.326 12.895 653.786 12.975C653.246 13.045 652.671 13.105 652.061 13.155C651.461 13.205 650.861 13.24 650.261 13.26C649.661 13.28 649.116 13.28 648.626 13.26C648.296 13.24 648.031 13.155 647.831 13.005C647.641 12.855 647.546 12.605 647.546 12.255V7.185C647.546 6.835 647.616 6.59 647.756 6.45C647.906 6.31 648.171 6.24 648.551 6.24H653.831C653.971 6.24 654.041 6.305 654.041 6.435V7.485C654.041 7.615 653.971 7.68 653.831 7.68H649.541C649.361 7.68 649.271 7.765 649.271 7.935V11.4C649.271 11.56 649.296 11.665 649.346 11.715C649.406 11.765 649.531 11.795 649.721 11.805C650.041 11.825 650.411 11.83 650.831 11.82C651.261 11.8 651.706 11.775 652.166 11.745C652.636 11.705 653.106 11.655 653.576 11.595C654.046 11.535 654.486 11.465 654.896 11.385C655.066 11.355 655.166 11.41 655.196 11.55L655.361 12.39ZM658.421 19.17C658.421 19.23 658.396 19.275 658.346 19.305C658.306 19.335 658.261 19.35 658.211 19.35H650.276C649.826 19.35 649.521 19.27 649.361 19.11C649.211 18.95 649.136 18.675 649.136 18.285V15.09C649.136 15.04 649.156 14.99 649.196 14.94C649.246 14.89 649.296 14.865 649.346 14.865H650.636C650.696 14.865 650.746 14.89 650.786 14.94C650.836 14.98 650.861 15.03 650.861 15.09V17.67C650.861 17.77 650.881 17.835 650.921 17.865C650.961 17.895 651.031 17.91 651.131 17.91H658.211C658.261 17.91 658.306 17.93 658.346 17.97C658.396 18.01 658.421 18.055 658.421 18.105V19.17ZM660.086 11.22C660.086 11.27 660.061 11.315 660.011 11.355C659.971 11.385 659.926 11.4 659.876 11.4H657.836V15.285C657.836 15.415 657.771 15.48 657.641 15.48H656.306C656.176 15.48 656.111 15.415 656.111 15.285V5.565C656.111 5.435 656.176 5.37 656.306 5.37H657.641C657.771 5.37 657.836 5.435 657.836 5.565V9.96H659.876C659.926 9.96 659.971 9.98 660.011 10.02C660.061 10.05 660.086 10.09 660.086 10.14V11.22Z" fill="black"/>
<path d="M631.905 41.39C632.365 41.39 632.795 41.455 633.195 41.585C633.595 41.705 633.945 41.875 634.245 42.095C634.545 42.315 634.78 42.585 634.95 42.905C635.12 43.215 635.205 43.555 635.205 43.925C635.205 44.245 635.14 44.545 635.01 44.825C634.89 45.095 634.715 45.335 634.485 45.545C634.265 45.755 634 45.935 633.69 46.085C633.38 46.225 633.045 46.325 632.685 46.385V47.645C633.855 47.585 635.01 47.465 636.15 47.285C636.2 47.275 636.255 47.28 636.315 47.3C636.375 47.31 636.41 47.355 636.42 47.435L636.51 48.365C636.52 48.445 636.505 48.505 636.465 48.545C636.425 48.585 636.38 48.61 636.33 48.62C634.93 48.85 633.48 49 631.98 49.07C630.48 49.14 629.01 49.165 627.57 49.145C627.51 49.145 627.46 49.125 627.42 49.085C627.38 49.035 627.36 48.98 627.36 48.92V47.945C627.36 47.795 627.43 47.72 627.57 47.72C628.71 47.75 629.86 47.75 631.02 47.72V46.37C630.67 46.3 630.345 46.195 630.045 46.055C629.755 45.905 629.5 45.725 629.28 45.515C629.07 45.305 628.905 45.07 628.785 44.81C628.665 44.54 628.605 44.245 628.605 43.925C628.605 43.555 628.69 43.215 628.86 42.905C629.04 42.585 629.28 42.315 629.58 42.095C629.88 41.875 630.23 41.705 630.63 41.585C631.03 41.455 631.455 41.39 631.905 41.39ZM640.995 44.51C640.995 44.56 640.97 44.605 640.92 44.645C640.88 44.685 640.835 44.705 640.785 44.705H638.82V51.41C638.82 51.54 638.755 51.605 638.625 51.605H637.29C637.16 51.605 637.095 51.54 637.095 51.41V37.565C637.095 37.435 637.16 37.37 637.29 37.37H638.625C638.755 37.37 638.82 37.435 638.82 37.565V43.265H640.785C640.835 43.265 640.88 43.285 640.92 43.325C640.97 43.365 640.995 43.41 640.995 43.46V44.51ZM635.985 40.655C635.985 40.715 635.96 40.77 635.91 40.82C635.87 40.86 635.82 40.88 635.76 40.88H627.84C627.79 40.88 627.735 40.855 627.675 40.805C627.625 40.755 627.6 40.7 627.6 40.64V39.8C627.6 39.75 627.63 39.7 627.69 39.65C627.75 39.6 627.805 39.575 627.855 39.575H635.76C635.82 39.575 635.87 39.6 635.91 39.65C635.96 39.69 635.985 39.74 635.985 39.8V40.655ZM631.905 42.725C631.425 42.725 631.025 42.84 630.705 43.07C630.385 43.29 630.225 43.575 630.225 43.925C630.225 44.275 630.38 44.565 630.69 44.795C631.01 45.025 631.415 45.14 631.905 45.14C632.395 45.14 632.795 45.025 633.105 44.795C633.425 44.565 633.585 44.275 633.585 43.925C633.585 43.575 633.425 43.29 633.105 43.07C632.795 42.84 632.395 42.725 631.905 42.725ZM634.08 38.705C634.08 38.775 634.055 38.835 634.005 38.885C633.965 38.935 633.91 38.96 633.84 38.96H629.82C629.78 38.96 629.73 38.94 629.67 38.9C629.62 38.86 629.595 38.8 629.595 38.72V37.85C629.595 37.78 629.62 37.725 629.67 37.685C629.73 37.645 629.78 37.625 629.82 37.625H633.84C633.9 37.625 633.955 37.65 634.005 37.7C634.055 37.75 634.08 37.805 634.08 37.865V38.705ZM653.001 48.755C653.001 49.175 652.886 49.565 652.656 49.925C652.426 50.275 652.111 50.575 651.711 50.825C651.311 51.085 650.831 51.285 650.271 51.425C649.721 51.565 649.126 51.635 648.486 51.635C647.796 51.635 647.176 51.565 646.626 51.425C646.076 51.285 645.606 51.085 645.216 50.825C644.836 50.575 644.541 50.275 644.331 49.925C644.121 49.575 644.016 49.185 644.016 48.755C644.016 48.335 644.121 47.95 644.331 47.6C644.541 47.25 644.836 46.95 645.216 46.7C645.606 46.44 646.076 46.24 646.626 46.1C647.176 45.96 647.796 45.89 648.486 45.89C649.126 45.89 649.721 45.96 650.271 46.1C650.831 46.24 651.311 46.435 651.711 46.685C652.111 46.935 652.426 47.235 652.656 47.585C652.886 47.935 653.001 48.325 653.001 48.755ZM642.801 45.44C642.731 45.47 642.646 45.485 642.546 45.485C642.456 45.485 642.381 45.43 642.321 45.32L641.856 44.57C641.806 44.49 641.791 44.405 641.811 44.315C641.841 44.225 641.906 44.155 642.006 44.105C643.116 43.595 644.081 42.975 644.901 42.245C645.731 41.505 646.346 40.72 646.746 39.89C646.796 39.8 646.816 39.72 646.806 39.65C646.796 39.58 646.711 39.545 646.551 39.545H642.786C642.716 39.545 642.661 39.52 642.621 39.47C642.591 39.42 642.576 39.365 642.576 39.305V38.315C642.576 38.175 642.651 38.105 642.801 38.105H647.616C648.056 38.105 648.381 38.185 648.591 38.345C648.811 38.505 648.896 38.75 648.846 39.08C648.826 39.19 648.801 39.305 648.771 39.425C648.741 39.545 648.706 39.65 648.666 39.74C648.546 40.06 648.386 40.385 648.186 40.715C647.996 41.035 647.781 41.355 647.541 41.675C647.721 41.855 647.921 42.035 648.141 42.215C648.361 42.395 648.586 42.565 648.816 42.725C649.046 42.885 649.271 43.035 649.491 43.175C649.721 43.305 649.936 43.42 650.136 43.52C650.246 43.57 650.316 43.625 650.346 43.685C650.376 43.735 650.356 43.81 650.286 43.91L649.791 44.75C649.681 44.93 649.531 44.965 649.341 44.855C649.161 44.775 648.951 44.665 648.711 44.525C648.481 44.375 648.241 44.21 647.991 44.03C647.741 43.84 647.491 43.645 647.241 43.445C646.991 43.235 646.761 43.025 646.551 42.815C646.021 43.335 645.436 43.82 644.796 44.27C644.156 44.72 643.491 45.11 642.801 45.44ZM655.101 42.23C655.101 42.28 655.076 42.325 655.026 42.365C654.986 42.405 654.936 42.425 654.876 42.425H652.851V45.485C652.851 45.535 652.831 45.585 652.791 45.635C652.751 45.675 652.706 45.695 652.656 45.695H651.321C651.271 45.695 651.226 45.675 651.186 45.635C651.146 45.585 651.126 45.53 651.126 45.47V37.565C651.126 37.435 651.191 37.37 651.321 37.37H652.656C652.786 37.37 652.851 37.435 652.851 37.565V40.985H654.876C654.936 40.985 654.986 41.005 655.026 41.045C655.076 41.085 655.101 41.13 655.101 41.18V42.23ZM651.231 48.8C651.231 48.55 651.156 48.33 651.006 48.14C650.856 47.95 650.656 47.79 650.406 47.66C650.156 47.53 649.866 47.43 649.536 47.36C649.206 47.29 648.856 47.255 648.486 47.255C647.686 47.255 647.036 47.39 646.536 47.66C646.046 47.92 645.801 48.3 645.801 48.8C645.801 49.04 645.866 49.25 645.996 49.43C646.136 49.61 646.321 49.765 646.551 49.895C646.791 50.015 647.076 50.105 647.406 50.165C647.736 50.235 648.096 50.27 648.486 50.27C648.856 50.27 649.206 50.235 649.536 50.165C649.866 50.105 650.156 50.015 650.406 49.895C650.656 49.765 650.856 49.61 651.006 49.43C651.156 49.25 651.231 49.04 651.231 48.8ZM667.828 51.365C667.828 51.415 667.803 51.46 667.753 51.5C667.713 51.55 667.673 51.575 667.633 51.575H659.668C659.278 51.575 659.013 51.5 658.873 51.35C658.733 51.2 658.663 50.965 658.663 50.645V48.815C658.663 48.495 658.728 48.265 658.858 48.125C658.998 47.975 659.263 47.9 659.653 47.9H665.578C665.658 47.9 665.708 47.89 665.728 47.87C665.748 47.84 665.758 47.78 665.758 47.69V47.135C665.758 47.025 665.748 46.96 665.728 46.94C665.708 46.92 665.653 46.91 665.563 46.91H658.843C658.793 46.91 658.743 46.895 658.693 46.865C658.653 46.825 658.633 46.78 658.633 46.73V45.74C658.633 45.69 658.653 45.645 658.693 45.605C658.743 45.555 658.793 45.53 658.843 45.53H666.418C666.828 45.53 667.098 45.6 667.228 45.74C667.368 45.88 667.438 46.12 667.438 46.46V48.275C667.438 48.625 667.368 48.865 667.228 48.995C667.098 49.125 666.828 49.19 666.418 49.19H660.538C660.458 49.19 660.408 49.205 660.388 49.235C660.368 49.255 660.358 49.305 660.358 49.385V50.015C660.358 50.105 660.368 50.155 660.388 50.165C660.408 50.185 660.463 50.195 660.553 50.195H667.618C667.668 50.195 667.713 50.215 667.753 50.255C667.803 50.295 667.828 50.345 667.828 50.405V51.365ZM657.028 44.765C656.808 44.895 656.648 44.89 656.548 44.75L655.948 44.015C655.888 43.935 655.858 43.86 655.858 43.79C655.868 43.71 655.923 43.645 656.023 43.595C657.213 42.945 658.078 42.16 658.618 41.24C659.158 40.31 659.428 39.16 659.428 37.79C659.428 37.72 659.453 37.665 659.503 37.625C659.563 37.585 659.618 37.565 659.668 37.565L660.958 37.625C661.088 37.625 661.153 37.7 661.153 37.85C661.153 38.27 661.128 38.67 661.078 39.05C661.028 39.42 660.958 39.78 660.868 40.13C661.038 40.46 661.248 40.775 661.498 41.075C661.748 41.375 662.013 41.65 662.293 41.9C662.573 42.15 662.858 42.37 663.148 42.56C663.448 42.74 663.733 42.89 664.003 43.01C664.173 43.08 664.203 43.205 664.093 43.385L663.583 44.195C663.483 44.345 663.353 44.385 663.193 44.315C662.593 44.055 662.033 43.71 661.513 43.28C661.003 42.85 660.558 42.365 660.178 41.825C659.828 42.455 659.383 43.015 658.843 43.505C658.313 43.985 657.708 44.405 657.028 44.765ZM667.438 44.645C667.438 44.775 667.373 44.84 667.243 44.84H665.908C665.778 44.84 665.713 44.77 665.713 44.63V37.565C665.713 37.435 665.778 37.37 665.908 37.37H667.243C667.373 37.37 667.438 37.435 667.438 37.565V44.645Z" fill="black"/>
<rect x="591" y="64" width="25" height="25" fill="#C7A5ED"/>
<rect x="323" y="238" width="17" height="32" fill="#C7A5ED"/>
<path d="M628.335 79.99C628.255 80.04 628.17 80.06 628.08 80.05C628 80.04 627.935 79.995 627.885 79.915L627.3 79.15C627.23 79.06 627.215 78.975 627.255 78.895C627.305 78.815 627.36 78.755 627.42 78.715C628.05 78.325 628.65 77.875 629.22 77.365C629.79 76.855 630.305 76.32 630.765 75.76C631.225 75.19 631.615 74.615 631.935 74.035C632.255 73.445 632.485 72.88 632.625 72.34C632.665 72.17 632.67 72.06 632.64 72.01C632.61 71.96 632.51 71.935 632.34 71.935H628.47C628.4 71.935 628.345 71.915 628.305 71.875C628.275 71.825 628.26 71.77 628.26 71.71V70.705C628.26 70.645 628.28 70.595 628.32 70.555C628.37 70.515 628.425 70.495 628.485 70.495H633.375C633.765 70.495 634.07 70.57 634.29 70.72C634.51 70.87 634.62 71.065 634.62 71.305C634.62 71.435 634.61 71.57 634.59 71.71C634.57 71.84 634.545 71.96 634.515 72.07C634.375 72.61 634.19 73.155 633.96 73.705C633.73 74.245 633.445 74.785 633.105 75.325C633.295 75.585 633.515 75.86 633.765 76.15C634.015 76.43 634.27 76.705 634.53 76.975C634.79 77.235 635.05 77.48 635.31 77.71C635.57 77.93 635.805 78.115 636.015 78.265C636.085 78.315 636.13 78.38 636.15 78.46C636.18 78.54 636.165 78.62 636.105 78.7L635.46 79.435C635.33 79.585 635.165 79.595 634.965 79.465C634.785 79.345 634.575 79.18 634.335 78.97C634.095 78.76 633.845 78.525 633.585 78.265C633.335 78.005 633.08 77.735 632.82 77.455C632.57 77.165 632.345 76.89 632.145 76.63C631.125 77.9 629.855 79.02 628.335 79.99ZM640.995 76.12C640.995 76.17 640.97 76.215 640.92 76.255C640.88 76.295 640.835 76.315 640.785 76.315H638.745V83.41C638.745 83.54 638.68 83.605 638.55 83.605H637.215C637.085 83.605 637.02 83.54 637.02 83.41V69.565C637.02 69.435 637.085 69.37 637.215 69.37H638.55C638.68 69.37 638.745 69.435 638.745 69.565V74.875H640.785C640.835 74.875 640.88 74.895 640.92 74.935C640.97 74.965 640.995 75.005 640.995 75.055V76.12ZM641.616 76.24C641.616 76.1 641.686 76.03 641.826 76.03C642.086 76.04 642.336 76.045 642.576 76.045C642.816 76.045 643.051 76.045 643.281 76.045V71.755H641.991C641.941 71.755 641.886 71.73 641.826 71.68C641.766 71.63 641.736 71.575 641.736 71.515V70.57C641.736 70.52 641.766 70.47 641.826 70.42C641.886 70.37 641.941 70.345 641.991 70.345H649.596C649.656 70.345 649.706 70.37 649.746 70.42C649.796 70.46 649.821 70.51 649.821 70.57V71.53C649.821 71.59 649.796 71.645 649.746 71.695C649.706 71.735 649.656 71.755 649.596 71.755H648.666V75.82C648.916 75.8 649.161 75.775 649.401 75.745C649.641 75.715 649.881 75.685 650.121 75.655C650.171 75.645 650.226 75.655 650.286 75.685C650.346 75.705 650.381 75.74 650.391 75.79L650.496 76.675C650.506 76.765 650.481 76.84 650.421 76.9C650.361 76.96 650.306 76.995 650.256 77.005C649.656 77.095 649.016 77.17 648.336 77.23C647.656 77.28 646.956 77.325 646.236 77.365C645.516 77.395 644.781 77.415 644.031 77.425C643.291 77.435 642.556 77.43 641.826 77.41C641.766 77.41 641.716 77.39 641.676 77.35C641.636 77.3 641.616 77.245 641.616 77.185V76.24ZM655.101 75.19C655.101 75.24 655.076 75.285 655.026 75.325C654.986 75.365 654.941 75.385 654.891 75.385H652.851V79.285C652.851 79.415 652.786 79.48 652.656 79.48H651.321C651.191 79.48 651.126 79.415 651.126 79.285V69.565C651.126 69.435 651.191 69.37 651.321 69.37H652.656C652.786 69.37 652.851 69.435 652.851 69.565V73.945H654.891C654.941 73.945 654.986 73.965 655.026 74.005C655.076 74.035 655.101 74.075 655.101 74.125V75.19ZM653.436 83.17C653.436 83.23 653.411 83.275 653.361 83.305C653.311 83.335 653.261 83.35 653.211 83.35H645.291C644.841 83.35 644.536 83.27 644.376 83.11C644.216 82.95 644.136 82.675 644.136 82.285V79.09C644.136 79.04 644.161 78.99 644.211 78.94C644.261 78.89 644.311 78.865 644.361 78.865H645.636C645.706 78.865 645.761 78.89 645.801 78.94C645.851 78.98 645.876 79.03 645.876 79.09V81.67C645.876 81.77 645.896 81.835 645.936 81.865C645.976 81.895 646.046 81.91 646.146 81.91H653.211C653.261 81.91 653.311 81.93 653.361 81.97C653.411 82.01 653.436 82.055 653.436 82.105V83.17ZM644.931 76.03C645.291 76.02 645.646 76.01 645.996 76C646.346 75.99 646.691 75.97 647.031 75.94V71.755H644.931V76.03ZM667.573 83.41C667.573 83.54 667.508 83.605 667.378 83.605H666.043C665.913 83.605 665.848 83.54 665.848 83.41V69.565C665.848 69.435 665.913 69.37 666.043 69.37H667.378C667.508 69.37 667.573 69.435 667.573 69.565V83.41ZM663.523 71.62C663.443 72.59 663.238 73.505 662.908 74.365C662.588 75.225 662.158 76.025 661.618 76.765C661.088 77.505 660.458 78.19 659.728 78.82C658.998 79.45 658.193 80.025 657.313 80.545C657.233 80.595 657.143 80.615 657.043 80.605C656.953 80.585 656.883 80.535 656.833 80.455L656.323 79.66C656.273 79.58 656.258 79.505 656.278 79.435C656.298 79.355 656.343 79.295 656.413 79.255C657.903 78.375 659.093 77.36 659.983 76.21C660.883 75.06 661.468 73.8 661.738 72.43C661.778 72.23 661.768 72.1 661.708 72.04C661.648 71.97 661.523 71.935 661.333 71.935H657.103C656.963 71.935 656.893 71.865 656.893 71.725V70.675C656.893 70.555 656.963 70.495 657.103 70.495H662.473C662.923 70.495 663.218 70.59 663.358 70.78C663.498 70.96 663.553 71.24 663.523 71.62Z" fill="black"/>
<rect x="305" y="114" width="35" height="24" fill="#70B56F"/>
<rect x="10" y="158" width="20" height="47" fill="#70B56F"/>
<rect x="340" y="445" width="36" height="29" fill="#70B56F"/>
<rect x="340" y="343" width="36" height="29" fill="#70B56F"/>
<rect x="340" y="537" width="48" height="32" fill="#F1B0B1"/>
<rect x="340" y="474" width="25" height="40" fill="#F1B0B1"/>
<rect x="340" y="596" width="36" height="39" fill="#70B56F"/>
<line x1="7" y1="206.5" x2="269" y2="206.5" stroke="black" stroke-width="3"/>
<line x1="7" y1="136.5" x2="271" y2="136.5" stroke="black" stroke-width="3"/>
<line x1="343" y1="112.5" x2="248" y2="112.5" stroke="black" stroke-width="3"/>
<line x1="341.5" y1="372" x2="341.553" y2="114" stroke="black" stroke-width="3"/>
<line x1="249.5" y1="138" x2="249.5" y2="114" stroke="black" stroke-width="3"/>
<line x1="270.5" y1="208" x2="270.5" y2="635" stroke="black" stroke-width="3"/>
<line x1="389.5" y1="537" x2="389.5" y2="566" stroke="black" stroke-width="3"/>
<line x1="366.5" y1="474" x2="366.5" y2="514" stroke="black" stroke-width="3"/>
<line x1="377.5" y1="448" x2="377.5" y2="476" stroke="black" stroke-width="3"/>
<line x1="377.5" y1="340" x2="377.5" y2="369" stroke="black" stroke-width="3"/>
<line x1="675.5" y1="370" x2="675.5" y2="448" stroke="black" stroke-width="3"/>
<line x1="675.5" y1="566" x2="675.5" y2="638" stroke="black" stroke-width="3"/>
<line x1="675.995" y1="371.5" x2="375.995" y2="370.476" stroke="black" stroke-width="3"/>
<line x1="675" y1="446.5" x2="376" y2="446.5" stroke="black" stroke-width="3"/>
<line x1="391" y1="535.5" x2="340" y2="535.5" stroke="black" stroke-width="3"/>
<path d="M368 515.5L340 515.5" stroke="black" stroke-width="3"/>
<line x1="674" y1="636.5" x2="269" y2="636.5" stroke="black" stroke-width="3"/>
<line x1="8.5" y1="138" x2="8.5" y2="205" stroke="black" stroke-width="3"/>
<line x1="304.5" y1="138" x2="304.5" y2="114" stroke="black" stroke-width="3"/>
<line x1="341.5" y1="514" x2="341.5" y2="569" stroke="black" stroke-width="3"/>
<line x1="341.5" y1="596" x2="341.5" y2="635" stroke="black" stroke-width="3"/>
<line x1="377.5" y1="596" x2="377.5" y2="635" stroke="black" stroke-width="3"/>
<line x1="340" y1="474.5" x2="376" y2="474.5" stroke="black" stroke-width="3"/>
<line x1="340" y1="341.5" x2="376" y2="341.5" stroke="black" stroke-width="3"/>
<line x1="341.5" y1="445" x2="341.5" y2="489" stroke="black" stroke-width="3"/>
<line x1="353" y1="567.5" x2="340" y2="567.5" stroke="black" stroke-width="3"/>
<line x1="674" y1="567.5" x2="388" y2="567.5" stroke="black" stroke-width="3"/>
<path d="M627.14 431.06C626.95 431.06 626.855 430.995 626.855 430.865V430.01C626.855 429.93 626.875 429.85 626.915 429.77C626.965 429.69 627.02 429.61 627.08 429.53L629.36 426.83C630.19 425.84 630.805 425.015 631.205 424.355C631.605 423.695 631.805 423.155 631.805 422.735C631.805 422.255 631.655 421.86 631.355 421.55C631.065 421.24 630.705 421.085 630.275 421.085C629.865 421.085 629.465 421.145 629.075 421.265C628.695 421.375 628.28 421.56 627.83 421.82C627.75 421.87 627.67 421.895 627.59 421.895C627.51 421.885 627.46 421.835 627.44 421.745L627.23 420.605C627.21 420.555 627.215 420.505 627.245 420.455C627.275 420.405 627.34 420.35 627.44 420.29C627.82 420.09 628.255 419.91 628.745 419.75C629.235 419.59 629.715 419.51 630.185 419.51C630.665 419.51 631.105 419.58 631.505 419.72C631.915 419.85 632.265 420.05 632.555 420.32C632.855 420.58 633.09 420.91 633.26 421.31C633.43 421.71 633.515 422.17 633.515 422.69C633.515 423.14 633.415 423.6 633.215 424.07C633.015 424.53 632.765 424.985 632.465 425.435C632.165 425.875 631.845 426.3 631.505 426.71C631.165 427.11 630.855 427.475 630.575 427.805C630.355 428.075 630.12 428.36 629.87 428.66C629.63 428.95 629.385 429.235 629.135 429.515H633.53C633.67 429.515 633.74 429.595 633.74 429.755V430.805C633.74 430.975 633.67 431.06 633.53 431.06H627.14ZM636.087 425.915C636.037 425.915 635.992 425.9 635.952 425.87C635.912 425.83 635.892 425.785 635.892 425.735V424.535C635.892 424.485 635.912 424.445 635.952 424.415C635.992 424.375 636.037 424.355 636.087 424.355H639.717C639.777 424.355 639.822 424.375 639.852 424.415C639.892 424.445 639.912 424.485 639.912 424.535V425.735C639.912 425.785 639.892 425.83 639.852 425.87C639.822 425.9 639.777 425.915 639.717 425.915H636.087ZM645.151 431.165C644.701 431.165 644.246 431.1 643.786 430.97C643.336 430.83 642.931 430.63 642.571 430.37C642.211 430.1 641.916 429.765 641.686 429.365C641.456 428.955 641.341 428.48 641.341 427.94C641.341 427.57 641.401 427.245 641.521 426.965C641.651 426.675 641.816 426.42 642.016 426.2C642.226 425.97 642.466 425.765 642.736 425.585C643.016 425.405 643.306 425.24 643.606 425.09C643.006 424.75 642.531 424.355 642.181 423.905C641.831 423.445 641.656 422.93 641.656 422.36C641.656 421.94 641.746 421.555 641.926 421.205C642.116 420.855 642.366 420.555 642.676 420.305C642.996 420.055 643.366 419.86 643.786 419.72C644.216 419.58 644.671 419.51 645.151 419.51C645.651 419.51 646.111 419.575 646.531 419.705C646.961 419.835 647.326 420.02 647.626 420.26C647.936 420.5 648.176 420.795 648.346 421.145C648.526 421.485 648.616 421.875 648.616 422.315C648.616 422.825 648.456 423.3 648.136 423.74C647.826 424.18 647.346 424.625 646.696 425.075C647.046 425.285 647.361 425.49 647.641 425.69C647.921 425.88 648.161 426.09 648.361 426.32C648.561 426.54 648.711 426.78 648.811 427.04C648.921 427.3 648.976 427.6 648.976 427.94C648.976 428.48 648.866 428.955 648.646 429.365C648.436 429.765 648.151 430.1 647.791 430.37C647.441 430.63 647.036 430.83 646.576 430.97C646.116 431.1 645.641 431.165 645.151 431.165ZM645.151 420.98C644.941 420.98 644.731 421.015 644.521 421.085C644.311 421.155 644.121 421.255 643.951 421.385C643.781 421.505 643.641 421.66 643.531 421.85C643.421 422.03 643.366 422.24 643.366 422.48C643.366 422.69 643.436 422.895 643.576 423.095C643.716 423.295 643.881 423.48 644.071 423.65C644.271 423.82 644.471 423.965 644.671 424.085C644.871 424.205 645.036 424.29 645.166 424.34C645.316 424.28 645.491 424.185 645.691 424.055C645.891 423.915 646.081 423.755 646.261 423.575C646.451 423.395 646.606 423.205 646.726 423.005C646.856 422.805 646.921 422.615 646.921 422.435C646.921 422.235 646.871 422.05 646.771 421.88C646.681 421.7 646.556 421.545 646.396 421.415C646.236 421.275 646.046 421.17 645.826 421.1C645.616 421.02 645.391 420.98 645.151 420.98ZM645.166 425.915C644.966 425.975 644.741 426.06 644.491 426.17C644.241 426.27 644.006 426.4 643.786 426.56C643.576 426.72 643.396 426.915 643.246 427.145C643.096 427.365 643.021 427.63 643.021 427.94C643.021 428.2 643.086 428.435 643.216 428.645C643.346 428.855 643.511 429.035 643.711 429.185C643.921 429.335 644.151 429.45 644.401 429.53C644.661 429.61 644.911 429.65 645.151 429.65C645.411 429.65 645.666 429.615 645.916 429.545C646.176 429.465 646.406 429.35 646.606 429.2C646.806 429.05 646.966 428.87 647.086 428.66C647.216 428.45 647.281 428.21 647.281 427.94C647.281 427.75 647.216 427.555 647.086 427.355C646.966 427.145 646.801 426.95 646.591 426.77C646.391 426.59 646.166 426.425 645.916 426.275C645.666 426.125 645.416 426.005 645.166 425.915Z" fill="black"/>
<path d="M553.14 431.06C552.95 431.06 552.855 430.995 552.855 430.865V430.01C552.855 429.93 552.875 429.85 552.915 429.77C552.965 429.69 553.02 429.61 553.08 429.53L555.36 426.83C556.19 425.84 556.805 425.015 557.205 424.355C557.605 423.695 557.805 423.155 557.805 422.735C557.805 422.255 557.655 421.86 557.355 421.55C557.065 421.24 556.705 421.085 556.275 421.085C555.865 421.085 555.465 421.145 555.075 421.265C554.695 421.375 554.28 421.56 553.83 421.82C553.75 421.87 553.67 421.895 553.59 421.895C553.51 421.885 553.46 421.835 553.44 421.745L553.23 420.605C553.21 420.555 553.215 420.505 553.245 420.455C553.275 420.405 553.34 420.35 553.44 420.29C553.82 420.09 554.255 419.91 554.745 419.75C555.235 419.59 555.715 419.51 556.185 419.51C556.665 419.51 557.105 419.58 557.505 419.72C557.915 419.85 558.265 420.05 558.555 420.32C558.855 420.58 559.09 420.91 559.26 421.31C559.43 421.71 559.515 422.17 559.515 422.69C559.515 423.14 559.415 423.6 559.215 424.07C559.015 424.53 558.765 424.985 558.465 425.435C558.165 425.875 557.845 426.3 557.505 426.71C557.165 427.11 556.855 427.475 556.575 427.805C556.355 428.075 556.12 428.36 555.87 428.66C555.63 428.95 555.385 429.235 555.135 429.515H559.53C559.67 429.515 559.74 429.595 559.74 429.755V430.805C559.74 430.975 559.67 431.06 559.53 431.06H553.14ZM562.087 425.915C562.037 425.915 561.992 425.9 561.952 425.87C561.912 425.83 561.892 425.785 561.892 425.735V424.535C561.892 424.485 561.912 424.445 561.952 424.415C561.992 424.375 562.037 424.355 562.087 424.355H565.717C565.777 424.355 565.822 424.375 565.852 424.415C565.892 424.445 565.912 424.485 565.912 424.535V425.735C565.912 425.785 565.892 425.83 565.852 425.87C565.822 425.9 565.777 425.915 565.717 425.915H562.087ZM570.476 430.835C570.436 430.915 570.396 430.97 570.356 431C570.316 431.03 570.246 431.045 570.146 431.045H568.931C568.781 431.045 568.686 431.03 568.646 431C568.606 430.96 568.606 430.885 568.646 430.775L572.561 421.19H567.776C567.706 421.19 567.646 421.17 567.596 421.13C567.546 421.08 567.521 421.015 567.521 420.935V419.885C567.521 419.725 567.606 419.645 567.776 419.645H574.166C574.336 419.645 574.436 419.665 574.466 419.705C574.506 419.735 574.526 419.805 574.526 419.915V420.83C574.526 420.91 574.501 420.99 574.451 421.07L570.476 430.835Z" fill="black"/>
<path d="M479.14 431.06C478.95 431.06 478.855 430.995 478.855 430.865V430.01C478.855 429.93 478.875 429.85 478.915 429.77C478.965 429.69 479.02 429.61 479.08 429.53L481.36 426.83C482.19 425.84 482.805 425.015 483.205 424.355C483.605 423.695 483.805 423.155 483.805 422.735C483.805 422.255 483.655 421.86 483.355 421.55C483.065 421.24 482.705 421.085 482.275 421.085C481.865 421.085 481.465 421.145 481.075 421.265C480.695 421.375 480.28 421.56 479.83 421.82C479.75 421.87 479.67 421.895 479.59 421.895C479.51 421.885 479.46 421.835 479.44 421.745L479.23 420.605C479.21 420.555 479.215 420.505 479.245 420.455C479.275 420.405 479.34 420.35 479.44 420.29C479.82 420.09 480.255 419.91 480.745 419.75C481.235 419.59 481.715 419.51 482.185 419.51C482.665 419.51 483.105 419.58 483.505 419.72C483.915 419.85 484.265 420.05 484.555 420.32C484.855 420.58 485.09 420.91 485.26 421.31C485.43 421.71 485.515 422.17 485.515 422.69C485.515 423.14 485.415 423.6 485.215 424.07C485.015 424.53 484.765 424.985 484.465 425.435C484.165 425.875 483.845 426.3 483.505 426.71C483.165 427.11 482.855 427.475 482.575 427.805C482.355 428.075 482.12 428.36 481.87 428.66C481.63 428.95 481.385 429.235 481.135 429.515H485.53C485.67 429.515 485.74 429.595 485.74 429.755V430.805C485.74 430.975 485.67 431.06 485.53 431.06H479.14ZM488.087 425.915C488.037 425.915 487.992 425.9 487.952 425.87C487.912 425.83 487.892 425.785 487.892 425.735V424.535C487.892 424.485 487.912 424.445 487.952 424.415C487.992 424.375 488.037 424.355 488.087 424.355H491.717C491.777 424.355 491.822 424.375 491.852 424.415C491.892 424.445 491.912 424.485 491.912 424.535V425.735C491.912 425.785 491.892 425.83 491.852 425.87C491.822 425.9 491.777 425.915 491.717 425.915H488.087ZM497.166 431.165C495.986 431.165 495.076 430.725 494.436 429.845C493.806 428.955 493.491 427.575 493.491 425.705C493.491 424.865 493.576 424.07 493.746 423.32C493.916 422.56 494.196 421.9 494.586 421.34C494.986 420.78 495.506 420.335 496.146 420.005C496.786 419.675 497.571 419.51 498.501 419.51C498.791 419.51 499.111 419.535 499.461 419.585C499.821 419.635 500.116 419.7 500.346 419.78C500.436 419.81 500.476 419.875 500.466 419.975L500.421 421.175C500.401 421.315 500.321 421.355 500.181 421.295C499.921 421.195 499.641 421.13 499.341 421.1C499.051 421.07 498.731 421.055 498.381 421.055C497.861 421.055 497.416 421.145 497.046 421.325C496.686 421.495 496.381 421.735 496.131 422.045C495.881 422.355 495.681 422.72 495.531 423.14C495.391 423.56 495.286 424.01 495.216 424.49C495.306 424.37 495.426 424.255 495.576 424.145C495.736 424.025 495.906 423.925 496.086 423.845C496.276 423.755 496.471 423.685 496.671 423.635C496.871 423.575 497.066 423.545 497.256 423.545C497.796 423.545 498.286 423.635 498.726 423.815C499.176 423.985 499.561 424.235 499.881 424.565C500.201 424.885 500.446 425.275 500.616 425.735C500.796 426.185 500.886 426.695 500.886 427.265C500.886 427.815 500.801 428.33 500.631 428.81C500.461 429.28 500.211 429.69 499.881 430.04C499.561 430.39 499.171 430.665 498.711 430.865C498.251 431.065 497.736 431.165 497.166 431.165ZM497.316 425.105C496.666 425.105 496.156 425.305 495.786 425.705C495.416 426.095 495.231 426.595 495.231 427.205C495.231 427.545 495.281 427.865 495.381 428.165C495.481 428.465 495.616 428.73 495.786 428.96C495.966 429.18 496.176 429.355 496.416 429.485C496.656 429.615 496.916 429.68 497.196 429.68C497.796 429.68 498.286 429.47 498.666 429.05C499.046 428.63 499.236 428.06 499.236 427.34C499.236 426.65 499.066 426.105 498.726 425.705C498.396 425.305 497.926 425.105 497.316 425.105Z" fill="black"/>
<path d="M404.14 431.06C403.95 431.06 403.855 430.995 403.855 430.865V430.01C403.855 429.93 403.875 429.85 403.915 429.77C403.965 429.69 404.02 429.61 404.08 429.53L406.36 426.83C407.19 425.84 407.805 425.015 408.205 424.355C408.605 423.695 408.805 423.155 408.805 422.735C408.805 422.255 408.655 421.86 408.355 421.55C408.065 421.24 407.705 421.085 407.275 421.085C406.865 421.085 406.465 421.145 406.075 421.265C405.695 421.375 405.28 421.56 404.83 421.82C404.75 421.87 404.67 421.895 404.59 421.895C404.51 421.885 404.46 421.835 404.44 421.745L404.23 420.605C404.21 420.555 404.215 420.505 404.245 420.455C404.275 420.405 404.34 420.35 404.44 420.29C404.82 420.09 405.255 419.91 405.745 419.75C406.235 419.59 406.715 419.51 407.185 419.51C407.665 419.51 408.105 419.58 408.505 419.72C408.915 419.85 409.265 420.05 409.555 420.32C409.855 420.58 410.09 420.91 410.26 421.31C410.43 421.71 410.515 422.17 410.515 422.69C410.515 423.14 410.415 423.6 410.215 424.07C410.015 424.53 409.765 424.985 409.465 425.435C409.165 425.875 408.845 426.3 408.505 426.71C408.165 427.11 407.855 427.475 407.575 427.805C407.355 428.075 407.12 428.36 406.87 428.66C406.63 428.95 406.385 429.235 406.135 429.515H410.53C410.67 429.515 410.74 429.595 410.74 429.755V430.805C410.74 430.975 410.67 431.06 410.53 431.06H404.14ZM413.087 425.915C413.037 425.915 412.992 425.9 412.952 425.87C412.912 425.83 412.892 425.785 412.892 425.735V424.535C412.892 424.485 412.912 424.445 412.952 424.415C412.992 424.375 413.037 424.355 413.087 424.355H416.717C416.777 424.355 416.822 424.375 416.852 424.415C416.892 424.445 416.912 424.485 416.912 424.535V425.735C416.912 425.785 416.892 425.83 416.852 425.87C416.822 425.9 416.777 425.915 416.717 425.915H413.087ZM424.491 430.175C424.131 430.505 423.691 430.75 423.171 430.91C422.651 431.07 422.106 431.15 421.536 431.15C421.436 431.15 421.281 431.14 421.071 431.12C420.871 431.11 420.651 431.085 420.411 431.045C420.181 431.015 419.946 430.975 419.706 430.925C419.476 430.865 419.281 430.795 419.121 430.715C419.051 430.675 419.011 430.64 419.001 430.61C419.001 430.57 419.001 430.515 419.001 430.445V429.23C419.001 429.05 419.106 429.01 419.316 429.11C419.466 429.19 419.641 429.26 419.841 429.32C420.041 429.37 420.246 429.415 420.456 429.455C420.666 429.495 420.871 429.525 421.071 429.545C421.281 429.565 421.476 429.575 421.656 429.575C422.326 429.575 422.876 429.385 423.306 429.005C423.746 428.625 423.966 428.1 423.966 427.43C423.966 426.78 423.786 426.265 423.426 425.885C423.076 425.495 422.491 425.3 421.671 425.3C421.341 425.3 421.001 425.335 420.651 425.405C420.311 425.475 419.981 425.57 419.661 425.69C419.271 425.85 419.076 425.76 419.076 425.42L419.151 419.885C419.161 419.775 419.181 419.705 419.211 419.675C419.241 419.645 419.331 419.63 419.481 419.63H424.971C425.031 419.63 425.076 419.65 425.106 419.69C425.146 419.73 425.166 419.775 425.166 419.825V420.98C425.166 421.03 425.146 421.08 425.106 421.13C425.076 421.17 425.031 421.19 424.971 421.19H420.801L420.741 423.98C421.131 423.89 421.571 423.845 422.061 423.845C422.561 423.845 423.031 423.925 423.471 424.085C423.911 424.235 424.291 424.46 424.611 424.76C424.941 425.05 425.196 425.405 425.376 425.825C425.566 426.245 425.661 426.715 425.661 427.235C425.661 428.495 425.271 429.475 424.491 430.175Z" fill="black"/>
<path d="M150.125 186.77C150.125 187.19 149.99 187.575 149.72 187.925C149.46 188.275 149.105 188.575 148.655 188.825C148.205 189.075 147.685 189.265 147.095 189.395C146.505 189.535 145.89 189.605 145.25 189.605C144.56 189.605 143.92 189.535 143.33 189.395C142.75 189.265 142.24 189.075 141.8 188.825C141.37 188.585 141.03 188.29 140.78 187.94C140.54 187.59 140.42 187.2 140.42 186.77C140.42 186.35 140.54 185.97 140.78 185.63C141.03 185.28 141.37 184.98 141.8 184.73C142.24 184.48 142.75 184.29 143.33 184.16C143.92 184.02 144.56 183.95 145.25 183.95C145.89 183.95 146.505 184.02 147.095 184.16C147.685 184.29 148.205 184.48 148.655 184.73C149.105 184.97 149.46 185.265 149.72 185.615C149.99 185.955 150.125 186.34 150.125 186.77ZM148.31 175.565C148.31 175.435 148.38 175.37 148.52 175.37H149.81C149.94 175.37 150.005 175.435 150.005 175.565V183.59C150.005 183.73 149.94 183.8 149.81 183.8H148.505C148.375 183.8 148.31 183.73 148.31 183.59V180.455H146.96V183.185C146.96 183.315 146.895 183.38 146.765 183.38H145.535C145.395 183.38 145.325 183.315 145.325 183.185V175.805C145.325 175.675 145.395 175.61 145.535 175.61H146.765C146.895 175.61 146.96 175.675 146.96 175.805V179.015H148.31V175.565ZM138.635 183.155C138.555 183.205 138.47 183.235 138.38 183.245C138.29 183.245 138.21 183.205 138.14 183.125L137.585 182.48C137.435 182.32 137.455 182.16 137.645 182C138.225 181.59 138.705 181.16 139.085 180.71C139.465 180.26 139.765 179.79 139.985 179.3C140.215 178.81 140.375 178.295 140.465 177.755C140.555 177.215 140.6 176.65 140.6 176.06C140.6 175.98 140.62 175.92 140.66 175.88C140.71 175.83 140.76 175.805 140.81 175.805L142.07 175.865C142.2 175.865 142.265 175.945 142.265 176.105C142.265 176.915 142.19 177.67 142.04 178.37C142.24 178.95 142.575 179.51 143.045 180.05C143.515 180.59 144.035 181.05 144.605 181.43C144.685 181.48 144.72 181.535 144.71 181.595C144.71 181.645 144.685 181.705 144.635 181.775L144.065 182.54C143.945 182.69 143.8 182.71 143.63 182.6C143.21 182.34 142.79 182.005 142.37 181.595C141.95 181.185 141.605 180.74 141.335 180.26C141.025 180.85 140.645 181.385 140.195 181.865C139.755 182.335 139.235 182.765 138.635 183.155ZM148.355 186.815C148.355 186.565 148.26 186.35 148.07 186.17C147.89 185.98 147.65 185.825 147.35 185.705C147.06 185.575 146.73 185.48 146.36 185.42C145.99 185.35 145.62 185.315 145.25 185.315C144.85 185.315 144.465 185.35 144.095 185.42C143.735 185.48 143.41 185.575 143.12 185.705C142.84 185.825 142.615 185.98 142.445 186.17C142.275 186.35 142.19 186.565 142.19 186.815C142.19 187.055 142.275 187.265 142.445 187.445C142.615 187.615 142.84 187.76 143.12 187.88C143.41 188 143.74 188.09 144.11 188.15C144.48 188.21 144.86 188.24 145.25 188.24C145.62 188.24 145.99 188.21 146.36 188.15C146.73 188.09 147.06 188 147.35 187.88C147.65 187.76 147.89 187.615 148.07 187.445C148.26 187.265 148.355 187.055 148.355 186.815ZM159.206 181.925C159.206 182.315 159.126 182.59 158.966 182.75C158.816 182.9 158.551 182.975 158.171 182.975H153.716C153.296 182.975 153.006 182.9 152.846 182.75C152.686 182.59 152.606 182.315 152.606 181.925V177.005C152.606 176.625 152.681 176.365 152.831 176.225C152.991 176.075 153.261 176 153.641 176H158.171C158.551 176 158.816 176.07 158.966 176.21C159.126 176.34 159.206 176.605 159.206 177.005V177.41H161.756V175.565C161.756 175.435 161.821 175.37 161.951 175.37H163.286C163.416 175.37 163.481 175.435 163.481 175.565V183.56C163.481 183.7 163.416 183.77 163.286 183.77H161.951C161.821 183.77 161.756 183.7 161.756 183.56V181.685H159.206V181.925ZM163.586 186.77C163.586 187.19 163.471 187.575 163.241 187.925C163.021 188.275 162.711 188.575 162.311 188.825C161.911 189.075 161.436 189.265 160.886 189.395C160.336 189.535 159.736 189.605 159.086 189.605C158.406 189.605 157.791 189.535 157.241 189.395C156.691 189.265 156.221 189.075 155.831 188.825C155.451 188.585 155.156 188.29 154.946 187.94C154.736 187.59 154.631 187.2 154.631 186.77C154.631 186.35 154.736 185.97 154.946 185.63C155.156 185.28 155.451 184.98 155.831 184.73C156.221 184.48 156.691 184.29 157.241 184.16C157.791 184.02 158.406 183.95 159.086 183.95C159.736 183.95 160.336 184.02 160.886 184.16C161.436 184.29 161.911 184.48 162.311 184.73C162.711 184.97 163.021 185.265 163.241 185.615C163.471 185.955 163.586 186.34 163.586 186.77ZM157.526 177.575C157.526 177.485 157.511 177.43 157.481 177.41C157.461 177.38 157.411 177.365 157.331 177.365H154.481C154.401 177.365 154.346 177.375 154.316 177.395C154.296 177.415 154.286 177.47 154.286 177.56V181.4C154.286 181.49 154.296 181.545 154.316 181.565C154.346 181.585 154.401 181.595 154.481 181.595H157.331C157.411 181.595 157.461 181.585 157.481 181.565C157.511 181.545 157.526 181.49 157.526 181.4V177.575ZM161.816 186.815C161.816 186.565 161.741 186.35 161.591 186.17C161.451 185.98 161.256 185.825 161.006 185.705C160.756 185.575 160.466 185.48 160.136 185.42C159.806 185.35 159.456 185.315 159.086 185.315C158.286 185.315 157.641 185.44 157.151 185.69C156.661 185.94 156.416 186.315 156.416 186.815C156.416 187.285 156.666 187.64 157.166 187.88C157.666 188.12 158.306 188.24 159.086 188.24C159.456 188.24 159.806 188.21 160.136 188.15C160.466 188.09 160.756 188 161.006 187.88C161.256 187.76 161.451 187.615 161.591 187.445C161.741 187.265 161.816 187.055 161.816 186.815ZM161.756 180.335V178.76H159.206V180.335H161.756ZM179.208 182.435C179.208 182.485 179.183 182.53 179.133 182.57C179.093 182.61 179.048 182.63 178.998 182.63H177.033V189.41C177.033 189.54 176.968 189.605 176.838 189.605H175.503C175.373 189.605 175.308 189.54 175.308 189.41V175.565C175.308 175.435 175.373 175.37 175.503 175.37H176.838C176.968 175.37 177.033 175.435 177.033 175.565V181.19H178.998C179.048 181.19 179.093 181.21 179.133 181.25C179.183 181.28 179.208 181.325 179.208 181.385V182.435ZM165.573 185.435C165.573 185.295 165.643 185.225 165.783 185.225C166.253 185.245 166.713 185.255 167.163 185.255C167.623 185.255 168.088 185.25 168.558 185.24V181.265C168.558 181.125 168.628 181.055 168.768 181.055H170.043C170.183 181.055 170.253 181.125 170.253 181.265V185.18C170.953 185.14 171.643 185.09 172.323 185.03C173.003 184.97 173.683 184.885 174.363 184.775C174.413 184.765 174.468 184.77 174.528 184.79C174.588 184.8 174.623 184.845 174.633 184.925L174.723 185.87C174.733 185.96 174.718 186.025 174.678 186.065C174.638 186.105 174.593 186.13 174.543 186.14C173.143 186.37 171.693 186.52 170.193 186.59C168.693 186.66 167.223 186.68 165.783 186.65C165.723 186.65 165.673 186.63 165.633 186.59C165.593 186.54 165.573 186.485 165.573 186.425V185.435ZM173.823 177.68C173.823 178.5 173.788 179.345 173.718 180.215C173.648 181.085 173.533 181.96 173.373 182.84C173.353 182.92 173.318 183 173.268 183.08C173.228 183.15 173.168 183.18 173.088 183.17L171.888 183.065C171.758 183.055 171.708 182.95 171.738 182.75C171.848 182.03 171.938 181.305 172.008 180.575C172.088 179.835 172.128 179.09 172.128 178.34C172.128 178.2 172.093 178.11 172.023 178.07C171.953 178.03 171.848 178.01 171.708 178.01H166.743C166.683 178.01 166.628 177.995 166.578 177.965C166.528 177.925 166.503 177.88 166.503 177.83V176.795C166.503 176.725 166.528 176.675 166.578 176.645C166.628 176.615 166.683 176.6 166.743 176.6H172.833C173.143 176.6 173.383 176.69 173.553 176.87C173.733 177.04 173.823 177.31 173.823 177.68ZM184.284 180.5C183.814 180.5 183.424 180.615 183.114 180.845C182.814 181.065 182.664 181.35 182.664 181.7C182.664 181.88 182.704 182.045 182.784 182.195C182.864 182.345 182.974 182.475 183.114 182.585C183.264 182.695 183.439 182.785 183.639 182.855C183.839 182.915 184.054 182.945 184.284 182.945C184.754 182.945 185.139 182.825 185.439 182.585C185.749 182.345 185.904 182.05 185.904 181.7C185.904 181.35 185.754 181.065 185.454 180.845C185.154 180.615 184.764 180.5 184.284 180.5ZM184.284 179.195C184.734 179.195 185.159 179.26 185.559 179.39C185.959 179.51 186.304 179.68 186.594 179.9C186.884 180.12 187.114 180.385 187.284 180.695C187.454 180.995 187.539 181.33 187.539 181.7C187.539 182.07 187.454 182.41 187.284 182.72C187.114 183.03 186.879 183.3 186.579 183.53C186.289 183.75 185.944 183.925 185.544 184.055C185.154 184.175 184.729 184.235 184.269 184.235C183.819 184.235 183.399 184.175 183.009 184.055C182.619 183.925 182.279 183.75 181.989 183.53C181.699 183.3 181.469 183.03 181.299 182.72C181.129 182.41 181.044 182.07 181.044 181.7C181.044 181.33 181.129 180.995 181.299 180.695C181.469 180.385 181.699 180.12 181.989 179.9C182.279 179.68 182.619 179.51 183.009 179.39C183.409 179.26 183.834 179.195 184.284 179.195ZM188.364 178.49C188.364 178.55 188.339 178.605 188.289 178.655C188.249 178.695 188.199 178.715 188.139 178.715H180.189C180.129 178.715 180.074 178.69 180.024 178.64C179.974 178.59 179.949 178.535 179.949 178.475V177.635C179.949 177.585 179.974 177.535 180.024 177.485C180.084 177.425 180.144 177.395 180.204 177.395H188.139C188.199 177.395 188.249 177.42 188.289 177.47C188.339 177.52 188.364 177.575 188.364 177.635V178.49ZM186.429 176.585C186.429 176.645 186.404 176.705 186.354 176.765C186.314 176.815 186.254 176.84 186.174 176.84H182.259C182.219 176.84 182.169 176.82 182.109 176.78C182.059 176.74 182.034 176.68 182.034 176.6V175.745C182.034 175.675 182.059 175.62 182.109 175.58C182.169 175.54 182.219 175.52 182.259 175.52H186.174C186.244 175.52 186.304 175.545 186.354 175.595C186.404 175.645 186.429 175.7 186.429 175.76V176.585ZM193.314 180.845C193.314 180.895 193.289 180.94 193.239 180.98C193.199 181.02 193.149 181.04 193.089 181.04H191.064V184.31C191.064 184.45 190.999 184.52 190.869 184.52H189.534C189.404 184.52 189.339 184.445 189.339 184.295V175.565C189.339 175.435 189.404 175.37 189.534 175.37H190.869C190.999 175.37 191.064 175.435 191.064 175.565V179.6H193.089C193.149 179.6 193.199 179.62 193.239 179.66C193.289 179.69 193.314 179.73 193.314 179.78V180.845ZM191.049 189.365C191.049 189.415 191.024 189.46 190.974 189.5C190.934 189.55 190.884 189.575 190.824 189.575H189.549C189.489 189.575 189.434 189.55 189.384 189.5C189.344 189.46 189.324 189.415 189.324 189.365V186.785C189.324 186.675 189.299 186.605 189.249 186.575C189.209 186.545 189.139 186.53 189.039 186.53H182.259C182.209 186.53 182.159 186.515 182.109 186.485C182.069 186.445 182.049 186.4 182.049 186.35V185.315C182.049 185.255 182.069 185.21 182.109 185.18C182.159 185.14 182.209 185.12 182.259 185.12H190.044C190.424 185.12 190.684 185.2 190.824 185.36C190.974 185.52 191.049 185.79 191.049 186.17V189.365ZM206.041 189.365C206.041 189.415 206.016 189.46 205.966 189.5C205.926 189.55 205.886 189.575 205.846 189.575H197.881C197.491 189.575 197.226 189.5 197.086 189.35C196.946 189.2 196.876 188.965 196.876 188.645V186.815C196.876 186.495 196.941 186.265 197.071 186.125C197.211 185.975 197.476 185.9 197.866 185.9H203.791C203.871 185.9 203.921 185.89 203.941 185.87C203.961 185.84 203.971 185.78 203.971 185.69V185.135C203.971 185.025 203.961 184.96 203.941 184.94C203.921 184.92 203.866 184.91 203.776 184.91H197.056C197.006 184.91 196.956 184.895 196.906 184.865C196.866 184.825 196.846 184.78 196.846 184.73V183.74C196.846 183.69 196.866 183.645 196.906 183.605C196.956 183.555 197.006 183.53 197.056 183.53H204.631C205.041 183.53 205.311 183.6 205.441 183.74C205.581 183.88 205.651 184.12 205.651 184.46V186.275C205.651 186.625 205.581 186.865 205.441 186.995C205.311 187.125 205.041 187.19 204.631 187.19H198.751C198.671 187.19 198.621 187.205 198.601 187.235C198.581 187.255 198.571 187.305 198.571 187.385V188.015C198.571 188.105 198.581 188.155 198.601 188.165C198.621 188.185 198.676 188.195 198.766 188.195H205.831C205.881 188.195 205.926 188.215 205.966 188.255C206.016 188.295 206.041 188.345 206.041 188.405V189.365ZM195.241 182.765C195.021 182.895 194.861 182.89 194.761 182.75L194.161 182.015C194.101 181.935 194.071 181.86 194.071 181.79C194.081 181.71 194.136 181.645 194.236 181.595C195.426 180.945 196.291 180.16 196.831 179.24C197.371 178.31 197.641 177.16 197.641 175.79C197.641 175.72 197.666 175.665 197.716 175.625C197.776 175.585 197.831 175.565 197.881 175.565L199.171 175.625C199.301 175.625 199.366 175.7 199.366 175.85C199.366 176.27 199.341 176.67 199.291 177.05C199.241 177.42 199.171 177.78 199.081 178.13C199.251 178.46 199.461 178.775 199.711 179.075C199.961 179.375 200.226 179.65 200.506 179.9C200.786 180.15 201.071 180.37 201.361 180.56C201.661 180.74 201.946 180.89 202.216 181.01C202.386 181.08 202.416 181.205 202.306 181.385L201.796 182.195C201.696 182.345 201.566 182.385 201.406 182.315C200.806 182.055 200.246 181.71 199.726 181.28C199.216 180.85 198.771 180.365 198.391 179.825C198.041 180.455 197.596 181.015 197.056 181.505C196.526 181.985 195.921 182.405 195.241 182.765ZM205.651 182.645C205.651 182.775 205.586 182.84 205.456 182.84H204.121C203.991 182.84 203.926 182.77 203.926 182.63V175.565C203.926 175.435 203.991 175.37 204.121 175.37H205.456C205.586 175.37 205.651 175.435 205.651 175.565V182.645Z" fill="black"/>
<path d="M62.905 179.39C63.365 179.39 63.795 179.455 64.195 179.585C64.595 179.705 64.945 179.875 65.245 180.095C65.545 180.315 65.78 180.585 65.95 180.905C66.12 181.215 66.205 181.555 66.205 181.925C66.205 182.245 66.14 182.545 66.01 182.825C65.89 183.095 65.715 183.335 65.485 183.545C65.265 183.755 65 183.935 64.69 184.085C64.38 184.225 64.045 184.325 63.685 184.385V185.645C64.855 185.585 66.01 185.465 67.15 185.285C67.2 185.275 67.255 185.28 67.315 185.3C67.375 185.31 67.41 185.355 67.42 185.435L67.51 186.365C67.52 186.445 67.505 186.505 67.465 186.545C67.425 186.585 67.38 186.61 67.33 186.62C65.93 186.85 64.48 187 62.98 187.07C61.48 187.14 60.01 187.165 58.57 187.145C58.51 187.145 58.46 187.125 58.42 187.085C58.38 187.035 58.36 186.98 58.36 186.92V185.945C58.36 185.795 58.43 185.72 58.57 185.72C59.71 185.75 60.86 185.75 62.02 185.72V184.37C61.67 184.3 61.345 184.195 61.045 184.055C60.755 183.905 60.5 183.725 60.28 183.515C60.07 183.305 59.905 183.07 59.785 182.81C59.665 182.54 59.605 182.245 59.605 181.925C59.605 181.555 59.69 181.215 59.86 180.905C60.04 180.585 60.28 180.315 60.58 180.095C60.88 179.875 61.23 179.705 61.63 179.585C62.03 179.455 62.455 179.39 62.905 179.39ZM71.995 182.51C71.995 182.56 71.97 182.605 71.92 182.645C71.88 182.685 71.835 182.705 71.785 182.705H69.82V189.41C69.82 189.54 69.755 189.605 69.625 189.605H68.29C68.16 189.605 68.095 189.54 68.095 189.41V175.565C68.095 175.435 68.16 175.37 68.29 175.37H69.625C69.755 175.37 69.82 175.435 69.82 175.565V181.265H71.785C71.835 181.265 71.88 181.285 71.92 181.325C71.97 181.365 71.995 181.41 71.995 181.46V182.51ZM66.985 178.655C66.985 178.715 66.96 178.77 66.91 178.82C66.87 178.86 66.82 178.88 66.76 178.88H58.84C58.79 178.88 58.735 178.855 58.675 178.805C58.625 178.755 58.6 178.7 58.6 178.64V177.8C58.6 177.75 58.63 177.7 58.69 177.65C58.75 177.6 58.805 177.575 58.855 177.575H66.76C66.82 177.575 66.87 177.6 66.91 177.65C66.96 177.69 66.985 177.74 66.985 177.8V178.655ZM62.905 180.725C62.425 180.725 62.025 180.84 61.705 181.07C61.385 181.29 61.225 181.575 61.225 181.925C61.225 182.275 61.38 182.565 61.69 182.795C62.01 183.025 62.415 183.14 62.905 183.14C63.395 183.14 63.795 183.025 64.105 182.795C64.425 182.565 64.585 182.275 64.585 181.925C64.585 181.575 64.425 181.29 64.105 181.07C63.795 180.84 63.395 180.725 62.905 180.725ZM65.08 176.705C65.08 176.775 65.055 176.835 65.005 176.885C64.965 176.935 64.91 176.96 64.84 176.96H60.82C60.78 176.96 60.73 176.94 60.67 176.9C60.62 176.86 60.595 176.8 60.595 176.72V175.85C60.595 175.78 60.62 175.725 60.67 175.685C60.73 175.645 60.78 175.625 60.82 175.625H64.84C64.9 175.625 64.955 175.65 65.005 175.7C65.055 175.75 65.08 175.805 65.08 175.865V176.705ZM77.0714 180.5C76.6014 180.5 76.2114 180.615 75.9014 180.845C75.6014 181.065 75.4514 181.35 75.4514 181.7C75.4514 181.88 75.4914 182.045 75.5714 182.195C75.6514 182.345 75.7614 182.475 75.9014 182.585C76.0514 182.695 76.2264 182.785 76.4264 182.855C76.6264 182.915 76.8414 182.945 77.0714 182.945C77.5414 182.945 77.9264 182.825 78.2264 182.585C78.5364 182.345 78.6914 182.05 78.6914 181.7C78.6914 181.35 78.5414 181.065 78.2414 180.845C77.9414 180.615 77.5514 180.5 77.0714 180.5ZM77.0714 179.195C77.5214 179.195 77.9464 179.26 78.3464 179.39C78.7464 179.51 79.0914 179.68 79.3814 179.9C79.6714 180.12 79.9014 180.385 80.0714 180.695C80.2414 180.995 80.3264 181.33 80.3264 181.7C80.3264 182.07 80.2414 182.41 80.0714 182.72C79.9014 183.03 79.6664 183.3 79.3664 183.53C79.0764 183.75 78.7314 183.925 78.3314 184.055C77.9414 184.175 77.5164 184.235 77.0564 184.235C76.6064 184.235 76.1864 184.175 75.7964 184.055C75.4064 183.925 75.0664 183.75 74.7764 183.53C74.4864 183.3 74.2564 183.03 74.0864 182.72C73.9164 182.41 73.8314 182.07 73.8314 181.7C73.8314 181.33 73.9164 180.995 74.0864 180.695C74.2564 180.385 74.4864 180.12 74.7764 179.9C75.0664 179.68 75.4064 179.51 75.7964 179.39C76.1964 179.26 76.6214 179.195 77.0714 179.195ZM81.1514 178.49C81.1514 178.55 81.1264 178.605 81.0764 178.655C81.0364 178.695 80.9864 178.715 80.9264 178.715H72.9764C72.9164 178.715 72.8614 178.69 72.8114 178.64C72.7614 178.59 72.7364 178.535 72.7364 178.475V177.635C72.7364 177.585 72.7614 177.535 72.8114 177.485C72.8714 177.425 72.9314 177.395 72.9914 177.395H80.9264C80.9864 177.395 81.0364 177.42 81.0764 177.47C81.1264 177.52 81.1514 177.575 81.1514 177.635V178.49ZM79.2164 176.585C79.2164 176.645 79.1914 176.705 79.1414 176.765C79.1014 176.815 79.0414 176.84 78.9614 176.84H75.0464C75.0064 176.84 74.9564 176.82 74.8964 176.78C74.8464 176.74 74.8214 176.68 74.8214 176.6V175.745C74.8214 175.675 74.8464 175.62 74.8964 175.58C74.9564 175.54 75.0064 175.52 75.0464 175.52H78.9614C79.0314 175.52 79.0914 175.545 79.1414 175.595C79.1914 175.645 79.2164 175.7 79.2164 175.76V176.585ZM86.1014 180.845C86.1014 180.895 86.0764 180.94 86.0264 180.98C85.9864 181.02 85.9364 181.04 85.8764 181.04H83.8514V184.31C83.8514 184.45 83.7864 184.52 83.6564 184.52H82.3214C82.1914 184.52 82.1264 184.445 82.1264 184.295V175.565C82.1264 175.435 82.1914 175.37 82.3214 175.37H83.6564C83.7864 175.37 83.8514 175.435 83.8514 175.565V179.6H85.8764C85.9364 179.6 85.9864 179.62 86.0264 179.66C86.0764 179.69 86.1014 179.73 86.1014 179.78V180.845ZM83.8364 189.365C83.8364 189.415 83.8114 189.46 83.7614 189.5C83.7214 189.55 83.6714 189.575 83.6114 189.575H82.3364C82.2764 189.575 82.2214 189.55 82.1714 189.5C82.1314 189.46 82.1114 189.415 82.1114 189.365V186.785C82.1114 186.675 82.0864 186.605 82.0364 186.575C81.9964 186.545 81.9264 186.53 81.8264 186.53H75.0464C74.9964 186.53 74.9464 186.515 74.8964 186.485C74.8564 186.445 74.8364 186.4 74.8364 186.35V185.315C74.8364 185.255 74.8564 185.21 74.8964 185.18C74.9464 185.14 74.9964 185.12 75.0464 185.12H82.8314C83.2114 185.12 83.4714 185.2 83.6114 185.36C83.7614 185.52 83.8364 185.79 83.8364 186.17V189.365ZM98.8279 189.365C98.8279 189.415 98.8029 189.46 98.7529 189.5C98.7129 189.55 98.6729 189.575 98.6329 189.575H90.6679C90.2779 189.575 90.0129 189.5 89.8729 189.35C89.7329 189.2 89.6629 188.965 89.6629 188.645V186.815C89.6629 186.495 89.7279 186.265 89.8579 186.125C89.9979 185.975 90.2629 185.9 90.6529 185.9H96.5779C96.6579 185.9 96.7079 185.89 96.7279 185.87C96.7479 185.84 96.7579 185.78 96.7579 185.69V185.135C96.7579 185.025 96.7479 184.96 96.7279 184.94C96.7079 184.92 96.6529 184.91 96.5629 184.91H89.8429C89.7929 184.91 89.7429 184.895 89.6929 184.865C89.6529 184.825 89.6329 184.78 89.6329 184.73V183.74C89.6329 183.69 89.6529 183.645 89.6929 183.605C89.7429 183.555 89.7929 183.53 89.8429 183.53H97.4179C97.8279 183.53 98.0979 183.6 98.2279 183.74C98.3679 183.88 98.4379 184.12 98.4379 184.46V186.275C98.4379 186.625 98.3679 186.865 98.2279 186.995C98.0979 187.125 97.8279 187.19 97.4179 187.19H91.5379C91.4579 187.19 91.4079 187.205 91.3879 187.235C91.3679 187.255 91.3579 187.305 91.3579 187.385V188.015C91.3579 188.105 91.3679 188.155 91.3879 188.165C91.4079 188.185 91.4629 188.195 91.5529 188.195H98.6179C98.6679 188.195 98.7129 188.215 98.7529 188.255C98.8029 188.295 98.8279 188.345 98.8279 188.405V189.365ZM88.0279 182.765C87.8079 182.895 87.6479 182.89 87.5479 182.75L86.9479 182.015C86.8879 181.935 86.8579 181.86 86.8579 181.79C86.8679 181.71 86.9229 181.645 87.0229 181.595C88.2129 180.945 89.0779 180.16 89.6179 179.24C90.1579 178.31 90.4279 177.16 90.4279 175.79C90.4279 175.72 90.4529 175.665 90.5029 175.625C90.5629 175.585 90.6179 175.565 90.6679 175.565L91.9579 175.625C92.0879 175.625 92.1529 175.7 92.1529 175.85C92.1529 176.27 92.1279 176.67 92.0779 177.05C92.0279 177.42 91.9579 177.78 91.8679 178.13C92.0379 178.46 92.2479 178.775 92.4979 179.075C92.7479 179.375 93.0129 179.65 93.2929 179.9C93.5729 180.15 93.8579 180.37 94.1479 180.56C94.4479 180.74 94.7329 180.89 95.0029 181.01C95.1729 181.08 95.2029 181.205 95.0929 181.385L94.5829 182.195C94.4829 182.345 94.3529 182.385 94.1929 182.315C93.5929 182.055 93.0329 181.71 92.5129 181.28C92.0029 180.85 91.5579 180.365 91.1779 179.825C90.8279 180.455 90.3829 181.015 89.8429 181.505C89.3129 181.985 88.7079 182.405 88.0279 182.765ZM98.4379 182.645C98.4379 182.775 98.3729 182.84 98.2429 182.84H96.9079C96.7779 182.84 96.7129 182.77 96.7129 182.63V175.565C96.7129 175.435 96.7779 175.37 96.9079 175.37H98.2429C98.3729 175.37 98.4379 175.435 98.4379 175.565V182.645Z" fill="black"/>
<path d="M285.816 315.934C285.816 316.298 285.716 316.632 285.517 316.935C285.326 317.238 285.053 317.498 284.698 317.715C284.351 317.932 283.94 318.096 283.463 318.209C282.986 318.33 282.471 318.391 281.916 318.391C281.318 318.391 280.781 318.33 280.304 318.209C279.827 318.096 279.42 317.932 279.082 317.715C278.753 317.507 278.497 317.251 278.315 316.948C278.142 316.645 278.055 316.307 278.055 315.934C278.055 315.57 278.142 315.241 278.315 314.946C278.497 314.643 278.753 314.383 279.082 314.166C279.42 313.949 279.827 313.785 280.304 313.672C280.781 313.551 281.318 313.49 281.916 313.49C282.471 313.49 282.986 313.551 283.463 313.672C283.94 313.785 284.351 313.949 284.698 314.166C285.053 314.374 285.326 314.63 285.517 314.933C285.716 315.228 285.816 315.561 285.816 315.934ZM276.586 313.23C276.534 313.256 276.465 313.269 276.378 313.269C276.291 313.26 276.222 313.208 276.17 313.113L275.78 312.476C275.737 312.407 275.724 312.333 275.741 312.255C275.767 312.177 275.823 312.121 275.91 312.086C276.395 311.869 276.855 311.618 277.288 311.332C277.721 311.037 278.111 310.725 278.458 310.396C278.813 310.067 279.121 309.724 279.381 309.369C279.641 309.014 279.84 308.658 279.979 308.303C280.014 308.225 280.027 308.156 280.018 308.095C280.018 308.034 279.949 308.004 279.81 308.004H276.586C276.534 308.004 276.491 307.982 276.456 307.939C276.421 307.896 276.404 307.848 276.404 307.796V306.938C276.404 306.886 276.421 306.843 276.456 306.808C276.499 306.773 276.547 306.756 276.599 306.756H280.707C281.088 306.756 281.37 306.825 281.552 306.964C281.743 307.103 281.816 307.315 281.773 307.601C281.756 307.696 281.73 307.796 281.695 307.9C281.669 308.004 281.643 308.095 281.617 308.173C281.504 308.485 281.366 308.793 281.201 309.096C281.045 309.391 280.867 309.681 280.668 309.967C280.824 310.123 280.997 310.279 281.188 310.435C281.379 310.591 281.574 310.743 281.773 310.89C281.972 311.029 282.172 311.159 282.371 311.28C282.57 311.393 282.757 311.488 282.93 311.566C283.103 311.653 283.142 311.774 283.047 311.93L282.644 312.632C282.549 312.779 282.414 312.81 282.241 312.723C282.076 312.645 281.894 312.541 281.695 312.411C281.496 312.281 281.288 312.138 281.071 311.982C280.863 311.826 280.651 311.661 280.434 311.488C280.226 311.306 280.031 311.12 279.849 310.929C279.398 311.38 278.9 311.8 278.354 312.19C277.808 312.58 277.219 312.927 276.586 313.23ZM282.007 310.045V309.135C282.007 309.092 282.024 309.057 282.059 309.031C282.102 308.996 282.146 308.979 282.189 308.979H284.23V306.223C284.23 306.11 284.286 306.054 284.399 306.054H285.556C285.669 306.054 285.725 306.11 285.725 306.223V313.126C285.725 313.247 285.669 313.308 285.556 313.308H284.399C284.286 313.308 284.23 313.247 284.23 313.126V310.201H282.189C282.146 310.201 282.102 310.188 282.059 310.162C282.024 310.127 282.007 310.088 282.007 310.045ZM284.269 315.973C284.269 315.756 284.204 315.57 284.074 315.414C283.953 315.249 283.784 315.115 283.567 315.011C283.35 314.898 283.099 314.816 282.813 314.764C282.536 314.703 282.237 314.673 281.916 314.673C281.223 314.673 280.659 314.781 280.226 314.998C279.801 315.215 279.589 315.54 279.589 315.973C279.589 316.181 279.645 316.363 279.758 316.519C279.879 316.666 280.04 316.792 280.239 316.896C280.447 317 280.694 317.078 280.98 317.13C281.266 317.182 281.578 317.208 281.916 317.208C282.237 317.208 282.536 317.182 282.813 317.13C283.099 317.078 283.35 317 283.567 316.896C283.784 316.792 283.953 316.666 284.074 316.519C284.204 316.363 284.269 316.181 284.269 315.973ZM297.405 310.448C297.405 310.517 297.387 310.569 297.353 310.604C297.327 310.63 297.292 310.643 297.249 310.643H294.064V311.995H298.965C299.008 311.995 299.051 312.017 299.095 312.06C299.138 312.103 299.16 312.147 299.16 312.19V313.048C299.16 313.091 299.138 313.135 299.095 313.178C299.051 313.221 299.008 313.243 298.965 313.243H287.655C287.603 313.243 287.559 313.226 287.525 313.191C287.49 313.148 287.473 313.1 287.473 313.048V312.19C287.473 312.138 287.49 312.095 287.525 312.06C287.559 312.017 287.603 311.995 287.655 311.995H292.569V310.643H290.294C289.947 310.643 289.704 310.565 289.566 310.409C289.427 310.253 289.358 310.023 289.358 309.72V307.172C289.358 306.843 289.431 306.622 289.579 306.509C289.726 306.388 289.964 306.327 290.294 306.327H297.132C297.253 306.327 297.314 306.383 297.314 306.496V307.38C297.314 307.501 297.253 307.562 297.132 307.562H291.113C290.948 307.562 290.866 307.636 290.866 307.783V309.187C290.866 309.256 290.883 309.313 290.918 309.356C290.952 309.399 291.017 309.421 291.113 309.421H297.197C297.266 309.421 297.318 309.43 297.353 309.447C297.387 309.464 297.405 309.508 297.405 309.577V310.448ZM297.301 318.222C297.301 318.265 297.279 318.304 297.236 318.339C297.201 318.382 297.162 318.404 297.119 318.404H296.001C295.949 318.404 295.901 318.382 295.858 318.339C295.823 318.304 295.806 318.265 295.806 318.222V315.648C295.806 315.561 295.788 315.505 295.754 315.479C295.719 315.453 295.654 315.44 295.559 315.44H289.254C289.21 315.44 289.167 315.423 289.124 315.388C289.089 315.353 289.072 315.314 289.072 315.271V314.348C289.072 314.296 289.089 314.257 289.124 314.231C289.167 314.205 289.21 314.192 289.254 314.192H296.443C296.772 314.192 296.997 314.261 297.119 314.4C297.24 314.53 297.301 314.76 297.301 315.089V318.222ZM310.384 318.183C310.384 318.226 310.363 318.265 310.319 318.3C310.285 318.343 310.25 318.365 310.215 318.365H303.312C302.974 318.365 302.745 318.3 302.623 318.17C302.502 318.04 302.441 317.836 302.441 317.559V315.973C302.441 315.696 302.498 315.496 302.61 315.375C302.732 315.245 302.961 315.18 303.299 315.18H308.434C308.504 315.18 308.547 315.171 308.564 315.154C308.582 315.128 308.59 315.076 308.59 314.998V314.517C308.59 314.422 308.582 314.365 308.564 314.348C308.547 314.331 308.499 314.322 308.421 314.322H302.597C302.554 314.322 302.511 314.309 302.467 314.283C302.433 314.248 302.415 314.209 302.415 314.166V313.308C302.415 313.265 302.433 313.226 302.467 313.191C302.511 313.148 302.554 313.126 302.597 313.126H309.162C309.518 313.126 309.752 313.187 309.864 313.308C309.986 313.429 310.046 313.637 310.046 313.932V315.505C310.046 315.808 309.986 316.016 309.864 316.129C309.752 316.242 309.518 316.298 309.162 316.298H304.066C303.997 316.298 303.954 316.311 303.936 316.337C303.919 316.354 303.91 316.398 303.91 316.467V317.013C303.91 317.091 303.919 317.134 303.936 317.143C303.954 317.16 304.001 317.169 304.079 317.169H310.202C310.246 317.169 310.285 317.186 310.319 317.221C310.363 317.256 310.384 317.299 310.384 317.351V318.183ZM301.024 312.463C300.834 312.576 300.695 312.571 300.608 312.45L300.088 311.813C300.036 311.744 300.01 311.679 300.01 311.618C300.019 311.549 300.067 311.492 300.153 311.449C301.185 310.886 301.934 310.205 302.402 309.408C302.87 308.602 303.104 307.605 303.104 306.418C303.104 306.357 303.126 306.31 303.169 306.275C303.221 306.24 303.269 306.223 303.312 306.223L304.43 306.275C304.543 306.275 304.599 306.34 304.599 306.47C304.599 306.834 304.578 307.181 304.534 307.51C304.491 307.831 304.43 308.143 304.352 308.446C304.5 308.732 304.682 309.005 304.898 309.265C305.115 309.525 305.345 309.763 305.587 309.98C305.83 310.197 306.077 310.387 306.328 310.552C306.588 310.708 306.835 310.838 307.069 310.942C307.217 311.003 307.243 311.111 307.147 311.267L306.705 311.969C306.619 312.099 306.506 312.134 306.367 312.073C305.847 311.848 305.362 311.549 304.911 311.176C304.469 310.803 304.084 310.383 303.754 309.915C303.451 310.461 303.065 310.946 302.597 311.371C302.138 311.787 301.614 312.151 301.024 312.463ZM310.046 312.359C310.046 312.472 309.99 312.528 309.877 312.528H308.72C308.608 312.528 308.551 312.467 308.551 312.346V306.223C308.551 306.11 308.608 306.054 308.72 306.054H309.877C309.99 306.054 310.046 306.11 310.046 306.223V312.359Z" fill="black"/>
<path d="M284.18 271.76C284.18 271.793 284.163 271.827 284.13 271.86C284.097 271.893 284.063 271.91 284.03 271.91H275.33C275.29 271.91 275.257 271.893 275.23 271.86C275.203 271.827 275.19 271.793 275.19 271.76V271.17C275.19 271.13 275.203 271.093 275.23 271.06C275.257 271.027 275.29 271.01 275.33 271.01H279.09V270.53C278.383 270.463 277.86 270.307 277.52 270.06C277.18 269.813 277.01 269.537 277.01 269.23C277.01 269.057 277.063 268.89 277.17 268.73C277.283 268.57 277.45 268.43 277.67 268.31C277.89 268.183 278.167 268.083 278.5 268.01C278.833 267.937 279.227 267.9 279.68 267.9C280.133 267.9 280.527 267.937 280.86 268.01C281.2 268.083 281.48 268.183 281.7 268.31C281.92 268.43 282.083 268.57 282.19 268.73C282.303 268.89 282.36 269.057 282.36 269.23C282.36 269.543 282.187 269.823 281.84 270.07C281.493 270.31 280.96 270.463 280.24 270.53V271.01H283.99C284.023 271.01 284.063 271.03 284.11 271.07C284.157 271.103 284.18 271.137 284.18 271.17V271.76ZM282.76 274.27C282.76 274.523 282.697 274.703 282.57 274.81C282.443 274.917 282.253 274.97 282 274.97H277.36C277.06 274.97 276.857 274.917 276.75 274.81C276.65 274.71 276.6 274.53 276.6 274.27V273.1C276.6 272.847 276.663 272.667 276.79 272.56C276.917 272.447 277.107 272.39 277.36 272.39H282C282.3 272.39 282.5 272.443 282.6 272.55C282.707 272.65 282.76 272.833 282.76 273.1V274.27ZM283.29 267.47C283.29 267.51 283.273 267.547 283.24 267.58C283.213 267.607 283.18 267.62 283.14 267.62H276.23C276.197 267.62 276.163 267.603 276.13 267.57C276.097 267.537 276.08 267.497 276.08 267.45V266.92C276.08 266.887 276.097 266.853 276.13 266.82C276.17 266.787 276.207 266.77 276.24 266.77H283.14C283.18 266.77 283.213 266.787 283.24 266.82C283.273 266.847 283.29 266.88 283.29 266.92V267.47ZM281.63 273.42C281.63 273.32 281.587 273.27 281.5 273.27H277.86C277.807 273.27 277.77 273.283 277.75 273.31C277.737 273.33 277.73 273.367 277.73 273.42V273.96C277.73 274.02 277.737 274.057 277.75 274.07C277.77 274.09 277.807 274.1 277.86 274.1H281.5C281.553 274.1 281.587 274.09 281.6 274.07C281.62 274.057 281.63 274.02 281.63 273.96V273.42ZM279.68 268.67C279.173 268.67 278.783 268.723 278.51 268.83C278.243 268.937 278.11 269.07 278.11 269.23C278.11 269.383 278.243 269.513 278.51 269.62C278.783 269.727 279.173 269.78 279.68 269.78C280.193 269.78 280.583 269.727 280.85 269.62C281.123 269.513 281.26 269.383 281.26 269.23C281.26 269.07 281.123 268.937 280.85 268.83C280.583 268.723 280.193 268.67 279.68 268.67ZM281.3 266.27C281.3 266.31 281.283 266.347 281.25 266.38C281.223 266.413 281.187 266.43 281.14 266.43H278.23C278.203 266.43 278.17 266.417 278.13 266.39C278.097 266.363 278.08 266.327 278.08 266.28V265.71C278.08 265.663 278.097 265.627 278.13 265.6C278.17 265.573 278.203 265.56 278.23 265.56H281.14C281.18 265.56 281.217 265.577 281.25 265.61C281.283 265.643 281.3 265.68 281.3 265.72V266.27ZM289.014 271.65C289.014 271.87 288.961 272.037 288.854 272.15C288.748 272.263 288.548 272.32 288.254 272.32H285.824C285.524 272.32 285.321 272.27 285.214 272.17C285.108 272.07 285.054 271.887 285.054 271.62V266.32C285.054 266.287 285.068 266.26 285.094 266.24C285.121 266.213 285.151 266.2 285.184 266.2H286.024C286.058 266.2 286.088 266.213 286.114 266.24C286.148 266.26 286.164 266.287 286.164 266.32V268.49H287.904V266.31C287.904 266.277 287.918 266.247 287.944 266.22C287.971 266.193 288.001 266.18 288.034 266.18H288.884C288.918 266.18 288.948 266.193 288.974 266.22C289.001 266.247 289.014 266.277 289.014 266.31V268.88H290.044V265.87C290.044 265.783 290.091 265.74 290.184 265.74H291.004C291.091 265.74 291.134 265.783 291.134 265.87V274.61C291.134 274.703 291.091 274.75 291.004 274.75H290.184C290.091 274.75 290.044 274.703 290.044 274.61V269.84H289.014V271.65ZM293.074 274.96C293.074 275.047 293.031 275.09 292.944 275.09H292.074C291.988 275.09 291.944 275.047 291.944 274.96V265.71C291.944 265.623 291.991 265.58 292.084 265.58H292.944C293.031 265.58 293.074 265.623 293.074 265.71V274.96ZM287.904 269.4H286.164V271.23C286.164 271.343 286.228 271.4 286.354 271.4H287.714C287.841 271.4 287.904 271.343 287.904 271.23V269.4ZM302.049 274.94C302.049 275.027 302.005 275.07 301.919 275.07H301.029C300.942 275.07 300.899 275.027 300.899 274.94V265.71C300.899 265.623 300.942 265.58 301.029 265.58H301.919C302.005 265.58 302.049 265.623 302.049 265.71V274.94ZM298.439 269.47C298.439 269.163 298.409 268.873 298.349 268.6C298.289 268.32 298.202 268.077 298.089 267.87C297.975 267.663 297.835 267.5 297.669 267.38C297.509 267.26 297.322 267.2 297.109 267.2C296.895 267.2 296.705 267.26 296.539 267.38C296.379 267.5 296.242 267.663 296.129 267.87C296.015 268.077 295.929 268.32 295.869 268.6C295.809 268.873 295.779 269.163 295.779 269.47C295.779 269.77 295.809 270.06 295.869 270.34C295.929 270.613 296.015 270.857 296.129 271.07C296.242 271.277 296.379 271.443 296.539 271.57C296.705 271.69 296.895 271.75 297.109 271.75C297.322 271.75 297.509 271.69 297.669 271.57C297.835 271.443 297.975 271.277 298.089 271.07C298.202 270.857 298.289 270.613 298.349 270.34C298.409 270.06 298.439 269.77 298.439 269.47ZM297.109 272.77C296.729 272.77 296.385 272.69 296.079 272.53C295.772 272.37 295.512 272.147 295.299 271.86C295.092 271.567 294.932 271.217 294.819 270.81C294.705 270.403 294.649 269.957 294.649 269.47C294.649 268.97 294.705 268.517 294.819 268.11C294.932 267.703 295.092 267.36 295.299 267.08C295.512 266.793 295.772 266.573 296.079 266.42C296.385 266.26 296.729 266.18 297.109 266.18C297.495 266.18 297.839 266.26 298.139 266.42C298.445 266.573 298.702 266.793 298.909 267.08C299.122 267.36 299.285 267.703 299.399 268.11C299.512 268.517 299.569 268.97 299.569 269.47C299.569 269.97 299.512 270.423 299.399 270.83C299.285 271.237 299.122 271.583 298.909 271.87C298.702 272.157 298.445 272.38 298.139 272.54C297.839 272.693 297.495 272.77 297.109 272.77ZM304.623 270.74C304.59 270.753 304.55 270.757 304.503 270.75C304.463 270.737 304.426 270.703 304.393 270.65L304.033 270.03C304.006 269.977 304.003 269.93 304.023 269.89C304.05 269.843 304.086 269.813 304.133 269.8C304.633 269.613 305.07 269.413 305.443 269.2C305.823 268.98 306.143 268.73 306.403 268.45C306.67 268.17 306.876 267.85 307.023 267.49C307.176 267.13 307.276 266.713 307.323 266.24C307.33 266.193 307.343 266.147 307.363 266.1C307.39 266.053 307.43 266.033 307.483 266.04L308.353 266.08C308.466 266.087 308.52 266.16 308.513 266.3C308.506 266.473 308.486 266.637 308.453 266.79C308.533 267.11 308.673 267.417 308.873 267.71C309.073 268.003 309.316 268.273 309.603 268.52C309.896 268.76 310.22 268.973 310.573 269.16C310.926 269.347 311.293 269.493 311.673 269.6C311.72 269.613 311.746 269.643 311.753 269.69C311.766 269.73 311.766 269.767 311.753 269.8L311.413 270.44C311.36 270.54 311.28 270.577 311.173 270.55C310.866 270.47 310.556 270.357 310.243 270.21C309.936 270.063 309.64 269.893 309.353 269.7C309.066 269.5 308.803 269.28 308.563 269.04C308.323 268.793 308.12 268.53 307.953 268.25C307.62 268.837 307.166 269.337 306.593 269.75C306.026 270.163 305.37 270.493 304.623 270.74ZM312.253 272.42C312.286 272.42 312.32 272.437 312.353 272.47C312.386 272.503 312.403 272.54 312.403 272.58V273.23C312.403 273.263 312.386 273.297 312.353 273.33C312.32 273.363 312.286 273.38 312.253 273.38H303.543C303.503 273.38 303.47 273.363 303.443 273.33C303.416 273.297 303.403 273.263 303.403 273.23V272.58C303.403 272.473 303.45 272.42 303.543 272.42H312.253Z" fill="black"/>
<path d="M479.14 621.06C478.95 621.06 478.855 620.995 478.855 620.865V620.01C478.855 619.93 478.875 619.85 478.915 619.77C478.965 619.69 479.02 619.61 479.08 619.53L481.36 616.83C482.19 615.84 482.805 615.015 483.205 614.355C483.605 613.695 483.805 613.155 483.805 612.735C483.805 612.255 483.655 611.86 483.355 611.55C483.065 611.24 482.705 611.085 482.275 611.085C481.865 611.085 481.465 611.145 481.075 611.265C480.695 611.375 480.28 611.56 479.83 611.82C479.75 611.87 479.67 611.895 479.59 611.895C479.51 611.885 479.46 611.835 479.44 611.745L479.23 610.605C479.21 610.555 479.215 610.505 479.245 610.455C479.275 610.405 479.34 610.35 479.44 610.29C479.82 610.09 480.255 609.91 480.745 609.75C481.235 609.59 481.715 609.51 482.185 609.51C482.665 609.51 483.105 609.58 483.505 609.72C483.915 609.85 484.265 610.05 484.555 610.32C484.855 610.58 485.09 610.91 485.26 611.31C485.43 611.71 485.515 612.17 485.515 612.69C485.515 613.14 485.415 613.6 485.215 614.07C485.015 614.53 484.765 614.985 484.465 615.435C484.165 615.875 483.845 616.3 483.505 616.71C483.165 617.11 482.855 617.475 482.575 617.805C482.355 618.075 482.12 618.36 481.87 618.66C481.63 618.95 481.385 619.235 481.135 619.515H485.53C485.67 619.515 485.74 619.595 485.74 619.755V620.805C485.74 620.975 485.67 621.06 485.53 621.06H479.14ZM488.087 615.915C488.037 615.915 487.992 615.9 487.952 615.87C487.912 615.83 487.892 615.785 487.892 615.735V614.535C487.892 614.485 487.912 614.445 487.952 614.415C487.992 614.375 488.037 614.355 488.087 614.355H491.717C491.777 614.355 491.822 614.375 491.852 614.415C491.892 614.445 491.912 614.485 491.912 614.535V615.735C491.912 615.785 491.892 615.83 491.852 615.87C491.822 615.9 491.777 615.915 491.717 615.915H488.087ZM499.236 620.265C498.856 620.575 498.396 620.805 497.856 620.955C497.326 621.095 496.771 621.165 496.191 621.165C495.761 621.165 495.326 621.125 494.886 621.045C494.456 620.975 494.056 620.875 493.686 620.745C493.586 620.715 493.516 620.68 493.476 620.64C493.436 620.59 493.421 620.52 493.431 620.43L493.566 619.305C493.576 619.215 493.606 619.155 493.656 619.125C493.706 619.095 493.801 619.105 493.941 619.155C494.201 619.235 494.461 619.315 494.721 619.395C494.981 619.465 495.246 619.51 495.516 619.53C495.726 619.55 495.941 619.565 496.161 619.575C496.381 619.585 496.596 619.58 496.806 619.56C497.026 619.53 497.231 619.485 497.421 619.425C497.621 619.355 497.806 619.26 497.976 619.14C498.456 618.81 498.696 618.31 498.696 617.64C498.696 617.41 498.641 617.19 498.531 616.98C498.431 616.76 498.271 616.57 498.051 616.41C497.831 616.24 497.546 616.11 497.196 616.02C496.856 615.92 496.446 615.87 495.966 615.87H495.216C495.136 615.87 495.081 615.86 495.051 615.84C495.031 615.81 495.021 615.755 495.021 615.675V614.565C495.021 614.475 495.031 614.42 495.051 614.4C495.081 614.38 495.136 614.37 495.216 614.37H495.936C496.156 614.37 496.421 614.34 496.731 614.28C497.041 614.21 497.341 614.1 497.631 613.95C497.921 613.8 498.166 613.61 498.366 613.38C498.576 613.15 498.681 612.87 498.681 612.54C498.681 612.28 498.616 612.055 498.486 611.865C498.356 611.675 498.186 611.52 497.976 611.4C497.776 611.28 497.556 611.195 497.316 611.145C497.076 611.085 496.851 611.055 496.641 611.055C496.501 611.055 496.336 611.07 496.146 611.1C495.966 611.13 495.776 611.17 495.576 611.22C495.386 611.26 495.191 611.31 494.991 611.37C494.791 611.43 494.611 611.49 494.451 611.55C494.331 611.6 494.246 611.615 494.196 611.595C494.146 611.565 494.111 611.505 494.091 611.415L493.956 610.32C493.936 610.26 493.941 610.205 493.971 610.155C494.001 610.105 494.071 610.06 494.181 610.02C494.621 609.86 495.051 609.735 495.471 609.645C495.891 609.555 496.311 609.51 496.731 609.51C497.181 609.51 497.621 609.565 498.051 609.675C498.491 609.785 498.876 609.955 499.206 610.185C499.546 610.415 499.821 610.715 500.031 611.085C500.241 611.455 500.346 611.895 500.346 612.405C500.346 612.675 500.296 612.945 500.196 613.215C500.106 613.485 499.976 613.74 499.806 613.98C499.636 614.22 499.431 614.435 499.191 614.625C498.951 614.815 498.691 614.97 498.411 615.09C499.071 615.38 499.571 615.75 499.911 616.2C500.251 616.64 500.421 617.135 500.421 617.685C500.421 618.215 500.316 618.7 500.106 619.14C499.906 619.58 499.616 619.955 499.236 620.265Z" fill="black"/>
<path d="M553.14 621.06C552.95 621.06 552.855 620.995 552.855 620.865V620.01C552.855 619.93 552.875 619.85 552.915 619.77C552.965 619.69 553.02 619.61 553.08 619.53L555.36 616.83C556.19 615.84 556.805 615.015 557.205 614.355C557.605 613.695 557.805 613.155 557.805 612.735C557.805 612.255 557.655 611.86 557.355 611.55C557.065 611.24 556.705 611.085 556.275 611.085C555.865 611.085 555.465 611.145 555.075 611.265C554.695 611.375 554.28 611.56 553.83 611.82C553.75 611.87 553.67 611.895 553.59 611.895C553.51 611.885 553.46 611.835 553.44 611.745L553.23 610.605C553.21 610.555 553.215 610.505 553.245 610.455C553.275 610.405 553.34 610.35 553.44 610.29C553.82 610.09 554.255 609.91 554.745 609.75C555.235 609.59 555.715 609.51 556.185 609.51C556.665 609.51 557.105 609.58 557.505 609.72C557.915 609.85 558.265 610.05 558.555 610.32C558.855 610.58 559.09 610.91 559.26 611.31C559.43 611.71 559.515 612.17 559.515 612.69C559.515 613.14 559.415 613.6 559.215 614.07C559.015 614.53 558.765 614.985 558.465 615.435C558.165 615.875 557.845 616.3 557.505 616.71C557.165 617.11 556.855 617.475 556.575 617.805C556.355 618.075 556.12 618.36 555.87 618.66C555.63 618.95 555.385 619.235 555.135 619.515H559.53C559.67 619.515 559.74 619.595 559.74 619.755V620.805C559.74 620.975 559.67 621.06 559.53 621.06H553.14ZM562.087 615.915C562.037 615.915 561.992 615.9 561.952 615.87C561.912 615.83 561.892 615.785 561.892 615.735V614.535C561.892 614.485 561.912 614.445 561.952 614.415C561.992 614.375 562.037 614.355 562.087 614.355H565.717C565.777 614.355 565.822 614.375 565.852 614.415C565.892 614.445 565.912 614.485 565.912 614.535V615.735C565.912 615.785 565.892 615.83 565.852 615.87C565.822 615.9 565.777 615.915 565.717 615.915H562.087ZM567.686 621.06C567.496 621.06 567.401 620.995 567.401 620.865V620.01C567.401 619.93 567.421 619.85 567.461 619.77C567.511 619.69 567.566 619.61 567.626 619.53L569.906 616.83C570.736 615.84 571.351 615.015 571.751 614.355C572.151 613.695 572.351 613.155 572.351 612.735C572.351 612.255 572.201 611.86 571.901 611.55C571.611 611.24 571.251 611.085 570.821 611.085C570.411 611.085 570.011 611.145 569.621 611.265C569.241 611.375 568.826 611.56 568.376 611.82C568.296 611.87 568.216 611.895 568.136 611.895C568.056 611.885 568.006 611.835 567.986 611.745L567.776 610.605C567.756 610.555 567.761 610.505 567.791 610.455C567.821 610.405 567.886 610.35 567.986 610.29C568.366 610.09 568.801 609.91 569.291 609.75C569.781 609.59 570.261 609.51 570.731 609.51C571.211 609.51 571.651 609.58 572.051 609.72C572.461 609.85 572.811 610.05 573.101 610.32C573.401 610.58 573.636 610.91 573.806 611.31C573.976 611.71 574.061 612.17 574.061 612.69C574.061 613.14 573.961 613.6 573.761 614.07C573.561 614.53 573.311 614.985 573.011 615.435C572.711 615.875 572.391 616.3 572.051 616.71C571.711 617.11 571.401 617.475 571.121 617.805C570.901 618.075 570.666 618.36 570.416 618.66C570.176 618.95 569.931 619.235 569.681 619.515H574.076C574.216 619.515 574.286 619.595 574.286 619.755V620.805C574.286 620.975 574.216 621.06 574.076 621.06H567.686Z" fill="black"/>
<path d="M627.14 621.06C626.95 621.06 626.855 620.995 626.855 620.865V620.01C626.855 619.93 626.875 619.85 626.915 619.77C626.965 619.69 627.02 619.61 627.08 619.53L629.36 616.83C630.19 615.84 630.805 615.015 631.205 614.355C631.605 613.695 631.805 613.155 631.805 612.735C631.805 612.255 631.655 611.86 631.355 611.55C631.065 611.24 630.705 611.085 630.275 611.085C629.865 611.085 629.465 611.145 629.075 611.265C628.695 611.375 628.28 611.56 627.83 611.82C627.75 611.87 627.67 611.895 627.59 611.895C627.51 611.885 627.46 611.835 627.44 611.745L627.23 610.605C627.21 610.555 627.215 610.505 627.245 610.455C627.275 610.405 627.34 610.35 627.44 610.29C627.82 610.09 628.255 609.91 628.745 609.75C629.235 609.59 629.715 609.51 630.185 609.51C630.665 609.51 631.105 609.58 631.505 609.72C631.915 609.85 632.265 610.05 632.555 610.32C632.855 610.58 633.09 610.91 633.26 611.31C633.43 611.71 633.515 612.17 633.515 612.69C633.515 613.14 633.415 613.6 633.215 614.07C633.015 614.53 632.765 614.985 632.465 615.435C632.165 615.875 631.845 616.3 631.505 616.71C631.165 617.11 630.855 617.475 630.575 617.805C630.355 618.075 630.12 618.36 629.87 618.66C629.63 618.95 629.385 619.235 629.135 619.515H633.53C633.67 619.515 633.74 619.595 633.74 619.755V620.805C633.74 620.975 633.67 621.06 633.53 621.06H627.14ZM636.087 615.915C636.037 615.915 635.992 615.9 635.952 615.87C635.912 615.83 635.892 615.785 635.892 615.735V614.535C635.892 614.485 635.912 614.445 635.952 614.415C635.992 614.375 636.037 614.355 636.087 614.355H639.717C639.777 614.355 639.822 614.375 639.852 614.415C639.892 614.445 639.912 614.485 639.912 614.535V615.735C639.912 615.785 639.892 615.83 639.852 615.87C639.822 615.9 639.777 615.915 639.717 615.915H636.087ZM644.836 621.045C644.696 621.045 644.626 620.98 644.626 620.85V611.97L643.516 612.93C643.466 612.97 643.406 612.995 643.336 613.005C643.276 613.015 643.226 613 643.186 612.96L642.511 612.15C642.481 612.11 642.466 612.065 642.466 612.015C642.476 611.955 642.506 611.9 642.556 611.85L644.851 609.735C644.871 609.715 644.906 609.695 644.956 609.675C645.006 609.655 645.046 609.645 645.076 609.645H645.871C646.041 609.645 646.141 609.665 646.171 609.705C646.211 609.735 646.231 609.85 646.231 610.05V620.85C646.231 620.98 646.166 621.045 646.036 621.045H644.836Z" fill="black"/>
<path d="M404.14 621.06C403.95 621.06 403.855 620.995 403.855 620.865V620.01C403.855 619.93 403.875 619.85 403.915 619.77C403.965 619.69 404.02 619.61 404.08 619.53L406.36 616.83C407.19 615.84 407.805 615.015 408.205 614.355C408.605 613.695 408.805 613.155 408.805 612.735C408.805 612.255 408.655 611.86 408.355 611.55C408.065 611.24 407.705 611.085 407.275 611.085C406.865 611.085 406.465 611.145 406.075 611.265C405.695 611.375 405.28 611.56 404.83 611.82C404.75 611.87 404.67 611.895 404.59 611.895C404.51 611.885 404.46 611.835 404.44 611.745L404.23 610.605C404.21 610.555 404.215 610.505 404.245 610.455C404.275 610.405 404.34 610.35 404.44 610.29C404.82 610.09 405.255 609.91 405.745 609.75C406.235 609.59 406.715 609.51 407.185 609.51C407.665 609.51 408.105 609.58 408.505 609.72C408.915 609.85 409.265 610.05 409.555 610.32C409.855 610.58 410.09 610.91 410.26 611.31C410.43 611.71 410.515 612.17 410.515 612.69C410.515 613.14 410.415 613.6 410.215 614.07C410.015 614.53 409.765 614.985 409.465 615.435C409.165 615.875 408.845 616.3 408.505 616.71C408.165 617.11 407.855 617.475 407.575 617.805C407.355 618.075 407.12 618.36 406.87 618.66C406.63 618.95 406.385 619.235 406.135 619.515H410.53C410.67 619.515 410.74 619.595 410.74 619.755V620.805C410.74 620.975 410.67 621.06 410.53 621.06H404.14ZM413.087 615.915C413.037 615.915 412.992 615.9 412.952 615.87C412.912 615.83 412.892 615.785 412.892 615.735V614.535C412.892 614.485 412.912 614.445 412.952 614.415C412.992 614.375 413.037 614.355 413.087 614.355H416.717C416.777 614.355 416.822 614.375 416.852 614.415C416.892 614.445 416.912 614.485 416.912 614.535V615.735C416.912 615.785 416.892 615.83 416.852 615.87C416.822 615.9 416.777 615.915 416.717 615.915H413.087ZM424.596 618.495V620.775C424.596 620.885 424.581 620.96 424.551 621C424.521 621.03 424.451 621.045 424.341 621.045H423.261C423.151 621.045 423.076 621.025 423.036 620.985C423.006 620.945 422.991 620.875 422.991 620.775V618.495H418.191C418.091 618.495 418.026 618.485 417.996 618.465C417.966 618.445 417.951 618.395 417.951 618.315V617.205C417.951 617.135 417.971 617.065 418.011 616.995C418.051 616.925 418.091 616.865 418.131 616.815L422.766 609.84C422.826 609.76 422.866 609.71 422.886 609.69C422.916 609.66 422.981 609.645 423.081 609.645H424.446C424.526 609.645 424.571 609.66 424.581 609.69C424.591 609.72 424.596 609.78 424.596 609.87V616.95H425.991C426.081 616.95 426.141 616.965 426.171 616.995C426.201 617.015 426.216 617.075 426.216 617.175V618.27C426.216 618.37 426.201 618.435 426.171 618.465C426.141 618.485 426.081 618.495 425.991 618.495H424.596ZM419.766 616.95H422.991V612.06L419.766 616.95Z" fill="black"/>
<path d="M294.36 467.77C294.31 467.77 294.26 467.745 294.21 467.695C294.16 467.645 294.135 467.595 294.135 467.545V454.495C294.135 454.435 294.16 454.385 294.21 454.345C294.26 454.305 294.31 454.285 294.36 454.285H295.245C295.305 454.285 295.36 454.305 295.41 454.345C295.46 454.385 295.485 454.435 295.485 454.495V460.135H296.205C296.305 459.075 296.54 458.29 296.91 457.78C297.28 457.27 297.695 457.015 298.155 457.015C298.415 457.015 298.665 457.095 298.905 457.255C299.145 457.425 299.355 457.675 299.535 458.005C299.725 458.335 299.875 458.75 299.985 459.25C300.095 459.75 300.15 460.34 300.15 461.02C300.15 461.7 300.095 462.29 299.985 462.79C299.875 463.3 299.725 463.72 299.535 464.05C299.355 464.38 299.145 464.625 298.905 464.785C298.665 464.955 298.415 465.04 298.155 465.04C297.685 465.04 297.265 464.78 296.895 464.26C296.535 463.74 296.305 462.94 296.205 461.86H295.485V467.485C295.485 467.535 295.455 467.595 295.395 467.665C295.345 467.735 295.295 467.77 295.245 467.77H294.36ZM290.595 465.64C290.215 465.64 289.945 465.545 289.785 465.355C289.625 465.165 289.545 464.88 289.545 464.5V457.54C289.545 457.09 289.625 456.785 289.785 456.625C289.935 456.475 290.205 456.4 290.595 456.4H292.35C292.73 456.4 293 456.495 293.16 456.685C293.33 456.875 293.415 457.16 293.415 457.54V464.5C293.415 464.95 293.335 465.25 293.175 465.4C293.025 465.56 292.75 465.64 292.35 465.64H290.595ZM300.795 466.435C300.735 466.435 300.68 466.41 300.63 466.36C300.59 466.32 300.57 466.27 300.57 466.21V455.845C300.57 455.795 300.595 455.745 300.645 455.695C300.695 455.645 300.755 455.62 300.825 455.62H301.62C301.67 455.62 301.72 455.645 301.77 455.695C301.82 455.755 301.845 455.81 301.845 455.86V466.21C301.845 466.27 301.82 466.32 301.77 466.36C301.73 466.41 301.68 466.435 301.62 466.435H300.795ZM291.87 463.945C292.02 463.945 292.095 463.88 292.095 463.75V458.29C292.095 458.21 292.075 458.155 292.035 458.125C292.005 458.105 291.95 458.095 291.87 458.095H291.06C290.97 458.095 290.915 458.105 290.895 458.125C290.865 458.155 290.85 458.21 290.85 458.29V463.75C290.85 463.83 290.865 463.88 290.895 463.9C290.915 463.93 290.97 463.945 291.06 463.945H291.87ZM298.995 461.02C298.995 460.26 298.915 459.675 298.755 459.265C298.595 458.865 298.395 458.665 298.155 458.665C297.925 458.665 297.73 458.865 297.57 459.265C297.41 459.675 297.33 460.26 297.33 461.02C297.33 461.79 297.41 462.375 297.57 462.775C297.73 463.185 297.925 463.39 298.155 463.39C298.395 463.39 298.595 463.185 298.755 462.775C298.915 462.375 298.995 461.79 298.995 461.02ZM302.595 463.45C302.535 463.45 302.48 463.425 302.43 463.375C302.38 463.335 302.355 463.28 302.355 463.21V458.845C302.355 458.805 302.375 458.755 302.415 458.695C302.455 458.645 302.51 458.62 302.58 458.62H303.435C303.505 458.62 303.56 458.645 303.6 458.695C303.64 458.755 303.66 458.805 303.66 458.845V463.21C303.66 463.27 303.635 463.325 303.585 463.375C303.535 463.425 303.48 463.45 303.42 463.45H302.595ZM294.525 475.021C294.195 475.021 293.945 474.941 293.775 474.781C293.605 474.621 293.52 474.321 293.52 473.881V470.236C293.52 469.786 293.595 469.481 293.745 469.321C293.895 469.161 294.17 469.081 294.57 469.081H302.52C302.57 469.081 302.61 469.101 302.64 469.141C302.68 469.181 302.7 469.226 302.7 469.276V470.536C302.7 470.586 302.68 470.631 302.64 470.671C302.61 470.721 302.57 470.746 302.52 470.746H299.265V473.356H302.535C302.585 473.356 302.63 473.376 302.67 473.416C302.71 473.456 302.73 473.501 302.73 473.551V474.826C302.73 474.876 302.71 474.921 302.67 474.961C302.63 475.001 302.585 475.021 302.535 475.021H298.68V476.566H303.195C303.325 476.566 303.39 476.636 303.39 476.776V478.006C303.39 478.136 303.325 478.201 303.195 478.201H290.085C289.945 478.201 289.875 478.136 289.875 478.006V476.776C289.875 476.636 289.945 476.566 290.085 476.566H297.24V475.021H294.525ZM289.56 481.111C289.43 481.111 289.365 481.046 289.365 480.916V479.611C289.365 479.481 289.43 479.416 289.56 479.416H303.435C303.565 479.416 303.63 479.486 303.63 479.626V480.916C303.63 481.046 303.565 481.111 303.435 481.111H289.56ZM297.9 473.356V470.746H295.155C294.985 470.746 294.9 470.841 294.9 471.031V473.071C294.9 473.261 294.985 473.356 295.155 473.356H297.9ZM289.59 494.573C289.46 494.573 289.395 494.508 289.395 494.378V493.043C289.395 492.913 289.46 492.848 289.59 492.848H303.435C303.565 492.848 303.63 492.913 303.63 493.043V494.378C303.63 494.508 303.565 494.573 303.435 494.573H289.59ZM297.795 489.158C298.255 489.158 298.69 489.113 299.1 489.023C299.52 488.933 299.885 488.803 300.195 488.633C300.505 488.463 300.75 488.253 300.93 488.003C301.11 487.763 301.2 487.483 301.2 487.163C301.2 486.843 301.11 486.558 300.93 486.308C300.75 486.068 300.505 485.863 300.195 485.693C299.885 485.523 299.52 485.393 299.1 485.303C298.69 485.213 298.255 485.168 297.795 485.168C297.345 485.168 296.91 485.213 296.49 485.303C296.08 485.393 295.715 485.523 295.395 485.693C295.085 485.863 294.835 486.068 294.645 486.308C294.465 486.558 294.375 486.843 294.375 487.163C294.375 487.483 294.465 487.763 294.645 488.003C294.835 488.253 295.085 488.463 295.395 488.633C295.715 488.803 296.08 488.933 296.49 489.023C296.91 489.113 297.345 489.158 297.795 489.158ZM292.845 487.163C292.845 486.593 292.965 486.078 293.205 485.618C293.445 485.158 293.78 484.768 294.21 484.448C294.65 484.138 295.175 483.898 295.785 483.728C296.395 483.558 297.065 483.473 297.795 483.473C298.545 483.473 299.225 483.558 299.835 483.728C300.445 483.898 300.96 484.138 301.38 484.448C301.81 484.768 302.14 485.158 302.37 485.618C302.61 486.078 302.73 486.593 302.73 487.163C302.73 487.743 302.61 488.258 302.37 488.708C302.14 489.168 301.81 489.553 301.38 489.863C300.96 490.183 300.445 490.428 299.835 490.598C299.225 490.768 298.545 490.853 297.795 490.853C297.045 490.853 296.365 490.768 295.755 490.598C295.145 490.428 294.625 490.183 294.195 489.863C293.765 489.553 293.43 489.168 293.19 488.708C292.96 488.258 292.845 487.743 292.845 487.163ZM295.89 498.434C295.87 498.384 295.865 498.324 295.875 498.254C295.895 498.194 295.945 498.139 296.025 498.089L296.955 497.549C297.035 497.509 297.105 497.504 297.165 497.534C297.235 497.574 297.28 497.629 297.3 497.699C297.58 498.449 297.88 499.104 298.2 499.664C298.53 500.234 298.905 500.714 299.325 501.104C299.745 501.504 300.225 501.814 300.765 502.034C301.305 502.264 301.93 502.414 302.64 502.484C302.71 502.494 302.78 502.514 302.85 502.544C302.92 502.584 302.95 502.644 302.94 502.724L302.88 504.029C302.87 504.199 302.76 504.279 302.55 504.269C302.29 504.259 302.045 504.229 301.815 504.179C301.335 504.299 300.875 504.509 300.435 504.809C299.995 505.109 299.59 505.474 299.22 505.904C298.86 506.344 298.54 506.829 298.26 507.359C297.98 507.889 297.76 508.439 297.6 509.009C297.58 509.079 297.535 509.119 297.465 509.129C297.405 509.149 297.35 509.149 297.3 509.129L296.34 508.619C296.19 508.539 296.135 508.419 296.175 508.259C296.295 507.799 296.465 507.334 296.685 506.864C296.905 506.404 297.16 505.959 297.45 505.529C297.75 505.099 298.08 504.704 298.44 504.344C298.81 503.984 299.205 503.679 299.625 503.429C298.745 502.929 297.995 502.249 297.375 501.389C296.755 500.539 296.26 499.554 295.89 498.434ZM293.37 509.879C293.37 509.929 293.345 509.979 293.295 510.029C293.245 510.079 293.19 510.104 293.13 510.104H292.155C292.105 510.104 292.055 510.079 292.005 510.029C291.955 509.979 291.93 509.929 291.93 509.879V496.814C291.93 496.754 291.955 496.704 292.005 496.664C292.055 496.624 292.105 496.604 292.155 496.604H293.13C293.29 496.604 293.37 496.674 293.37 496.814V509.879Z" fill="black"/>
<path d="M294.36 467.77C294.31 467.77 294.26 467.745 294.21 467.695C294.16 467.645 294.135 467.595 294.135 467.545V454.495C294.135 454.435 294.16 454.385 294.21 454.345C294.26 454.305 294.31 454.285 294.36 454.285H295.245C295.305 454.285 295.36 454.305 295.41 454.345C295.46 454.385 295.485 454.435 295.485 454.495V460.135H296.205C296.305 459.075 296.54 458.29 296.91 457.78C297.28 457.27 297.695 457.015 298.155 457.015C298.415 457.015 298.665 457.095 298.905 457.255C299.145 457.425 299.355 457.675 299.535 458.005C299.725 458.335 299.875 458.75 299.985 459.25C300.095 459.75 300.15 460.34 300.15 461.02C300.15 461.7 300.095 462.29 299.985 462.79C299.875 463.3 299.725 463.72 299.535 464.05C299.355 464.38 299.145 464.625 298.905 464.785C298.665 464.955 298.415 465.04 298.155 465.04C297.685 465.04 297.265 464.78 296.895 464.26C296.535 463.74 296.305 462.94 296.205 461.86H295.485V467.485C295.485 467.535 295.455 467.595 295.395 467.665C295.345 467.735 295.295 467.77 295.245 467.77H294.36ZM290.595 465.64C290.215 465.64 289.945 465.545 289.785 465.355C289.625 465.165 289.545 464.88 289.545 464.5V457.54C289.545 457.09 289.625 456.785 289.785 456.625C289.935 456.475 290.205 456.4 290.595 456.4H292.35C292.73 456.4 293 456.495 293.16 456.685C293.33 456.875 293.415 457.16 293.415 457.54V464.5C293.415 464.95 293.335 465.25 293.175 465.4C293.025 465.56 292.75 465.64 292.35 465.64H290.595ZM300.795 466.435C300.735 466.435 300.68 466.41 300.63 466.36C300.59 466.32 300.57 466.27 300.57 466.21V455.845C300.57 455.795 300.595 455.745 300.645 455.695C300.695 455.645 300.755 455.62 300.825 455.62H301.62C301.67 455.62 301.72 455.645 301.77 455.695C301.82 455.755 301.845 455.81 301.845 455.86V466.21C301.845 466.27 301.82 466.32 301.77 466.36C301.73 466.41 301.68 466.435 301.62 466.435H300.795ZM291.87 463.945C292.02 463.945 292.095 463.88 292.095 463.75V458.29C292.095 458.21 292.075 458.155 292.035 458.125C292.005 458.105 291.95 458.095 291.87 458.095H291.06C290.97 458.095 290.915 458.105 290.895 458.125C290.865 458.155 290.85 458.21 290.85 458.29V463.75C290.85 463.83 290.865 463.88 290.895 463.9C290.915 463.93 290.97 463.945 291.06 463.945H291.87ZM298.995 461.02C298.995 460.26 298.915 459.675 298.755 459.265C298.595 458.865 298.395 458.665 298.155 458.665C297.925 458.665 297.73 458.865 297.57 459.265C297.41 459.675 297.33 460.26 297.33 461.02C297.33 461.79 297.41 462.375 297.57 462.775C297.73 463.185 297.925 463.39 298.155 463.39C298.395 463.39 298.595 463.185 298.755 462.775C298.915 462.375 298.995 461.79 298.995 461.02ZM302.595 463.45C302.535 463.45 302.48 463.425 302.43 463.375C302.38 463.335 302.355 463.28 302.355 463.21V458.845C302.355 458.805 302.375 458.755 302.415 458.695C302.455 458.645 302.51 458.62 302.58 458.62H303.435C303.505 458.62 303.56 458.645 303.6 458.695C303.64 458.755 303.66 458.805 303.66 458.845V463.21C303.66 463.27 303.635 463.325 303.585 463.375C303.535 463.425 303.48 463.45 303.42 463.45H302.595ZM294.525 475.021C294.195 475.021 293.945 474.941 293.775 474.781C293.605 474.621 293.52 474.321 293.52 473.881V470.236C293.52 469.786 293.595 469.481 293.745 469.321C293.895 469.161 294.17 469.081 294.57 469.081H302.52C302.57 469.081 302.61 469.101 302.64 469.141C302.68 469.181 302.7 469.226 302.7 469.276V470.536C302.7 470.586 302.68 470.631 302.64 470.671C302.61 470.721 302.57 470.746 302.52 470.746H299.265V473.356H302.535C302.585 473.356 302.63 473.376 302.67 473.416C302.71 473.456 302.73 473.501 302.73 473.551V474.826C302.73 474.876 302.71 474.921 302.67 474.961C302.63 475.001 302.585 475.021 302.535 475.021H298.68V476.566H303.195C303.325 476.566 303.39 476.636 303.39 476.776V478.006C303.39 478.136 303.325 478.201 303.195 478.201H290.085C289.945 478.201 289.875 478.136 289.875 478.006V476.776C289.875 476.636 289.945 476.566 290.085 476.566H297.24V475.021H294.525ZM289.56 481.111C289.43 481.111 289.365 481.046 289.365 480.916V479.611C289.365 479.481 289.43 479.416 289.56 479.416H303.435C303.565 479.416 303.63 479.486 303.63 479.626V480.916C303.63 481.046 303.565 481.111 303.435 481.111H289.56ZM297.9 473.356V470.746H295.155C294.985 470.746 294.9 470.841 294.9 471.031V473.071C294.9 473.261 294.985 473.356 295.155 473.356H297.9ZM289.59 494.573C289.46 494.573 289.395 494.508 289.395 494.378V493.043C289.395 492.913 289.46 492.848 289.59 492.848H303.435C303.565 492.848 303.63 492.913 303.63 493.043V494.378C303.63 494.508 303.565 494.573 303.435 494.573H289.59ZM297.795 489.158C298.255 489.158 298.69 489.113 299.1 489.023C299.52 488.933 299.885 488.803 300.195 488.633C300.505 488.463 300.75 488.253 300.93 488.003C301.11 487.763 301.2 487.483 301.2 487.163C301.2 486.843 301.11 486.558 300.93 486.308C300.75 486.068 300.505 485.863 300.195 485.693C299.885 485.523 299.52 485.393 299.1 485.303C298.69 485.213 298.255 485.168 297.795 485.168C297.345 485.168 296.91 485.213 296.49 485.303C296.08 485.393 295.715 485.523 295.395 485.693C295.085 485.863 294.835 486.068 294.645 486.308C294.465 486.558 294.375 486.843 294.375 487.163C294.375 487.483 294.465 487.763 294.645 488.003C294.835 488.253 295.085 488.463 295.395 488.633C295.715 488.803 296.08 488.933 296.49 489.023C296.91 489.113 297.345 489.158 297.795 489.158ZM292.845 487.163C292.845 486.593 292.965 486.078 293.205 485.618C293.445 485.158 293.78 484.768 294.21 484.448C294.65 484.138 295.175 483.898 295.785 483.728C296.395 483.558 297.065 483.473 297.795 483.473C298.545 483.473 299.225 483.558 299.835 483.728C300.445 483.898 300.96 484.138 301.38 484.448C301.81 484.768 302.14 485.158 302.37 485.618C302.61 486.078 302.73 486.593 302.73 487.163C302.73 487.743 302.61 488.258 302.37 488.708C302.14 489.168 301.81 489.553 301.38 489.863C300.96 490.183 300.445 490.428 299.835 490.598C299.225 490.768 298.545 490.853 297.795 490.853C297.045 490.853 296.365 490.768 295.755 490.598C295.145 490.428 294.625 490.183 294.195 489.863C293.765 489.553 293.43 489.168 293.19 488.708C292.96 488.258 292.845 487.743 292.845 487.163ZM295.89 498.434C295.87 498.384 295.865 498.324 295.875 498.254C295.895 498.194 295.945 498.139 296.025 498.089L296.955 497.549C297.035 497.509 297.105 497.504 297.165 497.534C297.235 497.574 297.28 497.629 297.3 497.699C297.58 498.449 297.88 499.104 298.2 499.664C298.53 500.234 298.905 500.714 299.325 501.104C299.745 501.504 300.225 501.814 300.765 502.034C301.305 502.264 301.93 502.414 302.64 502.484C302.71 502.494 302.78 502.514 302.85 502.544C302.92 502.584 302.95 502.644 302.94 502.724L302.88 504.029C302.87 504.199 302.76 504.279 302.55 504.269C302.29 504.259 302.045 504.229 301.815 504.179C301.335 504.299 300.875 504.509 300.435 504.809C299.995 505.109 299.59 505.474 299.22 505.904C298.86 506.344 298.54 506.829 298.26 507.359C297.98 507.889 297.76 508.439 297.6 509.009C297.58 509.079 297.535 509.119 297.465 509.129C297.405 509.149 297.35 509.149 297.3 509.129L296.34 508.619C296.19 508.539 296.135 508.419 296.175 508.259C296.295 507.799 296.465 507.334 296.685 506.864C296.905 506.404 297.16 505.959 297.45 505.529C297.75 505.099 298.08 504.704 298.44 504.344C298.81 503.984 299.205 503.679 299.625 503.429C298.745 502.929 297.995 502.249 297.375 501.389C296.755 500.539 296.26 499.554 295.89 498.434ZM293.37 509.879C293.37 509.929 293.345 509.979 293.295 510.029C293.245 510.079 293.19 510.104 293.13 510.104H292.155C292.105 510.104 292.055 510.079 292.005 510.029C291.955 509.979 291.93 509.929 291.93 509.879V496.814C291.93 496.754 291.955 496.704 292.005 496.664C292.055 496.624 292.105 496.604 292.155 496.604H293.13C293.29 496.604 293.37 496.674 293.37 496.814V509.879Z" fill="black"/>
</svg>
